<?xml version="1.0" encoding="UTF-8" standalone="no"?>
<svg
   xmlns:dc="http://purl.org/dc/elements/1.1/"
   xmlns:cc="http://creativecommons.org/ns#"
   xmlns:rdf="http://www.w3.org/1999/02/22-rdf-syntax-ns#"
   xmlns:svg="http://www.w3.org/2000/svg"
   xmlns="http://www.w3.org/2000/svg"
   xmlns:sodipodi="http://sodipodi.sourceforge.net/DTD/sodipodi-0.dtd"
   xmlns:inkscape="http://www.inkscape.org/namespaces/inkscape"
   viewBox="0 0 596 244"
   stroke-miterlimit="2"
   version="1.1"
   id="svg1"
   sodipodi:docname="amp-energy.svg"
   width="596"
   height="244"
   style="clip-rule:evenodd;fill-rule:evenodd;stroke-linejoin:round;stroke-miterlimit:2"
   inkscape:version="0.92.4 (5da689c313, 2019-01-14)">
  <metadata
     id="metadata36">
    <rdf:RDF>
      <cc:Work
         rdf:about="">
        <dc:format>image/svg+xml</dc:format>
        <dc:type
           rdf:resource="http://purl.org/dc/dcmitype/StillImage" />
      </cc:Work>
    </rdf:RDF>
  </metadata>
  <defs
     id="defs34" />
  <sodipodi:namedview
     pagecolor="#ffffff"
     bordercolor="#666666"
     borderopacity="1"
     objecttolerance="10"
     gridtolerance="10"
     guidetolerance="10"
     inkscape:pageopacity="0"
     inkscape:pageshadow="2"
     inkscape:window-width="2560"
     inkscape:window-height="1315"
     id="namedview32"
     showgrid="false"
     inkscape:zoom="2.8236814"
     inkscape:cx="282.89463"
     inkscape:cy="141.17186"
     inkscape:window-x="5107"
     inkscape:window-y="1240"
     inkscape:window-maximized="1"
     inkscape:current-layer="svg1" />
  <g
     id="amplogo"
     style="fill-rule:nonzero">
    <path
       d="m 456.323,1.223 c -12,2.9 -22.2,11.5 -27.8,23.4 -2.9,6.1 -3.594,10.717 -3.594,17.017 0,6.6 0.594,10.083 4.194,17.383 11.5,23.3 39.1,30.5 60.1,15.8 3.2,-2.2 5.806,-4.719 6.206,-4.719 0.3,0 2.994,2.819 5.594,5.319 l 4.7,4.7 5,-4.2 5.1,-4.3 -5.5,-6.1 c -3,-3.3 -7.6,-8.8 -10.2,-12.2 l -4.811,-6.144 -6.489,6.644 c -3.9,4 -8.8,7.7 -12.3,9.4 -18.9,9.3 -40.2,-8.4 -34.3,-28.5 4.3,-15 20.7,-22.5 34.2,-15.6 7.7,3.9 12.2,8.4 27.4,27.2 7.8,9.6 16.9,20 20.3,23 15,13.6 32.5,16.7 48.7,8.8 15.6,-7.6 25.3,-26.6 22.2,-43.3 -3.2,-17.3 -14.3,-29.2 -31.3,-33.6 -14.2,-3.7 -28.1,1 -41.6,14 l -7.5,7.1 5.2,6.5 5.2,6.6 7.1,-7.1 c 8.8,-8.7 14.8,-11.8 22.7,-11.8 13.7,0.2 24.3,10.9 24.3,24.9 0,13.7 -10.8,24.4 -24.5,24.4 -11.4,-0.1 -18.5,-5.7 -37.7,-29.4 -7.7,-9.5 -16.7,-19.8 -20,-22.8 -13.1,-11.9 -26.3,-15.9 -40.6,-12.4 z"
       id="path24"
       inkscape:connector-curvature="0"
       style="fill:#e41000" />
    <path
       d="m 52.423,88.923 c -31.7,5.3 -54.3,33.3 -52.3,64.9 1.6,25.4 17.6,46.5 41.7,55.2 5.941,1.796 8.785,2.395 20,2.3 9.75,-0.082 11.461,-0.675 20.3,-2.4 3.986,-1.194 5.852,-1.951 6.7,-2.5 v -28.6 l -4.4,3.4 c -7,5.3 -12.8,7.1 -23.1,7.1 -11,-0.1 -17.7,-2.7 -25.8,-10.4 -19.7,-18.7 -14.5,-50.8 10.1,-62.4 6.1,-2.9 7.5,-3.2 16.7,-3.2 9,0 10.6,0.3 16,2.9 6.9,3.4 14.4,10.5 17.4,16.4 4.6,9 5.1,13.7 5.1,47.4 v 31.8 h 23.1 l -0.3,-36.8 -0.3,-33.7 c -0.216,-2.58 -1.462,-7.043 -2.7,-10.5 -10.3,-28.2 -39.5,-45.7 -68.2,-40.9 z m 349.4,0.5 c -17.3,3.7 -33.2,16.2 -41.6,32.6 -6.2,12.3 -6.4,13.8 -6.4,70.5 v 51.3 h 22.9 l 0.3,-51.3 c 0.3,-50.9 0.3,-51.2 2.6,-56.9 4.8,-11.8 17.3,-21.6 30,-23.7 16.6,-2.7 33.3,6.1 40.9,21.6 2.5,5.3 2.8,6.8 2.8,16.3 0,9.6 -0.3,11 -2.9,16.5 -7.6,15.4 -24.6,24.5 -40.7,21.6 -6.7,-1.1 -14.8,-5.2 -18.5,-8.3 a 505.675,505.675 0 0 1 -3.375,-2.519 c 0,0 -0.025,7.019 -0.025,14.619 v 14 l 5.7,2.1 c 34.2,12.8 71.3,-6 81.9,-41.5 2.5,-8.2 2.5,-24.8 0,-33 -9.5,-31.9 -41.4,-50.9 -73.6,-43.9 z m -221.4,0.9 c -14.6,4 -27.9,14.8 -34.9,28.2 -6.2,11.8 -6.7,16.1 -6.7,56.5 v 35.8 h 24 v -36.5 c 0,-33.6 0.2,-36.9 1.9,-41.5 2.8,-7.3 8,-13.1 15.3,-17 5.7,-3.1 7.1,-3.4 14.8,-3.5 6.6,0 9.5,0.5 13.2,2.2 6.6,3 13.3,9.6 16.5,16.2 1.501,3.105 2.754,6.874 2.8,8.6 l 0.3,34.2 0.3,37.3 h 22.9 v -32.8 c 0,-32.9 0.7,-41.7 3.7,-47.7 3,-6 8.2,-11.2 14.5,-14.5 5.7,-3.1 7.1,-3.4 14.8,-3.5 6.6,0 9.5,0.5 13.2,2.2 6.6,3 13.3,9.6 16.5,16.2 1.337,2.811 2.84,6.403 2.8,8.6 l 0.3,34.2 0.3,37.3 h 22.9 v -37.3 c 0,-41.1 -0.3,-43.8 -6.3,-55.1 -1.7,-3.4 -6.3,-9.3 -10.2,-13.2 -11.2,-11.4 -23.2,-16.4 -39,-16.4 -15.8,0 -27.2,4.4 -38.9,15.1 l -6.3,5.8 -5.3,-5.4 c -5.8,-5.9 -15.2,-11.3 -23.9,-13.9 -6.7,-2 -22.5,-2 -29.5,-0.1 z"
       id="path26"
       inkscape:connector-curvature="0"
       style="fill:#0f0f0f" />
  </g>
</svg>
