<?xml version="1.0" encoding="UTF-8" standalone="no"?><!DOCTYPE svg PUBLIC "-//W3C//DTD SVG 1.1//EN" "http://www.w3.org/Graphics/SVG/1.1/DTD/svg11.dtd"><svg width="100%" height="100%" viewBox="0 0 414 736" version="1.1" xmlns="http://www.w3.org/2000/svg" xmlns:xlink="http://www.w3.org/1999/xlink" xml:space="preserve" xmlns:serif="http://www.serif.com/" style="fill-rule:evenodd;clip-rule:evenodd;stroke-linecap:round;stroke-linejoin:round;stroke-miterlimit:1.5;"><g id="BackgroundGradient"><path d="M414,0l0,736l-414,0l0,-736l414,0Z" style="fill:url(#_Linear1);"/></g><g id="Sun"><circle cx="65.624" cy="-0.614" r="175.29" style="fill:#fff;fill-opacity:0.25;"/><circle cx="65.624" cy="-0.614" r="69.12" style="fill:#fff;fill-opacity:0.3;"/><circle cx="65.624" cy="-0.614" r="58.249" style="fill:#fff;fill-opacity:0.4;"/><circle cx="65.624" cy="-0.614" r="49.915" style="fill:#fff;stroke:#fff;stroke-width:0.33px;"/><path d="M413.899,354.697l-305.668,-342.88l-12.117,8.59l317.589,643.455l0.196,-309.165Z" style="fill:#fff;fill-opacity:0.7;"/><path d="M413.981,735.803l-0.184,-49.019l-316.105,-654.744l-7.843,4.917l298.47,698.986l25.662,-0.14Z" style="fill:#fff;fill-opacity:0.7;"/><g id="Shine"><path d="M158.34,41.684c9.338,-3.714 19.935,0.852 23.649,10.19c3.714,9.338 -0.852,19.934 -10.19,23.648c-9.339,3.714 -19.935,-0.852 -23.649,-10.19c-3.714,-9.338 0.852,-19.934 10.19,-23.648Z" style="fill:#fff;fill-opacity:0.28;"/><path d="M135.179,34.821c3.763,-1.496 8.033,0.344 9.53,4.107c1.497,3.763 -0.343,8.033 -4.106,9.53c-3.764,1.497 -8.034,-0.344 -9.53,-4.107c-1.497,-3.763 0.343,-8.033 4.106,-9.53Z" style="fill:#fff;fill-opacity:0.35;"/><path d="M193.035,67.337c7.572,-3.012 16.165,0.691 19.177,8.264c3.012,7.573 -0.691,16.166 -8.263,19.178c-7.573,3.011 -16.166,-0.692 -19.178,-8.264c-3.012,-7.573 0.691,-16.166 8.264,-19.178Z" style="fill:#fff;fill-opacity:0.25;"/><path d="M229.562,93.822c3.205,-1.275 6.843,0.293 8.118,3.498c1.275,3.206 -0.293,6.843 -3.498,8.118c-3.206,1.275 -6.844,-0.292 -8.119,-3.498c-1.275,-3.205 0.293,-6.843 3.499,-8.118Z" style="fill:#fff;fill-opacity:0.56;"/><path d="M213.366,100.483c2.323,-0.924 4.959,0.212 5.883,2.535c0.923,2.322 -0.212,4.958 -2.535,5.882c-2.323,0.924 -4.959,-0.212 -5.883,-2.535c-0.924,-2.322 0.212,-4.958 2.535,-5.882Z" style="fill:#fff;fill-opacity:0.39;"/><path d="M214.426,71.995c4.507,-1.793 9.62,0.411 11.413,4.917c1.792,4.507 -0.412,9.621 -4.918,11.413c-4.506,1.792 -9.62,-0.411 -11.412,-4.918c-1.793,-4.506 0.411,-9.62 4.917,-11.412Z" style="fill:#fff;fill-opacity:0.24;"/></g></g><g id="Clouds"><path d="M330.81,49.633c0,-5.317 -4.317,-9.634 -9.634,-9.634l-42.042,0c-5.318,0 -9.635,4.317 -9.635,9.634c0,5.318 4.317,9.635 9.635,9.635l42.042,0c5.317,0 9.634,-4.317 9.634,-9.635Z" style="fill:none;stroke:#b1b1b1;stroke-width:0.5px;"/><path d="M335.297,53.052c0,-5.318 -4.317,-9.635 -9.635,-9.635l-42.042,0c-5.318,0 -9.635,4.317 -9.635,9.635c0,5.317 4.317,9.634 9.635,9.634l42.042,0c5.318,0 9.635,-4.317 9.635,-9.634Z" style="fill:#f0f0f0;"/><path d="M396.106,22.466c0,-5.317 -4.318,-9.634 -9.635,-9.634l-93.194,0c-5.317,0 -9.634,4.317 -9.634,9.634c0,5.318 4.317,9.635 9.634,9.635l93.194,0c5.317,0 9.635,-4.317 9.635,-9.635Z" style="fill:none;stroke:#acacac;stroke-width:0.5px;"/><path d="M403.333,27.561c0,-5.317 -4.317,-9.635 -9.634,-9.635l-93.194,0c-5.318,0 -9.635,4.318 -9.635,9.635c0,5.318 4.317,9.635 9.635,9.635l93.194,0c5.317,0 9.634,-4.317 9.634,-9.635Z" style="fill:#f0f0f0;"/><g id="Cloud1"></g></g><g id="Beams"><path d="M65.156,92.315l-1.51,2.995l-1.49,-3.005l3,0.01Z" style="fill:#c1c1c1;"/><path d="M64.16,90.781l-0.004,1.5l-1,-0.003l0.004,-1.5l1,0.003Zm0.01,-3l-0.005,1.5l-1,-0.003l0.005,-1.5l1,0.003Zm0.009,-3l-0.005,1.5l-1,-0.003l0.005,-1.5l1,0.003Zm0.009,-3l-0.004,1.5l-1,-0.003l0.004,-1.5l1,0.003Zm0.01,-3l-0.005,1.5l-1,-0.003l0.005,-1.5l1,0.003Zm0.009,-3l-0.005,1.5l-1,-0.003l0.005,-1.5l1,0.003Zm0.009,-3l-0.004,1.5l-1,-0.003l0.004,-1.5l1,0.003Zm0.01,-3l-0.005,1.5l-1,-0.003l0.005,-1.5l1,0.003Zm0.009,-3l-0.005,1.5l-1,-0.003l0.005,-1.5l1,0.003Zm0.009,-3l-0.004,1.5l-1,-0.003l0.004,-1.5l1,0.003Zm0.009,-3l-0.004,1.5l-1,-0.003l0.004,-1.5l1,0.003Zm0.01,-3l-0.005,1.5l-1,-0.003l0.005,-1.5l1,0.003Zm0.009,-3l-0.005,1.5l-1,-0.003l0.005,-1.5l1,0.003Zm0.009,-3l-0.004,1.5l-1,-0.003l0.004,-1.5l1,0.003Z" style="fill:#c1c1c1;"/><path d="M24.816,117.5l-2.361,2.383l-0.489,-3.318l2.85,0.935Z" style="fill:#c4c4c4;"/><path d="M23.764,117.499l-0.085,0.259l-0.95,-0.311l0.085,-0.26l0.95,0.312Zm0.935,-2.85l-0.467,1.425l-0.951,-0.312l0.468,-1.425l0.95,0.312Zm0.936,-2.851l-0.468,1.426l-0.95,-0.312l0.468,-1.425l0.95,0.311Zm0.935,-2.85l-0.468,1.425l-0.95,-0.312l0.468,-1.425l0.95,0.312Zm0.936,-2.85l-0.468,1.425l-0.95,-0.312l0.468,-1.425l0.95,0.312Zm0.935,-2.851l-0.468,1.425l-0.95,-0.311l0.468,-1.426l0.95,0.312Zm0.936,-2.85l-0.468,1.425l-0.95,-0.312l0.467,-1.425l0.951,0.312Zm0.935,-2.851l-0.468,1.426l-0.95,-0.312l0.468,-1.425l0.95,0.311Zm0.935,-2.85l-0.467,1.425l-0.95,-0.312l0.467,-1.425l0.95,0.312Z" style="fill:#c4c4c4;"/><path d="M40.27,68.498l-0.482,1.421l-0.947,-0.322l0.482,-1.42l0.947,0.321Zm0.964,-2.841l-0.482,1.421l-0.947,-0.322l0.482,-1.42l0.947,0.321Zm0.964,-2.84l-0.482,1.42l-0.947,-0.321l0.482,-1.421l0.947,0.322Zm0.964,-2.841l-0.482,1.42l-0.947,-0.321l0.482,-1.421l0.947,0.322Zm0.965,-2.841l-0.483,1.42l-0.947,-0.321l0.483,-1.42l0.947,0.321Zm0.964,-2.841l-0.482,1.421l-0.947,-0.322l0.482,-1.42l0.947,0.321Zm0.964,-2.841l-0.482,1.421l-0.947,-0.322l0.482,-1.42l0.947,0.321Zm0.964,-2.841l-0.482,1.421l-0.947,-0.322l0.482,-1.42l0.947,0.321Z" style="fill:#c4c4c4;"/><path d="M90.944,77.816l-0.481,3.319l-2.367,-2.376l2.848,-0.943Z" style="fill:#fff;"/><path d="M90.183,78.7l-0.949,0.314l-0.412,-1.245l0.949,-0.314l0.412,1.245Zm-0.883,-2.669l-0.95,0.314l-0.471,-1.424l0.949,-0.314l0.472,1.424Zm-0.943,-2.848l-0.95,0.314l-0.471,-1.423l0.949,-0.315l0.472,1.424Zm-0.944,-2.848l-0.949,0.315l-0.471,-1.424l0.949,-0.315l0.471,1.424Zm-0.943,-2.848l-0.949,0.315l-0.472,-1.424l0.95,-0.315l0.471,1.424Zm-0.943,-2.848l-0.949,0.315l-0.472,-1.424l0.95,-0.315l0.471,1.424Zm-0.943,-2.848l-0.949,0.315l-0.472,-1.424l0.949,-0.314l0.472,1.423Zm-0.943,-2.847l-0.949,0.314l-0.472,-1.424l0.949,-0.314l0.472,1.424Zm-0.943,-2.848l-0.95,0.314l-0.471,-1.424l0.949,-0.314l0.472,1.424Zm-0.943,-2.848l-0.95,0.314l-0.471,-1.424l0.949,-0.314l0.472,1.424Zm-0.943,-2.848l-0.95,0.314l-0.471,-1.424l0.949,-0.314l0.472,1.424Z" style="fill:#fff;"/></g><g id="SolarPanel2"><path d="M0,508.757l414,-6.332l0,79.908l-414,36.667l0,-110.243Z" style="fill:#e6e6e6;"/><g id="HorizontalLines"><path d="M1.29,606.244l411.722,-33.632" style="fill:none;stroke:#fff;stroke-width:0.6px;"/><path d="M1.567,589.275l411.646,-30.752" style="fill:none;stroke:#fff;stroke-width:0.6px;"/><path d="M1.692,572.921l411.163,-25.901" style="fill:none;stroke:#fff;stroke-width:0.6px;"/><path d="M1.334,557.009l411.521,-21.393" style="fill:none;stroke:#fff;stroke-width:0.6px;"/><path d="M1.565,543.3l411.34,-17.528" style="fill:none;stroke:#fff;stroke-width:0.6px;"/><path d="M1.032,528.875l411.823,-12.095" style="fill:none;stroke:#fff;stroke-width:0.6px;"/><path d="M1.032,516.542l411.823,-8.428" style="fill:none;stroke:#fff;stroke-width:0.6px;"/></g><g id="VerticalLines"><path d="M263.18,505.344l33.67,87.589" style="fill:none;stroke:#fff;stroke-width:0.6px;"/><path d="M226.773,505.923l31.696,90.61" style="fill:none;stroke:#fff;stroke-width:0.6px;"/><path d="M190.365,506.459l29.254,93.407" style="fill:none;stroke:#fff;stroke-width:0.6px;"/><path d="M153.593,506.949l26.697,96.984" style="fill:none;stroke:#fff;stroke-width:0.6px;"/><path d="M115.76,507.573l23.514,99.693" style="fill:none;stroke:#fff;stroke-width:0.6px;"/><path d="M77.664,508.175l19.656,102.425" style="fill:none;stroke:#fff;stroke-width:0.6px;"/><path d="M1.551,509.563l13.625,109.037" style="fill:none;stroke:#fff;stroke-width:0.6px;"/></g><path d="M0,506.689l414,-5.487l0,-1.535l-414,5.22l0,1.802Z" style="fill:#dfdfdf;"/><path d="M0,621.355l414,-36.82l0,-3.202l-414,37.221l0,2.801Z" style="fill:#dfdfdf;"/><path d="M36.294,505.882l17.621,109.118l5.291,-0.667l-17.417,-108.506l-5.495,0.055Z" style="fill:#dfdfdf;"/><path d="M277.513,502.149l36.455,89.851l3.763,-0.593l-36.021,-89.193l-4.197,-0.065Z" style="fill:#dfdfdf;"/></g><g id="SolarPanel"><path d="M0,656.757l414,-37.666l0,116.909l-414,0l0,-79.243Z" style="fill:#e6e6e6;"/><g id="HorizontalLines1" serif:id="HorizontalLines"><path d="M282.667,735.214l130.729,-14.615" style="fill:none;stroke:#fff;stroke-width:0.6px;"/><path d="M149.548,735.214l263.923,-28.536" style="fill:none;stroke:#fff;stroke-width:0.6px;"/><path d="M5.957,735.244l407.388,-42.299" style="fill:none;stroke:#fff;stroke-width:0.6px;"/><path d="M0.567,720.608l412.98,-41.752" style="fill:none;stroke:#fff;stroke-width:0.6px;"/><path d="M0.692,706.588l412.829,-40.234" style="fill:none;stroke:#fff;stroke-width:0.6px;"/><path d="M0.667,692.009l412.854,-38.726" style="fill:none;stroke:#fff;stroke-width:0.6px;"/><path d="M0.565,677.967l413.007,-37.529" style="fill:none;stroke:#fff;stroke-width:0.6px;"/><path d="M0.698,664.542l412.823,-36.428" style="fill:none;stroke:#fff;stroke-width:0.6px;"/></g><g id="VerticalLines1" serif:id="VerticalLines"><path d="M399.222,621.004l14.445,27.748" style="fill:none;stroke:#fff;stroke-width:0.6px;"/><path d="M383.71,622.56l29.957,60.011" style="fill:none;stroke:#fff;stroke-width:0.6px;"/><path d="M366.865,624.116l46.802,96.275" style="fill:none;stroke:#fff;stroke-width:0.6px;"/><path d="M350.159,625.406l50.841,110.194" style="fill:none;stroke:#fff;stroke-width:0.6px;"/><path d="M332.98,626.962l49.353,108.638" style="fill:none;stroke:#fff;stroke-width:0.6px;"/><path d="M315.95,628.563l46.383,107.037" style="fill:none;stroke:#fff;stroke-width:0.6px;"/><path d="M298.919,630.164l43.414,105.436" style="fill:none;stroke:#fff;stroke-width:0.6px;"/><path d="M263.821,633.677l39.179,101.923" style="fill:none;stroke:#fff;stroke-width:0.6px;"/><path d="M246.281,635.278l36.719,100.322" style="fill:none;stroke:#fff;stroke-width:0.6px;"/><path d="M228.289,636.923l34.378,98.277" style="fill:none;stroke:#fff;stroke-width:0.6px;"/><path d="M210.703,638.48l31.964,97.12" style="fill:none;stroke:#fff;stroke-width:0.6px;"/><path d="M192.557,640.125l29.776,95.075" style="fill:none;stroke:#fff;stroke-width:0.6px;"/><path d="M174.194,641.726l27.806,93.874" style="fill:none;stroke:#fff;stroke-width:0.6px;"/><path d="M156.254,643.283l25.413,92.317" style="fill:none;stroke:#fff;stroke-width:0.6px;"/><path d="M136.704,644.972l23.629,90.628" style="fill:none;stroke:#fff;stroke-width:0.6px;"/><path d="M118.669,646.573l20.998,89.027" style="fill:none;stroke:#fff;stroke-width:0.6px;"/><path d="M98.812,648.485l19.521,87.115" style="fill:none;stroke:#fff;stroke-width:0.6px;"/><path d="M80.606,650.175l16.394,85.425" style="fill:none;stroke:#fff;stroke-width:0.6px;"/><path d="M61.252,651.822l15.415,83.778" style="fill:none;stroke:#fff;stroke-width:0.6px;"/><path d="M21,655.438l11.667,80.162" style="fill:none;stroke:#fff;stroke-width:0.6px;"/><path d="M1.467,657.23l9.533,78.37" style="fill:none;stroke:#fff;stroke-width:0.6px;"/></g><path d="M0,654.355l414,-36.82l0,-3.202l-414,37.221l0,2.801Z" style="fill:#dfdfdf;"/><path d="M35.309,651.215l13.691,84.785l9.333,0l-14.916,-85.506l-8.108,0.721Z" style="fill:#dfdfdf;"/><path d="M275.919,629.816l43.081,106.184l7.667,0l-43.156,-106.86l-7.592,0.676Z" style="fill:#dfdfdf;"/></g><g id="AmpInfinity"><path id="path24" d="M41.796,76.236c0.1,-1.545 -0.549,-3.088 -1.766,-4.203c-0.622,-0.575 -1.149,-0.83 -1.904,-1.065c-0.79,-0.246 -1.23,-0.305 -2.238,-0.147c-3.22,0.508 -5.113,3.546 -4.136,6.61c0.144,0.465 0.349,0.871 0.334,0.919c-0.011,0.036 -0.449,0.253 -0.846,0.472l-0.738,0.387l0.316,0.756l0.325,0.771l0.936,-0.431c0.507,-0.236 1.338,-0.582 1.842,-0.767l0.915,-0.346l-0.553,-1.026c-0.334,-0.616 -0.594,-1.341 -0.667,-1.824c-0.409,-2.611 2.506,-4.501 4.693,-3.045c1.637,1.075 1.923,3.319 0.593,4.679c-0.755,0.777 -1.462,1.148 -4.281,2.267c-1.441,0.576 -3.026,1.278 -3.512,1.573c-2.189,1.289 -3.213,3.27 -2.872,5.505c0.329,2.152 2.242,4.023 4.358,4.275c2.192,0.262 4.032,-0.623 5.193,-2.495c0.973,-1.563 0.929,-3.403 -0.124,-5.506l-0.571,-1.163l-0.973,0.38l-0.984,0.377l0.585,1.115c0.714,1.379 0.861,2.213 0.567,3.16c-0.536,1.633 -2.213,2.504 -3.89,1.981c-1.641,-0.511 -2.519,-2.204 -2.008,-3.845c0.437,-1.362 1.373,-2.003 4.928,-3.419c1.425,-0.567 2.995,-1.261 3.478,-1.544c1.914,-1.125 2.885,-2.557 3,-4.401Z" style="fill:#ededed;fill-rule:nonzero;"/></g><path d="M413.981,735.803l-0.184,-49.019l-89.669,-185.759l-35.952,0.462l100.143,234.456l25.662,-0.14Z" style="fill:#8f8f8f;fill-opacity:0.1;"/><path d="M333.485,500.911l80.515,-1.213l-0.297,164.164l-80.218,-162.951Z" style="fill:#8f8f8f;fill-opacity:0.1;"/><defs><linearGradient id="_Linear1" x1="0" y1="0" x2="1" y2="0" gradientUnits="userSpaceOnUse" gradientTransform="matrix(1.42277e-14,-736,-414,-8.02975e-14,207,736)"><stop offset="0" style="stop-color:#fff;stop-opacity:1"/><stop offset="1" style="stop-color:#ccc;stop-opacity:1"/></linearGradient></defs></svg>