<?xml version="1.0" encoding="UTF-8" standalone="no"?><!DOCTYPE svg PUBLIC "-//W3C//DTD SVG 1.1//EN" "http://www.w3.org/Graphics/SVG/1.1/DTD/svg11.dtd"><svg width="100%" height="100%" viewBox="0 0 2560 1440" version="1.1" xmlns="http://www.w3.org/2000/svg" xmlns:xlink="http://www.w3.org/1999/xlink" xml:space="preserve" xmlns:serif="http://www.serif.com/" style="fill-rule:evenodd;clip-rule:evenodd;stroke-linecap:round;stroke-linejoin:round;stroke-miterlimit:1.5;"><g id="BackgroundGradient"><path d="M2560,0l0,1443.21l-2560,0l0,-1443.21l2560,0Z" style="fill:url(#_Linear1);"/></g><g id="Sun"><circle cx="222.75" cy="81.25" r="483.75" style="fill:#fff;fill-opacity:0.25;"/><circle cx="222.75" cy="81.25" r="190.75" style="fill:#fff;fill-opacity:0.3;"/><circle cx="222.75" cy="81.25" r="160.75" style="fill:#fff;fill-opacity:0.4;"/><circle cx="222.75" cy="81.25" r="137.75" style="fill:#fff;stroke:#fff;stroke-width:1px;"/><path d="M2560,1223.84l-2231.61,-1163.59l-25.351,57.569l1711.48,1321.39l545.482,0.793l0,-216.163Z" style="fill:#fff;fill-opacity:0.7;"/><path d="M1983.89,1440l-1660.08,-1280.24l-20.77,14.875l1452.47,1265.36l228.379,0Z" style="fill:#fff;fill-opacity:0.7;"/><path d="M2558.63,1223.2l-538.247,-280.243l-648.351,0.209l643.51,496.836l544.455,0l-1.367,-216.802Z" style="fill-opacity:0.08;"/><path d="M1983.89,1440.73l-645.042,-497.734l-153.882,-0.045l570.545,497.045l228.379,0.734Z" style="fill-opacity:0.09;"/><g id="Shine"><circle cx="543.25" cy="481.75" r="83.25" style="fill:#fff;fill-opacity:0.28;"/><circle cx="434.285" cy="374.75" r="50.25" style="fill:#fff;fill-opacity:0.28;"/><circle cx="363.785" cy="304.25" r="20.25" style="fill:#fff;fill-opacity:0.35;"/><circle cx="576.75" cy="582.25" r="40.75" style="fill:#fff;fill-opacity:0.25;"/><circle cx="648" cy="654.857" r="17.25" style="fill:#fff;fill-opacity:0.56;"/><circle cx="556.5" cy="672.107" r="12.5" style="fill:#fff;fill-opacity:0.39;"/><circle cx="630.75" cy="582.25" r="24.25" style="fill:#fff;fill-opacity:0.24;"/></g></g><g id="Clouds"><path d="M2337.37,163.959c0,-15.178 -12.322,-27.5 -27.5,-27.5l-266,0c-15.177,0 -27.5,12.322 -27.5,27.5c0,15.177 12.323,27.5 27.5,27.5l266,0c15.178,0 27.5,-12.323 27.5,-27.5Z" style="fill:none;stroke:#acacac;stroke-width:1px;"/><path d="M2151,241.5c0,-15.178 -12.322,-27.5 -27.5,-27.5l-120,0c-15.178,0 -27.5,12.322 -27.5,27.5c0,15.178 12.322,27.5 27.5,27.5l120,0c15.178,0 27.5,-12.322 27.5,-27.5Z" style="fill:none;stroke:#b1b1b1;stroke-width:1px;"/><path d="M1455,214c0,-15.178 -12.322,-27.5 -27.5,-27.5l-120,0c-15.178,0 -27.5,12.322 -27.5,27.5c0,15.178 12.322,27.5 27.5,27.5l120,0c15.178,0 27.5,-12.322 27.5,-27.5Z" style="fill:none;stroke:#b1b1b1;stroke-width:1px;"/><path d="M1397,117.5c0,-15.178 -12.322,-27.5 -27.5,-27.5l-120,0c-15.178,0 -27.5,12.322 -27.5,27.5c0,15.178 12.322,27.5 27.5,27.5l120,0c15.178,0 27.5,-12.322 27.5,-27.5Z" style="fill:none;stroke:#b1b1b1;stroke-width:1px;"/><path d="M1706.5,44.5c0,-15.178 -12.322,-27.5 -27.5,-27.5l-336,0c-15.178,0 -27.5,12.322 -27.5,27.5c0,15.178 12.322,27.5 27.5,27.5l336,0c15.178,0 27.5,-12.322 27.5,-27.5Z" style="fill:none;stroke:#a7a7a7;stroke-width:1px;"/><path d="M1403,123.5c0,-15.178 -12.322,-27.5 -27.5,-27.5l-120,0c-15.178,0 -27.5,12.322 -27.5,27.5c0,15.178 12.322,27.5 27.5,27.5l120,0c15.178,0 27.5,-12.322 27.5,-27.5Z" style="fill:#f0f0f0;"/><g id="Cloud2"><path d="M2160,246.5c0,-15.178 -12.322,-27.5 -27.5,-27.5l-120,0c-15.178,0 -27.5,12.322 -27.5,27.5c0,15.178 12.322,27.5 27.5,27.5l120,0c15.178,0 27.5,-12.322 27.5,-27.5Z" style="fill:#f0f0f0;"/><path d="M1601,55.5c0,-15.178 -12.322,-27.5 -27.5,-27.5l-266,0c-15.178,0 -27.5,12.322 -27.5,27.5c0,15.178 12.322,27.5 27.5,27.5l266,0c15.178,0 27.5,-12.322 27.5,-27.5Z" style="fill:#f0f0f0;"/></g><g id="Cloud1"><path d="M2358,178.5c0,-15.178 -12.322,-27.5 -27.5,-27.5l-266,0c-15.178,0 -27.5,12.322 -27.5,27.5c0,15.178 12.322,27.5 27.5,27.5l266,0c15.178,0 27.5,-12.322 27.5,-27.5Z" style="fill:#f0f0f0;"/><path d="M1564,191.5c0,-15.178 -12.322,-27.5 -27.5,-27.5l-168.5,0c-15.178,0 -27.5,12.322 -27.5,27.5c0,15.178 12.322,27.5 27.5,27.5l168.5,0c15.178,0 27.5,-12.322 27.5,-27.5Z" style="fill:#f0f0f0;"/></g></g><g id="Wind"><path d="M1633.54,387.538l0.18,0.002l0.181,0.003l0.18,0.003l0.181,0.005l0.18,0.006l0.181,0.007l0.18,0.008l0.18,0.009l0.181,0.01l0.18,0.011l0.18,0.012l0.18,0.013l0.18,0.014l0.18,0.016l0.18,0.016l0.179,0.017l0.18,0.018l0.179,0.02l0.179,0.02l0.179,0.022l0.179,0.022l0.179,0.023l0.179,0.025l0.178,0.026l0.179,0.026l0.178,0.028l0.178,0.028l0.178,0.03l0.178,0.031l0.177,0.032l0.177,0.032l0.178,0.034l0.177,0.035l0.176,0.036l0.177,0.037l0.176,0.038l0.176,0.039l0.176,0.04l0.176,0.041l0.175,0.042l0.175,0.043l0.175,0.045l0.175,0.045l0.174,0.046l0.174,0.047l0.174,0.049l0.174,0.049l0.173,0.05l0.173,0.052l0.173,0.052l0.172,0.054l0.172,0.054l0.172,0.056l0.171,0.057l0.171,0.057l0.171,0.059l0.171,0.06l0.17,0.06l0.17,0.062l0.169,0.063l0.17,0.064l0.168,0.065l0.169,0.066l0.168,0.067l0.167,0.068l0.168,0.069l0.167,0.07l0.166,0.071l0.166,0.072l0.166,0.073l0.165,0.074l0.165,0.076l0.165,0.076l0.163,0.077l0.164,0.079l0.163,0.079l0.163,0.08l0.162,0.082l0.162,0.082l0.161,0.084l0.161,0.084l0.161,0.086l0.16,0.087l0.159,0.087l0.159,0.089l0.159,0.09l0.158,0.09l0.157,0.092l0.157,0.093l0.156,0.094l0.156,0.095l0.156,0.096l0.155,0.097l0.154,0.098l0.154,0.099l0.153,0.1l0.153,0.101l0.152,0.102l0.151,0.103l0.151,0.104l0.151,0.105l0.15,0.107l0.149,0.107l0.149,0.108l0.148,0.11l0.147,0.11l0.147,0.111l0.146,0.113l0.145,0.113l0.145,0.115l0.145,0.115l0.143,0.117l0.143,0.117l0.143,0.119l0.141,0.12l0.141,0.12l0.14,0.122l0.14,0.123l0.139,0.123l0.138,0.125l0.138,0.126l0.137,0.127l0.136,0.127l0.135,0.129l0.135,0.13l0.134,0.131l0.133,0.132l0.133,0.133l0.132,0.134l0.131,0.135l0.13,0.136l0.129,0.137l0.129,0.138l0.128,0.139l0.127,0.14l0.127,0.141l0.125,0.143l0.125,0.142l0.124,0.145l0.123,0.145l0.122,0.146l0.122,0.147l0.121,0.149l0.12,0.149l0.119,0.15l0.118,0.151l0.117,0.152l0.117,0.154l0.116,0.154l0.114,0.155l0.114,0.157l0.113,0.157l0.112,0.158l0.112,0.159l0.11,0.16l0.11,0.162l0.108,0.162l0.108,0.163l0.106,0.165l0.106,0.165l0.105,0.167l0.104,0.166l0.103,0.169l0.102,0.17l0.101,0.17l0.1,0.171l0.099,0.172l0.099,0.174l0.097,0.174l0.096,0.175l0.095,0.176l0.094,0.177l0.094,0.179l0.092,0.179l0.091,0.179l0.09,0.182l0.09,0.182l0.088,0.183l0.087,0.184l0.086,0.186l0.085,0.185l0.084,0.187l0.083,0.188l0.082,0.189l0.081,0.19l0.079,0.191l0.079,0.192l0.078,0.193l0.076,0.194l0.076,0.194l0.074,0.196l0.073,0.197l0.072,0.198l0.072,0.199l0.069,0.199l0.069,0.201l0.068,0.201l0.066,0.202l0.066,0.205l0.064,0.204l0.063,0.205l0.062,0.206l0.061,0.208l0.059,0.208l0.059,0.209l0.057,0.21l0.056,0.212l0.055,0.212l0.054,0.212l0.052,0.214l0.052,0.215l0.05,0.216l0.049,0.217l0.047,0.218l0.047,0.218l0.045,0.22l0.044,0.221l0.043,0.221l0.042,0.222l0.04,0.224l0.039,0.224l0.038,0.225l0.036,0.226l0.036,0.228l0.034,0.228l0.032,0.228l0.032,0.23l0.03,0.232l0.029,0.231l0.028,0.232l0.026,0.235l0.025,0.234l0.024,0.236l0.022,0.236l0.021,0.238l0.02,0.237l0.018,0.24l0.017,0.24l0.016,0.241l0.015,0.242l0.013,0.243l0.011,0.244l0.011,0.244l0.009,0.247l0.007,0.246l0.007,0.247l0.005,0.249l0.003,0.249l0.002,0.25l0.001,0.252l0,0.161l-0.002,0.16l-0.002,0.159l-0.003,0.162l-0.004,0.16l-0.005,0.16l-0.006,0.161l-0.007,0.16l-0.007,0.16l-0.009,0.161l-0.01,0.16l-0.01,0.159l-0.011,0.161l-0.013,0.16l-0.013,0.16l-0.014,0.16l-0.015,0.16l-0.016,0.159l-0.016,0.16l-0.018,0.159l-0.019,0.159l-0.019,0.159l-0.021,0.16l-0.021,0.158l-0.022,0.159l-0.023,0.159l-0.024,0.159l-0.025,0.158l-0.026,0.159l-0.027,0.158l-0.028,0.159l-0.028,0.157l-0.03,0.157l-0.03,0.159l-0.032,0.157l-0.032,0.157l-0.033,0.157l-0.034,0.158l-0.035,0.156l-0.035,0.156l-0.037,0.157l-0.038,0.156l-0.038,0.155l-0.04,0.156l-0.04,0.156l-0.041,0.155l-0.042,0.155l-0.043,0.155l-0.045,0.155l-0.044,0.154l-0.046,0.154l-0.047,0.154l-0.047,0.154l-0.049,0.153l-0.049,0.153l-0.05,0.153l-0.052,0.153l-0.052,0.152l-0.053,0.152l-0.053,0.151l-0.055,0.152l-0.056,0.151l-0.057,0.151l-0.057,0.151l-0.058,0.15l-0.06,0.15l-0.06,0.15l-0.061,0.149l-0.062,0.148l-0.063,0.149l-0.064,0.149l-0.064,0.147l-0.066,0.148l-0.067,0.147l-0.067,0.147l-0.069,0.147l-0.069,0.146l-0.07,0.145l-0.071,0.146l-0.072,0.145l-0.072,0.144l-0.074,0.145l-0.075,0.144l-0.075,0.143l-0.077,0.143l-0.077,0.142l-0.078,0.142l-0.079,0.142l-0.081,0.142l-0.08,0.14l-0.082,0.141l-0.083,0.14l-0.084,0.14l-0.084,0.139l-0.085,0.139l-0.087,0.138l-0.087,0.137l-0.088,0.138l-0.089,0.137l-0.09,0.136l-0.09,0.135l-0.092,0.136l-0.093,0.135l-0.093,0.134l-0.095,0.134l-0.095,0.133l-0.097,0.133l-0.096,0.132l-0.098,0.132l-0.099,0.131l-0.1,0.131l-0.1,0.13l-0.102,0.13l-0.103,0.129l-0.103,0.128l-0.104,0.128l-0.105,0.128l-0.106,0.127l-0.107,0.126l-0.108,0.125l-0.109,0.125l-0.109,0.125l-0.11,0.123l-0.112,0.124l-0.112,0.122l-0.113,0.122l-0.115,0.122l-0.114,0.12l-0.116,0.12l-0.117,0.12l-0.117,0.119l-0.119,0.119l-0.119,0.117l-0.12,0.116l-0.121,0.117l-0.123,0.116l-0.122,0.114l-0.124,0.115l-0.125,0.113l-0.125,0.113l-0.127,0.112l-0.127,0.112l-0.128,0.111l-0.129,0.11l-0.13,0.109l-0.131,0.109l-0.132,0.108l-0.132,0.107l-0.133,0.106l-0.135,0.106l-0.135,0.105l-0.136,0.104l-0.137,0.104l-0.138,0.103l-0.138,0.101l-0.14,0.102l-0.14,0.1l-0.141,0.1l-0.143,0.099l-0.143,0.098l-0.144,0.097l-0.145,0.097l-0.145,0.095l-0.146,0.095l-0.148,0.094l-0.148,0.093l-0.149,0.093l-0.15,0.091l-0.151,0.091l-0.151,0.09l-0.153,0.089l-0.153,0.088l-0.154,0.088l-0.156,0.086l-0.155,0.086l-0.157,0.085l-0.158,0.084l-0.158,0.083l-0.159,0.082l-0.16,0.081l-0.162,0.08l-0.161,0.08l-0.163,0.078l-0.163,0.078l-0.165,0.077l-0.165,0.076l-0.166,0.075l-0.167,0.074l-0.168,0.073l-0.168,0.072l-0.17,0.071l-0.17,0.07l-0.171,0.07l-0.172,0.068l-0.173,0.067l-0.174,0.067l-0.174,0.065l-0.175,0.065l-0.176,0.063l-0.177,0.063l-0.178,0.061l-0.178,0.061l-0.179,0.059l-0.181,0.059l-0.181,0.057l-0.182,0.057l-0.182,0.056l-0.183,0.054l-0.185,0.054l-0.185,0.052l-0.186,0.051l-0.187,0.051l-0.187,0.049l-0.189,0.049l-0.189,0.047l-0.189,0.046l-0.192,0.045l-0.191,0.044l-0.192,0.043l-0.194,0.042l-0.194,0.041l-0.194,0.04l-0.196,0.039l-0.197,0.037l-0.197,0.037l-0.198,0.035l-0.199,0.035l-0.199,0.033l-0.2,0.032l-0.202,0.031l-0.202,0.03l-0.202,0.029l-0.204,0.027l-0.205,0.027l-0.205,0.025l-0.206,0.024l-0.206,0.023l-0.208,0.022l-0.209,0.021l-0.209,0.02l-0.21,0.018l-0.21,0.018l-0.212,0.016l-0.212,0.015l-0.213,0.014l-0.214,0.012l-0.215,0.012l-0.215,0.01l-0.216,0.009l-0.217,0.008l-0.218,0.007l-0.219,0.005l-0.219,0.004l-0.22,0.003l-0.221,0.002l-0.219,0.001l-251.083,0l0,-3l251.078,0l0.208,-0.001l0.204,-0.001l0.203,-0.003l0.203,-0.004l0.201,-0.005l0.201,-0.006l0.201,-0.008l0.199,-0.008l0.198,-0.009l0.198,-0.011l0.196,-0.012l0.196,-0.012l0.195,-0.014l0.195,-0.015l0.193,-0.016l0.193,-0.017l0.191,-0.018l0.191,-0.019l0.19,-0.02l0.189,-0.021l0.189,-0.022l0.187,-0.024l0.187,-0.024l0.186,-0.025l0.185,-0.026l0.184,-0.027l0.183,-0.029l0.183,-0.029l0.182,-0.03l0.181,-0.032l0.18,-0.032l0.179,-0.033l0.179,-0.034l0.177,-0.035l0.177,-0.036l0.176,-0.037l0.175,-0.038l0.174,-0.039l0.174,-0.04l0.172,-0.041l0.172,-0.042l0.171,-0.043l0.17,-0.043l0.17,-0.045l0.168,-0.046l0.168,-0.046l0.167,-0.047l0.166,-0.048l0.165,-0.05l0.165,-0.05l0.163,-0.05l0.163,-0.052l0.162,-0.053l0.161,-0.053l0.161,-0.055l0.159,-0.055l0.159,-0.056l0.158,-0.057l0.157,-0.058l0.157,-0.059l0.155,-0.059l0.154,-0.06l0.155,-0.062l0.153,-0.062l0.152,-0.062l0.151,-0.064l0.151,-0.064l0.15,-0.066l0.149,-0.066l0.148,-0.067l0.148,-0.068l0.146,-0.068l0.146,-0.069l0.145,-0.07l0.144,-0.071l0.144,-0.072l0.142,-0.072l0.142,-0.073l0.141,-0.074l0.14,-0.075l0.14,-0.075l0.138,-0.076l0.138,-0.077l0.137,-0.078l0.136,-0.078l0.136,-0.079l0.135,-0.08l0.133,-0.081l0.133,-0.081l0.133,-0.082l0.131,-0.083l0.131,-0.083l0.13,-0.084l0.129,-0.085l0.128,-0.086l0.128,-0.086l0.126,-0.087l0.126,-0.087l0.125,-0.089l0.125,-0.089l0.123,-0.089l0.123,-0.091l0.122,-0.091l0.121,-0.091l0.12,-0.092l0.12,-0.093l0.119,-0.094l0.118,-0.094l0.117,-0.095l0.117,-0.095l0.115,-0.096l0.115,-0.097l0.115,-0.098l0.113,-0.097l0.112,-0.099l0.112,-0.099l0.111,-0.1l0.11,-0.1l0.11,-0.101l0.108,-0.102l0.108,-0.102l0.107,-0.102l0.106,-0.104l0.106,-0.104l0.105,-0.105l0.103,-0.104l0.103,-0.106l0.103,-0.106l0.102,-0.107l0.1,-0.108l0.1,-0.107l0.1,-0.109l0.098,-0.108l0.098,-0.11l0.097,-0.11l0.096,-0.111l0.095,-0.111l0.095,-0.112l0.093,-0.112l0.093,-0.112l0.092,-0.113l0.092,-0.114l0.09,-0.114l0.09,-0.114l0.089,-0.116l0.088,-0.115l0.088,-0.116l0.087,-0.117l0.086,-0.117l0.085,-0.118l0.084,-0.117l0.083,-0.119l0.083,-0.119l0.082,-0.12l0.081,-0.119l0.081,-0.121l0.08,-0.121l0.078,-0.121l0.078,-0.121l0.078,-0.122l0.076,-0.123l0.076,-0.123l0.075,-0.123l0.074,-0.124l0.073,-0.124l0.073,-0.124l0.072,-0.126l0.071,-0.125l0.069,-0.125l0.07,-0.127l0.069,-0.126l0.067,-0.127l0.068,-0.128l0.066,-0.127l0.065,-0.128l0.065,-0.129l0.064,-0.128l0.063,-0.129l0.062,-0.13l0.062,-0.13l0.06,-0.13l0.06,-0.13l0.059,-0.131l0.059,-0.131l0.057,-0.132l0.057,-0.132l0.056,-0.132l0.055,-0.132l0.054,-0.133l0.054,-0.133l0.053,-0.133l0.052,-0.134l0.051,-0.134l0.05,-0.134l0.05,-0.135l0.048,-0.135l0.048,-0.135l0.048,-0.135l0.046,-0.136l0.046,-0.136l0.044,-0.136l0.044,-0.137l0.044,-0.136l0.042,-0.137l0.041,-0.137l0.041,-0.137l0.04,-0.138l0.04,-0.138l0.038,-0.138l0.037,-0.138l0.037,-0.139l0.036,-0.138l0.035,-0.139l0.035,-0.139l0.033,-0.14l0.033,-0.139l0.032,-0.14l0.031,-0.14l0.031,-0.139l0.029,-0.14l0.029,-0.142l0.028,-0.14l0.027,-0.14l0.026,-0.141l0.026,-0.142l0.025,-0.141l0.023,-0.141l0.023,-0.141l0.023,-0.142l0.021,-0.142l0.021,-0.141l0.02,-0.142l0.019,-0.143l0.018,-0.142l0.017,-0.142l0.017,-0.143l0.016,-0.142l0.015,-0.142l0.014,-0.144l0.013,-0.142l0.013,-0.143l0.012,-0.143l0.011,-0.142l0.01,-0.143l0.009,-0.144l0.009,-0.144l0.007,-0.142l0.007,-0.143l0.006,-0.144l0.005,-0.143l0.005,-0.144l0.004,-0.143l0.002,-0.143l0.002,-0.144l0.002,-0.144l0,-0.143l-0.001,-0.234l-0.002,-0.234l-0.003,-0.232l-0.005,-0.232l-0.006,-0.231l-0.007,-0.23l-0.008,-0.228l-0.01,-0.227l-0.011,-0.227l-0.012,-0.226l-0.013,-0.225l-0.015,-0.224l-0.016,-0.222l-0.017,-0.222l-0.018,-0.221l-0.02,-0.22l-0.02,-0.219l-0.022,-0.218l-0.023,-0.217l-0.025,-0.215l-0.025,-0.216l-0.027,-0.214l-0.028,-0.212l-0.029,-0.212l-0.03,-0.212l-0.031,-0.21l-0.033,-0.209l-0.033,-0.208l-0.035,-0.207l-0.036,-0.207l-0.037,-0.205l-0.038,-0.204l-0.04,-0.204l-0.04,-0.202l-0.041,-0.201l-0.043,-0.201l-0.044,-0.199l-0.044,-0.198l-0.046,-0.198l-0.047,-0.196l-0.048,-0.196l-0.05,-0.195l-0.05,-0.194l-0.051,-0.192l-0.052,-0.192l-0.053,-0.19l-0.055,-0.191l-0.055,-0.189l-0.056,-0.187l-0.058,-0.187l-0.059,-0.187l-0.059,-0.184l-0.06,-0.184l-0.062,-0.183l-0.062,-0.183l-0.064,-0.181l-0.064,-0.18l-0.066,-0.18l-0.066,-0.178l-0.067,-0.177l-0.069,-0.176l-0.069,-0.176l-0.07,-0.175l-0.071,-0.173l-0.073,-0.173l-0.073,-0.172l-0.074,-0.171l-0.075,-0.169l-0.076,-0.169l-0.076,-0.168l-0.078,-0.167l-0.079,-0.166l-0.079,-0.166l-0.08,-0.163l-0.082,-0.164l-0.082,-0.162l-0.083,-0.162l-0.084,-0.16l-0.085,-0.159l-0.085,-0.159l-0.087,-0.158l-0.088,-0.157l-0.088,-0.155l-0.089,-0.155l-0.09,-0.154l-0.091,-0.153l-0.091,-0.151l-0.093,-0.152l-0.093,-0.15l-0.094,-0.149l-0.095,-0.149l-0.096,-0.147l-0.096,-0.147l-0.098,-0.145l-0.098,-0.144l-0.099,-0.144l-0.099,-0.143l-0.101,-0.142l-0.101,-0.141l-0.102,-0.139l-0.103,-0.14l-0.103,-0.138l-0.105,-0.137l-0.105,-0.136l-0.106,-0.136l-0.106,-0.134l-0.107,-0.134l-0.108,-0.132l-0.109,-0.132l-0.11,-0.131l-0.11,-0.13l-0.111,-0.128l-0.111,-0.128l-0.113,-0.128l-0.112,-0.125l-0.114,-0.126l-0.115,-0.124l-0.115,-0.124l-0.116,-0.122l-0.116,-0.122l-0.117,-0.12l-0.118,-0.12l-0.119,-0.119l-0.119,-0.118l-0.119,-0.117l-0.121,-0.116l-0.121,-0.115l-0.121,-0.114l-0.123,-0.114l-0.123,-0.112l-0.124,-0.112l-0.124,-0.11l-0.124,-0.11l-0.126,-0.109l-0.126,-0.108l-0.127,-0.107l-0.127,-0.106l-0.128,-0.105l-0.128,-0.104l-0.129,-0.103l-0.13,-0.103l-0.13,-0.101l-0.13,-0.101l-0.132,-0.099l-0.132,-0.099l-0.132,-0.098l-0.133,-0.097l-0.134,-0.096l-0.134,-0.095l-0.134,-0.094l-0.136,-0.093l-0.135,-0.093l-0.136,-0.091l-0.137,-0.091l-0.137,-0.089l-0.138,-0.089l-0.138,-0.088l-0.139,-0.087l-0.139,-0.085l-0.14,-0.085l-0.14,-0.085l-0.141,-0.083l-0.141,-0.082l-0.141,-0.081l-0.143,-0.081l-0.142,-0.079l-0.143,-0.079l-0.144,-0.078l-0.143,-0.076l-0.145,-0.076l-0.145,-0.075l-0.145,-0.074l-0.146,-0.073l-0.146,-0.072l-0.146,-0.072l-0.147,-0.07l-0.147,-0.069l-0.148,-0.069l-0.148,-0.068l-0.148,-0.066l-0.149,-0.066l-0.15,-0.065l-0.15,-0.064l-0.149,-0.063l-0.151,-0.062l-0.15,-0.061l-0.152,-0.06l-0.151,-0.059l-0.152,-0.059l-0.152,-0.057l-0.152,-0.057l-0.153,-0.055l-0.153,-0.055l-0.154,-0.054l-0.154,-0.053l-0.154,-0.051l-0.154,-0.051l-0.155,-0.05l-0.155,-0.05l-0.155,-0.048l-0.156,-0.047l-0.156,-0.046l-0.156,-0.046l-0.156,-0.044l-0.157,-0.044l-0.157,-0.043l-0.157,-0.041l-0.157,-0.041l-0.158,-0.04l-0.158,-0.039l-0.159,-0.038l-0.158,-0.037l-0.159,-0.036l-0.158,-0.035l-0.159,-0.034l-0.16,-0.034l-0.159,-0.032l-0.16,-0.032l-0.16,-0.03l-0.16,-0.03l-0.16,-0.029l-0.161,-0.027l-0.16,-0.027l-0.161,-0.026l-0.161,-0.025l-0.161,-0.024l-0.162,-0.023l-0.161,-0.022l-0.161,-0.021l-0.162,-0.021l-0.162,-0.019l-0.162,-0.018l-0.163,-0.018l-0.162,-0.017l-0.162,-0.015l-0.162,-0.015l-0.163,-0.014l-0.163,-0.012l-0.163,-0.012l-0.162,-0.011l-0.163,-0.01l-0.163,-0.009l-0.163,-0.008l-0.163,-0.007l-0.163,-0.007l-0.164,-0.005l-0.163,-0.004l-0.163,-0.004l-0.164,-0.002l-0.163,-0.002l-0.164,0l-0.163,0l-0.164,0.001l-0.163,0.002l-0.164,0.004l-0.163,0.004l-0.164,0.005l-0.163,0.006l-0.164,0.007l-0.163,0.007l-0.164,0.009l-0.163,0.01l-0.164,0.011l-0.163,0.011l-0.163,0.013l-0.164,0.013l-0.163,0.015l-0.163,0.015l-0.163,0.016l-0.163,0.018l-0.163,0.018l-0.163,0.019l-0.163,0.02l-0.163,0.021l-0.162,0.022l-0.163,0.023l-0.162,0.024l-0.163,0.025l-0.162,0.026l-0.162,0.026l-0.162,0.028l-0.161,0.028l-0.162,0.03l-0.162,0.03l-0.161,0.032l-0.161,0.032l-0.161,0.033l-0.161,0.035l-0.161,0.035l-0.161,0.036l-0.16,0.037l-0.16,0.038l-0.16,0.039l-0.16,0.04l-0.16,0.041l-0.16,0.042l-0.159,0.042l-0.159,0.044l-0.159,0.045l-0.158,0.045l-0.158,0.047l-0.158,0.047l-0.158,0.048l-0.158,0.05l-0.157,0.05l-0.158,0.051l-0.157,0.053l-0.156,0.053l-0.157,0.054l-0.156,0.055l-0.155,0.056l-0.156,0.057l-0.155,0.057l-0.155,0.059l-0.155,0.06l-0.154,0.061l-0.154,0.061l-0.154,0.063l-0.153,0.063l-0.153,0.065l-0.153,0.065l-0.153,0.067l-0.152,0.067l-0.151,0.068l-0.152,0.069l-0.151,0.07l-0.15,0.072l-0.151,0.072l-0.149,0.072l-0.15,0.074l-0.149,0.075l-0.15,0.076l-0.148,0.077l-0.148,0.078l-0.147,0.078l-0.148,0.08l-0.146,0.08l-0.147,0.082l-0.146,0.082l-0.145,0.084l-0.146,0.084l-0.144,0.085l-0.145,0.087l-0.144,0.087l-0.143,0.088l-0.143,0.089l-0.142,0.09l-0.142,0.091l-0.142,0.092l-0.141,0.093l-0.141,0.094l-0.14,0.094l-0.139,0.096l-0.14,0.097l-0.138,0.097l-0.139,0.099l-0.137,0.099l-0.137,0.101l-0.137,0.102l-0.136,0.102l-0.136,0.103l-0.135,0.105l-0.135,0.105l-0.134,0.106l-0.133,0.107l-0.133,0.108l-0.132,0.109l-0.132,0.11l-0.132,0.111l-0.13,0.112l-0.13,0.113l-0.13,0.114l-0.129,0.115l-0.128,0.115l-0.128,0.117l-0.127,0.118l-0.127,0.119l-0.126,0.119l-0.125,0.12l-0.125,0.122l-0.125,0.123l-0.123,0.123l-0.123,0.124l-0.122,0.126l-0.122,0.126l-0.121,0.127l-0.12,0.129l-0.12,0.129l-0.119,0.13l-0.118,0.131l-0.118,0.132l-0.118,0.134l-0.116,0.134l-0.116,0.134l-0.115,0.136l-0.114,0.137l-0.114,0.138l-0.113,0.139l-0.112,0.14l-0.112,0.141l-0.11,0.142l-0.111,0.143l-0.109,0.143l-0.109,0.145l-0.108,0.146l-0.107,0.146l-0.106,0.148l-0.106,0.149l-0.105,0.149l-0.104,0.151l-0.104,0.152l-0.102,0.152l-0.102,0.154l-0.102,0.154l-0.1,0.156l-0.1,0.156l-0.098,0.158l-0.099,0.158l-0.097,0.16l-0.096,0.16l-0.096,0.161l-0.094,0.163l-0.094,0.163l-0.093,0.165l-0.093,0.165l-0.091,0.167l-0.091,0.167l-0.09,0.168l-0.089,0.17l-0.088,0.171l-0.087,0.17l-0.086,0.173l-0.086,0.174l-0.084,0.174l-0.084,0.175l-0.083,0.177l-0.082,0.177l-0.081,0.178l-0.08,0.18l-0.08,0.181l-0.078,0.181l-0.077,0.182l-0.077,0.184l-0.075,0.184l-0.075,0.186l-0.074,0.186l-0.073,0.188l-0.071,0.188l-0.071,0.19l-0.07,0.19l-0.069,0.192l-0.068,0.192l-0.067,0.194l-0.066,0.194l-0.065,0.197l-0.064,0.196l-0.063,0.197l-0.062,0.199l-0.061,0.2l-0.06,0.201l-0.059,0.202l-0.058,0.202l-0.057,0.204l-0.056,0.205l-0.055,0.206l-0.054,0.207l-0.052,0.208l-0.052,0.209l-0.051,0.21l-0.049,0.211l-0.049,0.212l-0.047,0.213l-0.047,0.215l-0.045,0.214l-0.044,0.217l-0.043,0.217l-0.042,0.218l-0.041,0.22l-0.04,0.22l-0.038,0.222l-0.038,0.222l-0.036,0.224l-0.035,0.224l-0.034,0.226l-0.033,0.227l-0.032,0.227l-0.03,0.229l-0.03,0.23l-0.028,0.231l-0.027,0.232l-0.026,0.233l-0.025,0.234l-0.023,0.235l-0.022,0.236l-0.022,0.237l-0.019,0.238l-0.019,0.239l-0.017,0.241l-0.016,0.241l-0.015,0.243l-0.014,0.243l-0.013,0.244l-0.011,0.246l-0.01,0.247l-0.008,0.247l-0.008,0.249l-0.006,0.25l-0.005,0.251l-0.003,0.252l-0.002,0.253l-0.001,0.254l0,0.258l-3,0.005l0,-0.267l0.001,-0.269l0.002,-0.269l0.004,-0.267l0.005,-0.267l0.006,-0.265l0.008,-0.264l0.009,-0.264l0.011,-0.262l0.012,-0.262l0.013,-0.261l0.015,-0.259l0.016,-0.258l0.017,-0.258l0.019,-0.256l0.019,-0.256l0.022,-0.254l0.022,-0.254l0.024,-0.252l0.025,-0.252l0.026,-0.25l0.028,-0.25l0.029,-0.248l0.03,-0.247l0.032,-0.247l0.033,-0.245l0.034,-0.245l0.035,-0.243l0.037,-0.243l0.037,-0.241l0.04,-0.241l0.04,-0.239l0.041,-0.238l0.043,-0.238l0.044,-0.236l0.045,-0.235l0.047,-0.235l0.047,-0.233l0.049,-0.233l0.05,-0.231l0.052,-0.23l0.052,-0.229l0.054,-0.229l0.055,-0.227l0.056,-0.226l0.057,-0.226l0.058,-0.224l0.059,-0.223l0.061,-0.222l0.062,-0.221l0.063,-0.221l0.064,-0.218l0.065,-0.219l0.066,-0.217l0.068,-0.216l0.068,-0.215l0.07,-0.215l0.071,-0.212l0.072,-0.212l0.073,-0.211l0.074,-0.21l0.075,-0.209l0.077,-0.208l0.077,-0.207l0.078,-0.206l0.08,-0.205l0.08,-0.204l0.082,-0.203l0.083,-0.201l0.083,-0.201l0.085,-0.2l0.086,-0.199l0.087,-0.197l0.088,-0.197l0.089,-0.196l0.09,-0.194l0.09,-0.193l0.092,-0.193l0.093,-0.192l0.094,-0.19l0.095,-0.189l0.096,-0.189l0.097,-0.187l0.097,-0.186l0.099,-0.186l0.1,-0.184l0.101,-0.183l0.101,-0.182l0.103,-0.181l0.104,-0.181l0.104,-0.179l0.105,-0.178l0.107,-0.177l0.107,-0.176l0.108,-0.174l0.109,-0.174l0.11,-0.173l0.111,-0.172l0.112,-0.17l0.112,-0.17l0.114,-0.169l0.114,-0.167l0.115,-0.167l0.117,-0.165l0.117,-0.165l0.117,-0.163l0.119,-0.163l0.12,-0.161l0.12,-0.16l0.121,-0.159l0.122,-0.158l0.123,-0.157l0.124,-0.157l0.124,-0.154l0.125,-0.154l0.126,-0.153l0.127,-0.152l0.127,-0.151l0.129,-0.15l0.129,-0.148l0.13,-0.147l0.13,-0.147l0.132,-0.146l0.132,-0.144l0.133,-0.144l0.133,-0.142l0.135,-0.141l0.135,-0.141l0.135,-0.138l0.137,-0.139l0.137,-0.137l0.138,-0.136l0.139,-0.134l0.139,-0.134l0.14,-0.134l0.141,-0.131l0.141,-0.131l0.142,-0.129l0.143,-0.129l0.143,-0.128l0.144,-0.126l0.144,-0.125l0.146,-0.125l0.145,-0.123l0.147,-0.122l0.147,-0.121l0.148,-0.12l0.148,-0.12l0.149,-0.118l0.149,-0.116l0.15,-0.116l0.151,-0.115l0.151,-0.114l0.152,-0.112l0.152,-0.112l0.154,-0.111l0.153,-0.109l0.154,-0.109l0.155,-0.107l0.155,-0.106l0.156,-0.106l0.156,-0.104l0.157,-0.103l0.157,-0.102l0.157,-0.101l0.159,-0.1l0.158,-0.099l0.16,-0.098l0.16,-0.097l0.159,-0.095l0.161,-0.095l0.161,-0.094l0.162,-0.092l0.162,-0.092l0.162,-0.09l0.164,-0.09l0.163,-0.088l0.164,-0.087l0.164,-0.087l0.165,-0.085l0.165,-0.084l0.165,-0.083l0.166,-0.082l0.167,-0.081l0.166,-0.08l0.167,-0.079l0.168,-0.077l0.168,-0.077l0.168,-0.076l0.169,-0.074l0.169,-0.074l0.169,-0.073l0.169,-0.071l0.171,-0.07l0.17,-0.07l0.171,-0.068l0.171,-0.067l0.171,-0.066l0.172,-0.066l0.172,-0.064l0.172,-0.063l0.173,-0.062l0.173,-0.061l0.173,-0.06l0.173,-0.058l0.174,-0.058l0.174,-0.057l0.174,-0.056l0.175,-0.054l0.175,-0.054l0.175,-0.052l0.175,-0.052l0.176,-0.05l0.175,-0.05l0.176,-0.048l0.177,-0.047l0.176,-0.046l0.177,-0.046l0.176,-0.044l0.178,-0.043l0.177,-0.042l0.177,-0.041l0.178,-0.04l0.178,-0.039l0.178,-0.038l0.178,-0.037l0.178,-0.035l0.179,-0.035l0.179,-0.034l0.178,-0.032l0.179,-0.032l0.179,-0.031l0.179,-0.029l0.18,-0.028l0.179,-0.028l0.18,-0.026l0.179,-0.026l0.18,-0.024l0.18,-0.023l0.18,-0.022l0.18,-0.022l0.18,-0.02l0.18,-0.019l0.181,-0.018l0.18,-0.017l0.181,-0.016l0.18,-0.015l0.181,-0.014l0.18,-0.012l0.181,-0.012l0.181,-0.011l0.18,-0.01l0.181,-0.008l0.18,-0.008l0.181,-0.007l0.181,-0.005l0.181,-0.005l0.181,-0.003l0.18,-0.003l0.181,-0.001l0.181,0l0.181,0Z" style="fill:#ccc;"/><path d="M1664.86,464.651l0.283,0.005l0.28,0.007l0.279,0.011l0.276,0.014l0.275,0.017l0.273,0.02l0.271,0.023l0.269,0.026l0.267,0.029l0.265,0.032l0.264,0.035l0.261,0.037l0.259,0.041l0.258,0.044l0.255,0.046l0.253,0.049l0.252,0.052l0.249,0.055l0.248,0.057l0.245,0.061l0.244,0.063l0.241,0.065l0.239,0.069l0.238,0.071l0.235,0.073l0.233,0.076l0.231,0.079l0.229,0.082l0.227,0.084l0.225,0.086l0.223,0.089l0.221,0.092l0.218,0.093l0.217,0.097l0.215,0.099l0.212,0.101l0.21,0.103l0.208,0.106l0.205,0.108l0.204,0.11l0.201,0.113l0.2,0.115l0.197,0.117l0.195,0.119l0.192,0.121l0.191,0.124l0.188,0.125l0.186,0.128l0.184,0.13l0.181,0.132l0.18,0.133l0.176,0.136l0.175,0.138l0.173,0.139l0.17,0.142l0.168,0.143l0.166,0.145l0.163,0.147l0.161,0.149l0.159,0.15l0.156,0.152l0.155,0.154l0.152,0.156l0.149,0.157l0.147,0.159l0.145,0.16l0.143,0.162l0.14,0.163l0.138,0.165l0.136,0.167l0.133,0.168l0.131,0.169l0.129,0.171l0.126,0.172l0.124,0.173l0.121,0.175l0.12,0.176l0.116,0.177l0.115,0.179l0.112,0.18l0.11,0.18l0.107,0.183l0.105,0.183l0.103,0.184l0.1,0.186l0.098,0.186l0.096,0.188l0.093,0.188l0.091,0.19l0.088,0.19l0.086,0.192l0.084,0.192l0.081,0.193l0.079,0.194l0.077,0.195l0.074,0.196l0.072,0.196l0.069,0.197l0.067,0.198l0.065,0.198l0.062,0.2l0.06,0.2l0.058,0.2l0.055,0.201l0.052,0.202l0.051,0.203l0.048,0.202l0.045,0.204l0.043,0.204l0.041,0.204l0.039,0.204l0.036,0.206l0.033,0.205l0.031,0.206l0.029,0.206l0.027,0.207l0.023,0.207l0.022,0.207l0.019,0.207l0.017,0.207l0.014,0.208l0.012,0.208l0.01,0.208l0.007,0.208l0.005,0.209l0.002,0.208l0,0.209l-0.004,0.262l-0.006,0.261l-0.009,0.259l-0.011,0.257l-0.015,0.255l-0.017,0.253l-0.021,0.252l-0.023,0.249l-0.026,0.248l-0.028,0.245l-0.031,0.245l-0.034,0.242l-0.037,0.24l-0.039,0.239l-0.042,0.236l-0.045,0.235l-0.047,0.233l-0.05,0.23l-0.053,0.229l-0.055,0.227l-0.057,0.225l-0.06,0.224l-0.063,0.221l-0.065,0.22l-0.068,0.217l-0.069,0.215l-0.073,0.214l-0.075,0.212l-0.077,0.209l-0.08,0.208l-0.082,0.206l-0.084,0.203l-0.086,0.202l-0.089,0.199l-0.091,0.198l-0.093,0.196l-0.096,0.193l-0.097,0.192l-0.1,0.19l-0.102,0.187l-0.104,0.185l-0.106,0.184l-0.108,0.181l-0.111,0.18l-0.112,0.177l-0.114,0.175l-0.116,0.173l-0.119,0.171l-0.12,0.169l-0.122,0.166l-0.123,0.164l-0.126,0.163l-0.127,0.161l-0.13,0.158l-0.131,0.156l-0.132,0.154l-0.135,0.152l-0.136,0.149l-0.138,0.148l-0.139,0.146l-0.141,0.143l-0.142,0.141l-0.144,0.139l-0.146,0.136l-0.147,0.135l-0.148,0.133l-0.15,0.13l-0.152,0.128l-0.153,0.126l-0.154,0.124l-0.155,0.122l-0.157,0.119l-0.158,0.118l-0.159,0.115l-0.161,0.113l-0.161,0.11l-0.163,0.109l-0.165,0.107l-0.165,0.104l-0.166,0.102l-0.167,0.1l-0.169,0.098l-0.169,0.096l-0.171,0.093l-0.171,0.091l-0.172,0.09l-0.174,0.087l-0.174,0.085l-0.175,0.082l-0.176,0.081l-0.177,0.078l-0.177,0.076l-0.179,0.075l-0.179,0.072l-0.18,0.069l-0.18,0.068l-0.181,0.065l-0.183,0.064l-0.182,0.061l-0.183,0.059l-0.184,0.057l-0.185,0.055l-0.185,0.053l-0.185,0.05l-0.186,0.049l-0.186,0.046l-0.187,0.044l-0.188,0.042l-0.188,0.04l-0.188,0.038l-0.188,0.036l-0.189,0.033l-0.19,0.032l-0.189,0.029l-0.19,0.027l-0.19,0.025l-0.191,0.023l-0.19,0.021l-0.191,0.019l-0.191,0.016l-0.191,0.015l-0.191,0.012l-0.192,0.011l-0.191,0.008l-0.192,0.006l-0.192,0.004l-0.191,0.002l-0.192,-0.001l-0.192,-0.002l-0.191,-0.004l-0.192,-0.007l-0.192,-0.009l-0.191,-0.011l-0.191,-0.012l-0.191,-0.016l-0.191,-0.017l-0.191,-0.019l-0.191,-0.021l-0.191,-0.024l-0.19,-0.025l-0.189,-0.028l-0.19,-0.03l-0.189,-0.032l-0.189,-0.034l-0.189,-0.036l-0.188,-0.038l-0.188,-0.04l-0.188,-0.043l-0.187,-0.045l-0.186,-0.046l-0.186,-0.049l-0.186,-0.051l-0.185,-0.053l-0.184,-0.055l-0.184,-0.058l-0.184,-0.059l-0.182,-0.062l-0.182,-0.064l-0.182,-0.065l-0.18,-0.068l-0.18,-0.07l-0.18,-0.073l-0.178,-0.074l-0.178,-0.077l-0.177,-0.078l-0.176,-0.081l-0.175,-0.083l-0.174,-0.085l-0.174,-0.087l-0.173,-0.09l-0.171,-0.091l-0.171,-0.094l-0.169,-0.095l-0.169,-0.098l-0.168,-0.1l-0.166,-0.102l-0.166,-0.105l-0.164,-0.107l-0.163,-0.108l-0.162,-0.111l-0.161,-0.113l-0.159,-0.115l-0.159,-0.117l-0.157,-0.12l-0.156,-0.121l-0.154,-0.124l-0.153,-0.125l-0.152,-0.128l-0.15,-0.131l-0.149,-0.132l-0.147,-0.134l-0.147,-0.137l-0.144,-0.138l-0.143,-0.141l-0.141,-0.143l-0.14,-0.145l-0.138,-0.147l-0.137,-0.15l-0.135,-0.151l-0.133,-0.154l-0.131,-0.155l-0.13,-0.158l-0.128,-0.16l-0.126,-0.162l-0.125,-0.164l-0.122,-0.166l-0.121,-0.168l-0.119,-0.17l-0.116,-0.173l-0.115,-0.174l-0.113,-0.177l-0.111,-0.178l-0.109,-0.181l-0.107,-0.182l-0.105,-0.185l-0.102,-0.187l-0.101,-0.189l-0.098,-0.19l-0.096,-0.193l-0.094,-0.195l-0.092,-0.197l-0.09,-0.198l-0.087,-0.201l-0.085,-0.203l-0.083,-0.204l-0.08,-0.207l-0.079,-0.209l-0.075,-0.21l-0.074,-0.213l-0.07,-0.214l-0.069,-0.216l-0.066,-0.219l-0.063,-0.22l-0.061,-0.222l-0.059,-0.224l-0.056,-0.226l-0.053,-0.227l-0.051,-0.23l-0.048,-0.232l-0.046,-0.233l-0.043,-0.235l-0.04,-0.237l-0.038,-0.239l-0.035,-0.241l-0.032,-0.242l-0.03,-0.245l-0.027,-0.246l-0.024,-0.248l-0.021,-0.25l-0.018,-0.252l-0.016,-0.253l-0.013,-0.256l-0.01,-0.256l-0.007,-0.259l-0.004,-0.261l-0.002,-0.254l3,-0.015l0.002,0.237l0.003,0.227l0.006,0.225l0.009,0.223l0.011,0.221l0.014,0.219l0.016,0.217l0.018,0.215l0.021,0.212l0.023,0.211l0.025,0.21l0.027,0.207l0.03,0.204l0.032,0.203l0.034,0.201l0.037,0.199l0.038,0.197l0.041,0.195l0.043,0.193l0.045,0.192l0.047,0.189l0.048,0.187l0.051,0.186l0.053,0.183l0.055,0.182l0.057,0.18l0.059,0.177l0.06,0.176l0.063,0.174l0.064,0.172l0.067,0.17l0.068,0.169l0.07,0.166l0.071,0.165l0.074,0.162l0.075,0.161l0.077,0.16l0.078,0.157l0.08,0.156l0.082,0.153l0.084,0.152l0.085,0.15l0.086,0.148l0.089,0.147l0.09,0.145l0.091,0.142l0.093,0.142l0.095,0.139l0.096,0.138l0.097,0.135l0.099,0.135l0.1,0.132l0.102,0.131l0.103,0.129l0.105,0.127l0.106,0.125l0.107,0.124l0.109,0.122l0.11,0.12l0.112,0.119l0.112,0.117l0.114,0.115l0.115,0.114l0.117,0.111l0.117,0.11l0.119,0.109l0.121,0.107l0.121,0.105l0.122,0.103l0.124,0.101l0.125,0.101l0.126,0.098l0.127,0.096l0.128,0.095l0.129,0.093l0.13,0.092l0.131,0.089l0.133,0.088l0.133,0.087l0.134,0.084l0.135,0.083l0.136,0.082l0.137,0.079l0.138,0.078l0.139,0.076l0.14,0.075l0.14,0.073l0.142,0.071l0.142,0.069l0.143,0.068l0.144,0.066l0.145,0.064l0.145,0.063l0.146,0.06l0.147,0.059l0.147,0.058l0.148,0.056l0.149,0.054l0.149,0.052l0.151,0.051l0.15,0.048l0.151,0.047l0.152,0.046l0.152,0.044l0.153,0.041l0.153,0.041l0.154,0.038l0.154,0.037l0.155,0.035l0.154,0.033l0.156,0.032l0.156,0.03l0.156,0.028l0.156,0.026l0.157,0.025l0.157,0.023l0.157,0.021l0.157,0.019l0.158,0.018l0.158,0.016l0.158,0.014l0.158,0.012l0.159,0.011l0.158,0.009l0.159,0.007l0.158,0.006l0.159,0.003l0.159,0.002l0.158,0.001l0.159,-0.002l0.159,-0.003l0.158,-0.005l0.159,-0.007l0.158,-0.008l0.158,-0.011l0.158,-0.012l0.158,-0.013l0.158,-0.016l0.158,-0.017l0.157,-0.019l0.157,-0.021l0.157,-0.022l0.156,-0.025l0.157,-0.026l0.156,-0.027l0.155,-0.03l0.155,-0.031l0.155,-0.033l0.154,-0.034l0.154,-0.037l0.153,-0.038l0.154,-0.04l0.152,-0.041l0.152,-0.043l0.151,-0.045l0.151,-0.047l0.15,-0.049l0.15,-0.05l0.149,-0.052l0.148,-0.053l0.148,-0.056l0.147,-0.057l0.147,-0.059l0.145,-0.06l0.145,-0.062l0.144,-0.064l0.144,-0.066l0.142,-0.067l0.142,-0.069l0.141,-0.071l0.14,-0.073l0.14,-0.074l0.138,-0.076l0.137,-0.077l0.137,-0.08l0.135,-0.081l0.135,-0.083l0.134,-0.084l0.132,-0.086l0.132,-0.088l0.131,-0.089l0.13,-0.092l0.128,-0.093l0.128,-0.094l0.126,-0.097l0.125,-0.098l0.124,-0.099l0.124,-0.102l0.121,-0.103l0.121,-0.105l0.12,-0.107l0.118,-0.108l0.117,-0.11l0.116,-0.112l0.114,-0.113l0.114,-0.116l0.112,-0.117l0.111,-0.118l0.109,-0.12l0.108,-0.123l0.107,-0.124l0.105,-0.125l0.104,-0.127l0.103,-0.129l0.101,-0.131l0.1,-0.133l0.098,-0.135l0.097,-0.136l0.095,-0.137l0.094,-0.14l0.093,-0.142l0.09,-0.143l0.089,-0.145l0.088,-0.147l0.086,-0.149l0.085,-0.15l0.083,-0.153l0.081,-0.154l0.079,-0.156l0.078,-0.158l0.076,-0.16l0.075,-0.161l0.073,-0.164l0.07,-0.165l0.07,-0.168l0.067,-0.169l0.066,-0.171l0.063,-0.173l0.062,-0.175l0.06,-0.176l0.058,-0.179l0.056,-0.181l0.055,-0.183l0.052,-0.184l0.05,-0.186l0.048,-0.189l0.046,-0.191l0.044,-0.192l0.042,-0.195l0.04,-0.196l0.038,-0.198l0.036,-0.201l0.033,-0.203l0.031,-0.204l0.029,-0.207l0.027,-0.208l0.024,-0.211l0.023,-0.212l0.019,-0.215l0.018,-0.217l0.015,-0.218l0.013,-0.221l0.01,-0.223l0.008,-0.225l0.005,-0.227l0.003,-0.229l0,-0.174l-0.002,-0.173l-0.004,-0.173l-0.006,-0.174l-0.008,-0.173l-0.01,-0.173l-0.012,-0.173l-0.014,-0.173l-0.016,-0.173l-0.018,-0.173l-0.02,-0.172l-0.021,-0.171l-0.024,-0.172l-0.026,-0.172l-0.028,-0.171l-0.03,-0.17l-0.032,-0.17l-0.034,-0.17l-0.036,-0.17l-0.038,-0.169l-0.04,-0.168l-0.041,-0.168l-0.044,-0.168l-0.046,-0.167l-0.048,-0.166l-0.049,-0.166l-0.052,-0.165l-0.054,-0.165l-0.055,-0.164l-0.058,-0.164l-0.06,-0.163l-0.061,-0.161l-0.063,-0.161l-0.066,-0.161l-0.067,-0.16l-0.069,-0.159l-0.071,-0.158l-0.073,-0.158l-0.076,-0.157l-0.077,-0.155l-0.078,-0.155l-0.081,-0.154l-0.083,-0.153l-0.085,-0.152l-0.086,-0.151l-0.089,-0.15l-0.091,-0.15l-0.092,-0.147l-0.094,-0.147l-0.096,-0.146l-0.098,-0.145l-0.1,-0.144l-0.102,-0.143l-0.104,-0.141l-0.106,-0.141l-0.108,-0.139l-0.109,-0.138l-0.112,-0.137l-0.113,-0.135l-0.115,-0.135l-0.117,-0.133l-0.119,-0.131l-0.122,-0.131l-0.122,-0.129l-0.125,-0.128l-0.127,-0.126l-0.129,-0.126l-0.13,-0.123l-0.132,-0.122l-0.135,-0.121l-0.136,-0.119l-0.138,-0.118l-0.14,-0.117l-0.142,-0.115l-0.144,-0.113l-0.146,-0.112l-0.148,-0.11l-0.15,-0.109l-0.151,-0.107l-0.154,-0.105l-0.155,-0.104l-0.157,-0.102l-0.16,-0.1l-0.161,-0.099l-0.163,-0.097l-0.166,-0.095l-0.167,-0.094l-0.169,-0.091l-0.171,-0.09l-0.173,-0.088l-0.175,-0.086l-0.177,-0.085l-0.179,-0.082l-0.181,-0.081l-0.183,-0.078l-0.185,-0.077l-0.187,-0.075l-0.189,-0.072l-0.191,-0.071l-0.193,-0.068l-0.195,-0.067l-0.197,-0.064l-0.199,-0.063l-0.201,-0.06l-0.204,-0.058l-0.205,-0.056l-0.207,-0.053l-0.209,-0.052l-0.212,-0.049l-0.214,-0.047l-0.215,-0.044l-0.217,-0.042l-0.22,-0.04l-0.222,-0.038l-0.224,-0.035l-0.226,-0.032l-0.228,-0.031l-0.23,-0.027l-0.232,-0.026l-0.234,-0.022l-0.237,-0.02l-0.238,-0.018l-0.241,-0.015l-0.242,-0.012l-0.245,-0.009l-0.247,-0.007l-0.249,-0.004l-0.255,-0.002l-158.117,0l0,-3l158.125,0l0.28,0.002Z" style="fill:#cbcbcb;"/><rect x="1342" y="454.762" width="273.286" height="3" style="fill:#f1f1f1;"/></g><g id="Wind2"><path d="M2463.51,471.412l0.276,0.003l0.276,0.007l0.276,0.009l0.276,0.013l0.276,0.016l0.275,0.02l0.275,0.022l0.275,0.026l0.274,0.029l0.274,0.031l0.272,0.035l0.139,0.019l0.136,0.02l0.137,0.02l0.136,0.021l0.136,0.022l0.136,0.023l0.136,0.024l0.136,0.024l0.136,0.025l0.135,0.026l0.136,0.026l0.135,0.028l0.135,0.028l0.135,0.029l0.134,0.03l0.135,0.031l0.134,0.031l0.134,0.032l0.134,0.033l0.134,0.034l0.134,0.035l0.133,0.035l0.133,0.036l0.134,0.038l0.132,0.037l0.133,0.039l0.132,0.039l0.132,0.04l0.132,0.041l0.132,0.042l0.131,0.042l0.132,0.044l0.131,0.044l0.131,0.045l0.13,0.046l0.13,0.046l0.13,0.047l0.13,0.048l0.129,0.049l0.13,0.05l0.128,0.05l0.129,0.052l0.128,0.052l0.128,0.053l0.128,0.053l0.128,0.055l0.127,0.055l0.126,0.056l0.127,0.056l0.127,0.058l0.125,0.059l0.126,0.059l0.125,0.06l0.125,0.061l0.124,0.061l0.125,0.062l0.124,0.064l0.123,0.064l0.124,0.064l0.122,0.066l0.123,0.066l0.122,0.067l0.121,0.068l0.122,0.069l0.121,0.07l0.12,0.07l0.12,0.071l0.12,0.072l0.12,0.072l0.119,0.074l0.118,0.074l0.119,0.075l0.117,0.076l0.117,0.076l0.117,0.078l0.117,0.078l0.116,0.079l0.116,0.08l0.115,0.081l0.115,0.081l0.114,0.082l0.114,0.083l0.113,0.084l0.113,0.084l0.113,0.086l0.112,0.086l0.111,0.087l0.111,0.087l0.11,0.089l0.111,0.089l0.11,0.091l0.108,0.09l0.109,0.092l0.107,0.092l0.108,0.093l0.107,0.094l0.107,0.095l0.105,0.095l0.106,0.097l0.105,0.097l0.104,0.098l0.104,0.099l0.103,0.099l0.103,0.101l0.101,0.1l0.102,0.102l0.102,0.104l0.099,0.103l0.1,0.103l0.1,0.106l0.098,0.105l0.098,0.107l0.097,0.107l0.097,0.108l0.097,0.109l0.095,0.109l0.095,0.111l0.095,0.112l0.093,0.111l0.093,0.113l0.093,0.114l0.092,0.114l0.091,0.115l0.091,0.116l0.09,0.117l0.088,0.116l0.089,0.119l0.088,0.119l0.087,0.119l0.087,0.121l0.086,0.122l0.085,0.121l0.084,0.122l0.084,0.125l0.083,0.124l0.083,0.124l0.081,0.126l0.082,0.128l0.08,0.127l0.079,0.127l0.079,0.13l0.078,0.129l0.078,0.13l0.076,0.131l0.076,0.132l0.075,0.133l0.075,0.134l0.073,0.133l0.073,0.135l0.072,0.136l0.072,0.136l0.07,0.138l0.07,0.137l0.069,0.138l0.068,0.14l0.068,0.141l0.067,0.141l0.065,0.14l0.065,0.143l0.065,0.143l0.063,0.144l0.063,0.145l0.061,0.144l0.062,0.147l0.06,0.147l0.059,0.147l0.059,0.148l0.057,0.149l0.057,0.15l0.056,0.15l0.055,0.151l0.055,0.152l0.053,0.152l0.053,0.154l0.051,0.154l0.051,0.155l0.05,0.155l0.049,0.156l0.048,0.158l0.048,0.157l0.046,0.158l0.046,0.159l0.044,0.16l0.044,0.16l0.043,0.162l0.042,0.161l0.041,0.163l0.04,0.164l0.039,0.164l0.038,0.164l0.038,0.166l0.036,0.167l0.036,0.166l0.034,0.168l0.034,0.168l0.032,0.169l0.032,0.17l0.031,0.171l0.03,0.17l0.029,0.172l0.027,0.173l0.027,0.173l0.026,0.174l0.025,0.175l0.024,0.175l0.023,0.176l0.022,0.177l0.021,0.176l0.02,0.179l0.019,0.179l0.019,0.179l0.017,0.181l0.016,0.18l0.015,0.182l0.014,0.182l0.013,0.183l0.012,0.184l0.011,0.185l0.01,0.184l0.009,0.186l0.008,0.186l0.006,0.187l0.006,0.188l0.005,0.188l0.004,0.19l0.002,0.19l0.002,0.19l0.001,0.193l-0.002,0.244l-0.004,0.246l-0.007,0.246l-0.009,0.245l-0.013,0.246l-0.015,0.245l-0.018,0.245l-0.021,0.246l-0.024,0.245l-0.026,0.243l-0.029,0.244l-0.032,0.244l-0.035,0.244l-0.038,0.242l-0.04,0.243l-0.043,0.242l-0.046,0.242l-0.049,0.241l-0.051,0.241l-0.054,0.239l-0.057,0.24l-0.06,0.239l-0.062,0.238l-0.065,0.237l-0.069,0.237l-0.071,0.237l-0.073,0.234l-0.076,0.235l-0.08,0.234l-0.081,0.232l-0.085,0.233l-0.088,0.23l-0.09,0.23l-0.093,0.229l-0.096,0.229l-0.098,0.227l-0.101,0.226l-0.105,0.225l-0.106,0.224l-0.11,0.222l-0.112,0.221l-0.115,0.221l-0.118,0.219l-0.121,0.218l-0.123,0.216l-0.126,0.215l-0.129,0.214l-0.132,0.212l-0.135,0.211l-0.137,0.21l-0.14,0.208l-0.143,0.206l-0.145,0.205l-0.149,0.204l-0.15,0.201l-0.154,0.2l-0.156,0.199l-0.16,0.197l-0.16,0.193l-0.084,0.099l-0.083,0.096l-0.083,0.096l-0.084,0.095l-0.085,0.095l-0.085,0.095l-0.086,0.094l-0.087,0.093l-0.087,0.093l-0.089,0.093l-0.089,0.093l-0.09,0.092l-0.089,0.09l-0.091,0.091l-0.092,0.09l-0.092,0.09l-0.093,0.089l-0.094,0.089l-0.094,0.088l-0.095,0.088l-0.095,0.087l-0.097,0.087l-0.097,0.085l-0.097,0.086l-0.099,0.085l-0.098,0.084l-0.1,0.084l-0.101,0.084l-0.101,0.082l-0.101,0.083l-0.103,0.082l-0.103,0.081l-0.104,0.08l-0.104,0.08l-0.105,0.079l-0.106,0.079l-0.106,0.078l-0.107,0.078l-0.108,0.077l-0.108,0.077l-0.109,0.076l-0.11,0.074l-0.11,0.075l-0.111,0.074l-0.112,0.074l-0.112,0.072l-0.114,0.073l-0.113,0.071l-0.114,0.071l-0.115,0.07l-0.116,0.07l-0.116,0.069l-0.117,0.068l-0.117,0.067l-0.118,0.068l-0.12,0.066l-0.119,0.066l-0.12,0.065l-0.121,0.064l-0.121,0.064l-0.123,0.063l-0.122,0.062l-0.124,0.062l-0.124,0.06l-0.124,0.06l-0.125,0.06l-0.127,0.059l-0.126,0.058l-0.127,0.057l-0.128,0.057l-0.129,0.056l-0.129,0.055l-0.13,0.055l-0.13,0.054l-0.131,0.053l-0.132,0.052l-0.132,0.052l-0.133,0.051l-0.134,0.05l-0.134,0.049l-0.134,0.049l-0.136,0.048l-0.136,0.047l-0.137,0.046l-0.137,0.046l-0.138,0.045l-0.139,0.044l-0.139,0.043l-0.139,0.042l-0.141,0.042l-0.141,0.041l-0.141,0.04l-0.143,0.039l-0.142,0.039l-0.144,0.038l-0.144,0.037l-0.145,0.036l-0.145,0.035l-0.146,0.035l-0.146,0.033l-0.147,0.033l-0.148,0.032l-0.148,0.032l-0.149,0.03l-0.15,0.03l-0.15,0.028l-0.151,0.028l-0.151,0.027l-0.152,0.027l-0.152,0.025l-0.153,0.025l-0.154,0.023l-0.155,0.023l-0.154,0.022l-0.156,0.021l-0.156,0.02l-0.156,0.02l-0.158,0.018l-0.158,0.018l-0.158,0.017l-0.159,0.016l-0.16,0.015l-0.16,0.014l-0.161,0.013l-0.161,0.012l-0.162,0.012l-0.163,0.01l-0.163,0.01l-0.164,0.009l-0.164,0.007l-0.165,0.007l-0.165,0.006l-0.166,0.005l-0.167,0.005l-0.167,0.003l-0.168,0.002l-0.168,0.002l-0.167,0l-189.051,0l0,-3l189.047,0l0.154,0l0.152,-0.002l0.151,-0.002l0.15,-0.003l0.15,-0.003l0.15,-0.005l0.148,-0.005l0.148,-0.007l0.147,-0.007l0.147,-0.007l0.146,-0.009l0.145,-0.009l0.145,-0.011l0.144,-0.011l0.144,-0.012l0.142,-0.012l0.142,-0.013l0.142,-0.015l0.141,-0.015l0.14,-0.015l0.14,-0.017l0.139,-0.017l0.138,-0.018l0.138,-0.019l0.137,-0.019l0.137,-0.02l0.136,-0.021l0.135,-0.022l0.134,-0.022l0.134,-0.023l0.134,-0.024l0.133,-0.025l0.132,-0.025l0.131,-0.026l0.131,-0.027l0.131,-0.027l0.129,-0.028l0.129,-0.029l0.128,-0.03l0.128,-0.03l0.127,-0.031l0.127,-0.032l0.126,-0.032l0.125,-0.033l0.125,-0.034l0.124,-0.034l0.123,-0.035l0.123,-0.035l0.122,-0.037l0.122,-0.037l0.121,-0.037l0.12,-0.039l0.12,-0.038l0.119,-0.04l0.119,-0.04l0.117,-0.041l0.117,-0.042l0.117,-0.042l0.116,-0.042l0.116,-0.044l0.115,-0.044l0.114,-0.044l0.113,-0.045l0.114,-0.046l0.112,-0.047l0.112,-0.047l0.111,-0.047l0.11,-0.048l0.111,-0.049l0.109,-0.05l0.109,-0.049l0.108,-0.051l0.107,-0.051l0.108,-0.052l0.106,-0.052l0.106,-0.053l0.105,-0.053l0.105,-0.054l0.104,-0.055l0.103,-0.055l0.103,-0.055l0.102,-0.057l0.102,-0.056l0.101,-0.057l0.101,-0.058l0.099,-0.059l0.1,-0.059l0.098,-0.059l0.098,-0.06l0.098,-0.06l0.097,-0.062l0.096,-0.061l0.096,-0.062l0.095,-0.063l0.095,-0.062l0.093,-0.064l0.094,-0.064l0.093,-0.065l0.092,-0.064l0.092,-0.066l0.09,-0.066l0.091,-0.067l0.09,-0.067l0.089,-0.067l0.089,-0.068l0.088,-0.069l0.088,-0.069l0.087,-0.069l0.086,-0.07l0.086,-0.07l0.085,-0.071l0.085,-0.071l0.084,-0.072l0.083,-0.072l0.083,-0.073l0.083,-0.073l0.081,-0.073l0.082,-0.075l0.08,-0.074l0.08,-0.075l0.08,-0.075l0.078,-0.076l0.079,-0.076l0.077,-0.076l0.078,-0.077l0.077,-0.078l0.075,-0.078l0.076,-0.078l0.074,-0.078l0.074,-0.079l0.074,-0.08l0.073,-0.08l0.073,-0.08l0.072,-0.081l0.071,-0.081l0.071,-0.081l0.07,-0.082l0.068,-0.08l0.14,-0.168l0.135,-0.167l0.132,-0.168l0.131,-0.17l0.129,-0.172l0.126,-0.173l0.123,-0.174l0.122,-0.176l0.119,-0.177l0.117,-0.178l0.114,-0.18l0.112,-0.181l0.11,-0.181l0.108,-0.184l0.105,-0.184l0.103,-0.186l0.1,-0.187l0.098,-0.188l0.097,-0.189l0.093,-0.19l0.091,-0.192l0.09,-0.192l0.086,-0.193l0.084,-0.194l0.082,-0.195l0.08,-0.196l0.077,-0.197l0.075,-0.198l0.073,-0.199l0.07,-0.199l0.068,-0.201l0.065,-0.201l0.063,-0.202l0.061,-0.202l0.058,-0.203l0.057,-0.205l0.053,-0.204l0.051,-0.205l0.049,-0.206l0.047,-0.206l0.044,-0.207l0.042,-0.207l0.04,-0.209l0.037,-0.208l0.034,-0.208l0.032,-0.209l0.03,-0.21l0.028,-0.21l0.025,-0.21l0.023,-0.211l0.02,-0.21l0.018,-0.211l0.016,-0.211l0.013,-0.212l0.011,-0.211l0.008,-0.211l0.006,-0.213l0.004,-0.211l0.001,-0.214l-0.001,-0.172l-0.001,-0.175l-0.003,-0.173l-0.003,-0.171l-0.005,-0.172l-0.005,-0.171l-0.006,-0.17l-0.007,-0.169l-0.008,-0.169l-0.009,-0.168l-0.01,-0.167l-0.011,-0.166l-0.012,-0.166l-0.013,-0.165l-0.013,-0.164l-0.015,-0.163l-0.015,-0.163l-0.017,-0.162l-0.017,-0.161l-0.018,-0.16l-0.019,-0.16l-0.019,-0.159l-0.021,-0.158l-0.022,-0.158l-0.022,-0.156l-0.023,-0.156l-0.025,-0.156l-0.025,-0.154l-0.025,-0.154l-0.027,-0.154l-0.028,-0.152l-0.028,-0.15l-0.029,-0.151l-0.03,-0.151l-0.031,-0.149l-0.031,-0.149l-0.033,-0.148l-0.033,-0.147l-0.034,-0.146l-0.035,-0.146l-0.035,-0.145l-0.037,-0.144l-0.037,-0.144l-0.038,-0.143l-0.039,-0.142l-0.039,-0.141l-0.04,-0.14l-0.042,-0.141l-0.041,-0.139l-0.043,-0.138l-0.043,-0.138l-0.044,-0.138l-0.045,-0.136l-0.045,-0.135l-0.047,-0.135l-0.047,-0.135l-0.047,-0.133l-0.049,-0.133l-0.049,-0.132l-0.05,-0.13l-0.05,-0.131l-0.052,-0.131l-0.052,-0.129l-0.052,-0.128l-0.053,-0.127l-0.055,-0.128l-0.055,-0.127l-0.055,-0.125l-0.056,-0.124l-0.057,-0.125l-0.058,-0.124l-0.058,-0.123l-0.058,-0.121l-0.059,-0.121l-0.061,-0.122l-0.061,-0.12l-0.061,-0.119l-0.062,-0.118l-0.063,-0.118l-0.063,-0.118l-0.064,-0.116l-0.065,-0.116l-0.065,-0.115l-0.066,-0.114l-0.066,-0.114l-0.067,-0.113l-0.068,-0.113l-0.068,-0.111l-0.07,-0.111l-0.069,-0.111l-0.07,-0.109l-0.07,-0.108l-0.072,-0.109l-0.072,-0.108l-0.072,-0.106l-0.073,-0.106l-0.074,-0.106l-0.074,-0.105l-0.075,-0.103l-0.076,-0.104l-0.075,-0.102l-0.077,-0.102l-0.077,-0.102l-0.077,-0.101l-0.078,-0.099l-0.079,-0.1l-0.079,-0.098l-0.08,-0.098l-0.08,-0.098l-0.081,-0.096l-0.082,-0.096l-0.081,-0.095l-0.083,-0.095l-0.083,-0.093l-0.083,-0.094l-0.085,-0.092l-0.084,-0.092l-0.085,-0.091l-0.085,-0.09l-0.086,-0.09l-0.087,-0.09l-0.086,-0.087l-0.088,-0.088l-0.088,-0.088l-0.089,-0.086l-0.089,-0.086l-0.088,-0.085l-0.091,-0.084l-0.089,-0.083l-0.091,-0.083l-0.092,-0.083l-0.092,-0.082l-0.091,-0.08l-0.093,-0.081l-0.093,-0.08l-0.094,-0.079l-0.094,-0.078l-0.094,-0.078l-0.095,-0.076l-0.095,-0.077l-0.096,-0.075l-0.096,-0.075l-0.097,-0.075l-0.097,-0.073l-0.097,-0.073l-0.097,-0.072l-0.099,-0.072l-0.099,-0.071l-0.099,-0.07l-0.099,-0.069l-0.1,-0.069l-0.1,-0.069l-0.1,-0.067l-0.101,-0.067l-0.102,-0.066l-0.102,-0.065l-0.102,-0.065l-0.102,-0.064l-0.103,-0.064l-0.103,-0.063l-0.103,-0.062l-0.105,-0.061l-0.104,-0.061l-0.104,-0.06l-0.105,-0.059l-0.106,-0.059l-0.105,-0.058l-0.106,-0.058l-0.107,-0.056l-0.106,-0.056l-0.107,-0.056l-0.107,-0.054l-0.108,-0.054l-0.108,-0.054l-0.108,-0.052l-0.109,-0.052l-0.109,-0.052l-0.109,-0.05l-0.109,-0.05l-0.11,-0.049l-0.11,-0.049l-0.11,-0.048l-0.111,-0.047l-0.111,-0.047l-0.111,-0.046l-0.111,-0.045l-0.112,-0.044l-0.112,-0.044l-0.112,-0.043l-0.112,-0.043l-0.113,-0.042l-0.113,-0.041l-0.113,-0.04l-0.114,-0.04l-0.114,-0.039l-0.113,-0.038l-0.114,-0.038l-0.115,-0.037l-0.114,-0.036l-0.115,-0.036l-0.116,-0.035l-0.114,-0.034l-0.116,-0.034l-0.116,-0.033l-0.115,-0.032l-0.117,-0.031l-0.116,-0.031l-0.116,-0.03l-0.117,-0.03l-0.117,-0.029l-0.117,-0.028l-0.117,-0.027l-0.117,-0.027l-0.118,-0.026l-0.117,-0.025l-0.118,-0.025l-0.118,-0.024l-0.118,-0.023l-0.119,-0.023l-0.118,-0.022l-0.118,-0.021l-0.119,-0.02l-0.119,-0.02l-0.119,-0.019l-0.119,-0.019l-0.119,-0.018l-0.12,-0.017l-0.117,-0.016l-0.241,-0.031l-0.24,-0.028l-0.24,-0.025l-0.24,-0.022l-0.241,-0.02l-0.241,-0.017l-0.241,-0.014l-0.241,-0.011l-0.242,-0.009l-0.241,-0.005l-0.242,-0.003l-0.242,-0.001l-0.242,0.003l-0.242,0.005l-0.242,0.008l-0.242,0.011l-0.242,0.014l-0.242,0.017l-0.241,0.019l-0.242,0.022l-0.241,0.025l-0.243,0.028l-0.119,0.014l-0.12,0.016l-0.12,0.016l-0.121,0.017l-0.12,0.018l-0.12,0.018l-0.12,0.019l-0.12,0.02l-0.12,0.02l-0.12,0.022l-0.119,0.021l-0.119,0.023l-0.12,0.023l-0.12,0.024l-0.119,0.025l-0.118,0.025l-0.119,0.026l-0.119,0.027l-0.119,0.027l-0.118,0.028l-0.119,0.029l-0.118,0.03l-0.118,0.03l-0.118,0.031l-0.118,0.031l-0.118,0.033l-0.117,0.033l-0.117,0.033l-0.118,0.035l-0.117,0.035l-0.116,0.036l-0.117,0.036l-0.116,0.037l-0.117,0.038l-0.116,0.039l-0.116,0.039l-0.115,0.04l-0.115,0.041l-0.116,0.041l-0.115,0.042l-0.115,0.043l-0.115,0.044l-0.114,0.044l-0.114,0.045l-0.114,0.045l-0.114,0.046l-0.113,0.047l-0.113,0.048l-0.113,0.049l-0.113,0.049l-0.112,0.049l-0.113,0.051l-0.111,0.051l-0.112,0.052l-0.112,0.052l-0.111,0.054l-0.11,0.054l-0.111,0.054l-0.111,0.056l-0.11,0.056l-0.109,0.056l-0.11,0.058l-0.109,0.058l-0.109,0.059l-0.108,0.06l-0.109,0.06l-0.107,0.061l-0.108,0.061l-0.108,0.063l-0.106,0.063l-0.107,0.063l-0.107,0.065l-0.106,0.065l-0.105,0.066l-0.105,0.066l-0.105,0.068l-0.105,0.068l-0.105,0.069l-0.104,0.069l-0.103,0.07l-0.103,0.071l-0.103,0.071l-0.103,0.072l-0.102,0.073l-0.102,0.074l-0.101,0.074l-0.101,0.075l-0.101,0.076l-0.1,0.076l-0.1,0.077l-0.099,0.078l-0.1,0.079l-0.098,0.079l-0.098,0.08l-0.098,0.08l-0.098,0.082l-0.096,0.081l-0.097,0.083l-0.097,0.084l-0.095,0.084l-0.096,0.085l-0.095,0.086l-0.094,0.086l-0.094,0.087l-0.094,0.087l-0.093,0.089l-0.093,0.089l-0.092,0.09l-0.092,0.09l-0.091,0.092l-0.091,0.091l-0.09,0.093l-0.091,0.094l-0.089,0.093l-0.089,0.095l-0.088,0.096l-0.089,0.097l-0.087,0.096l-0.087,0.098l-0.087,0.098l-0.086,0.099l-0.085,0.1l-0.086,0.101l-0.084,0.101l-0.084,0.102l-0.084,0.103l-0.083,0.103l-0.083,0.105l-0.082,0.105l-0.081,0.105l-0.081,0.106l-0.08,0.107l-0.08,0.108l-0.08,0.109l-0.078,0.109l-0.078,0.11l-0.078,0.111l-0.077,0.111l-0.077,0.112l-0.076,0.113l-0.075,0.114l-0.075,0.114l-0.074,0.115l-0.074,0.116l-0.073,0.117l-0.073,0.117l-0.072,0.118l-0.071,0.119l-0.071,0.119l-0.07,0.12l-0.069,0.122l-0.07,0.121l-0.068,0.122l-0.068,0.124l-0.067,0.124l-0.066,0.124l-0.066,0.126l-0.065,0.126l-0.065,0.128l-0.064,0.127l-0.063,0.128l-0.063,0.13l-0.062,0.129l-0.061,0.132l-0.061,0.131l-0.06,0.132l-0.059,0.133l-0.059,0.133l-0.058,0.135l-0.058,0.135l-0.057,0.137l-0.055,0.136l-0.056,0.138l-0.055,0.138l-0.053,0.138l-0.054,0.141l-0.052,0.14l-0.052,0.141l-0.051,0.143l-0.051,0.143l-0.049,0.143l-0.049,0.144l-0.048,0.146l-0.048,0.146l-0.047,0.147l-0.046,0.146l-0.045,0.149l-0.045,0.149l-0.043,0.15l-0.044,0.151l-0.042,0.151l-0.041,0.152l-0.041,0.153l-0.04,0.153l-0.039,0.155l-0.039,0.155l-0.037,0.156l-0.037,0.157l-0.036,0.157l-0.035,0.159l-0.035,0.159l-0.033,0.16l-0.033,0.16l-0.032,0.162l-0.031,0.162l-0.031,0.164l-0.029,0.164l-0.029,0.164l-0.028,0.165l-0.027,0.167l-0.026,0.167l-0.025,0.168l-0.025,0.168l-0.023,0.169l-0.023,0.17l-0.022,0.171l-0.021,0.172l-0.02,0.173l-0.019,0.173l-0.019,0.174l-0.017,0.176l-0.017,0.175l-0.016,0.176l-0.014,0.178l-0.014,0.178l-0.013,0.179l-0.012,0.18l-0.011,0.18l-0.01,0.181l-0.01,0.183l-0.008,0.183l-0.007,0.183l-0.007,0.185l-0.005,0.185l-0.005,0.187l-0.003,0.187l-0.003,0.188l-0.002,0.188l-0.001,0.189l0.001,0.194l-3,0.005l-0.001,-0.202l0.001,-0.205l0.002,-0.204l0.003,-0.204l0.004,-0.202l0.005,-0.202l0.006,-0.201l0.007,-0.2l0.008,-0.2l0.009,-0.199l0.01,-0.197l0.011,-0.198l0.012,-0.197l0.013,-0.196l0.014,-0.195l0.015,-0.194l0.016,-0.193l0.018,-0.194l0.018,-0.192l0.019,-0.191l0.02,-0.19l0.021,-0.191l0.022,-0.189l0.023,-0.188l0.024,-0.187l0.025,-0.187l0.026,-0.187l0.027,-0.185l0.028,-0.185l0.029,-0.183l0.029,-0.183l0.031,-0.182l0.032,-0.183l0.032,-0.181l0.034,-0.179l0.034,-0.179l0.036,-0.179l0.036,-0.178l0.037,-0.177l0.038,-0.176l0.039,-0.176l0.04,-0.175l0.041,-0.174l0.042,-0.173l0.043,-0.173l0.043,-0.171l0.045,-0.171l0.045,-0.17l0.046,-0.17l0.048,-0.169l0.048,-0.167l0.048,-0.168l0.05,-0.166l0.051,-0.165l0.051,-0.166l0.053,-0.164l0.053,-0.163l0.054,-0.162l0.055,-0.162l0.055,-0.161l0.057,-0.16l0.057,-0.16l0.058,-0.159l0.06,-0.158l0.059,-0.156l0.061,-0.157l0.062,-0.156l0.062,-0.155l0.063,-0.154l0.064,-0.153l0.065,-0.152l0.065,-0.152l0.067,-0.151l0.067,-0.151l0.068,-0.149l0.068,-0.149l0.07,-0.147l0.07,-0.148l0.071,-0.145l0.072,-0.146l0.072,-0.145l0.073,-0.144l0.074,-0.143l0.075,-0.142l0.076,-0.143l0.076,-0.14l0.077,-0.139l0.078,-0.14l0.078,-0.139l0.079,-0.137l0.08,-0.137l0.081,-0.136l0.081,-0.135l0.082,-0.135l0.083,-0.134l0.083,-0.132l0.084,-0.132l0.085,-0.132l0.085,-0.13l0.086,-0.13l0.087,-0.129l0.087,-0.128l0.089,-0.128l0.089,-0.126l0.089,-0.126l0.09,-0.125l0.091,-0.124l0.091,-0.123l0.092,-0.123l0.093,-0.121l0.093,-0.122l0.094,-0.12l0.095,-0.119l0.095,-0.119l0.096,-0.117l0.096,-0.117l0.097,-0.117l0.097,-0.115l0.099,-0.114l0.099,-0.114l0.099,-0.113l0.1,-0.112l0.101,-0.112l0.101,-0.11l0.101,-0.11l0.102,-0.108l0.103,-0.109l0.103,-0.107l0.104,-0.106l0.105,-0.106l0.105,-0.105l0.105,-0.104l0.107,-0.104l0.106,-0.102l0.107,-0.101l0.108,-0.101l0.108,-0.1l0.109,-0.1l0.109,-0.098l0.109,-0.097l0.111,-0.097l0.11,-0.096l0.111,-0.095l0.112,-0.095l0.112,-0.093l0.112,-0.093l0.113,-0.092l0.114,-0.091l0.114,-0.09l0.114,-0.09l0.115,-0.088l0.115,-0.088l0.117,-0.088l0.115,-0.085l0.117,-0.086l0.118,-0.085l0.117,-0.083l0.117,-0.083l0.119,-0.082l0.119,-0.082l0.119,-0.081l0.119,-0.079l0.12,-0.079l0.12,-0.078l0.121,-0.078l0.121,-0.076l0.122,-0.076l0.122,-0.075l0.122,-0.074l0.122,-0.073l0.123,-0.073l0.124,-0.071l0.123,-0.071l0.124,-0.07l0.125,-0.069l0.124,-0.069l0.125,-0.067l0.126,-0.067l0.125,-0.066l0.127,-0.065l0.126,-0.065l0.126,-0.063l0.127,-0.063l0.128,-0.062l0.127,-0.061l0.128,-0.06l0.128,-0.06l0.129,-0.059l0.128,-0.057l0.129,-0.057l0.13,-0.057l0.129,-0.055l0.13,-0.055l0.13,-0.054l0.131,-0.053l0.13,-0.052l0.131,-0.052l0.131,-0.05l0.131,-0.05l0.132,-0.049l0.132,-0.048l0.132,-0.048l0.132,-0.046l0.133,-0.046l0.132,-0.045l0.133,-0.044l0.133,-0.044l0.133,-0.042l0.134,-0.042l0.134,-0.041l0.134,-0.04l0.133,-0.039l0.135,-0.039l0.135,-0.038l0.134,-0.037l0.135,-0.036l0.135,-0.035l0.135,-0.035l0.135,-0.034l0.136,-0.033l0.135,-0.032l0.136,-0.031l0.136,-0.031l0.135,-0.029l0.137,-0.029l0.136,-0.029l0.136,-0.027l0.137,-0.027l0.137,-0.025l0.136,-0.025l0.137,-0.024l0.137,-0.024l0.137,-0.022l0.137,-0.022l0.138,-0.021l0.137,-0.02l0.137,-0.02l0.138,-0.018l0.137,-0.018l0.14,-0.017l0.273,-0.032l0.276,-0.028l0.276,-0.025l0.276,-0.022l0.276,-0.019l0.276,-0.016l0.277,-0.012l0.276,-0.009l0.277,-0.007l0.276,-0.003l0.277,0.001Z" style="fill:#fbfbfb;"/><path d="M2479.1,529.623l0.216,0.003l0.215,0.006l0.214,0.009l0.213,0.01l0.213,0.013l0.211,0.015l0.211,0.018l0.21,0.019l0.208,0.022l0.208,0.024l0.207,0.027l0.206,0.028l0.205,0.031l0.203,0.033l0.203,0.035l0.202,0.037l0.2,0.039l0.2,0.041l0.199,0.044l0.197,0.045l0.197,0.047l0.195,0.05l0.194,0.051l0.193,0.054l0.191,0.055l0.191,0.057l0.189,0.059l0.188,0.061l0.187,0.063l0.186,0.065l0.184,0.067l0.184,0.068l0.182,0.07l0.18,0.072l0.18,0.074l0.178,0.076l0.177,0.077l0.175,0.079l0.174,0.081l0.173,0.082l0.171,0.085l0.17,0.085l0.169,0.088l0.167,0.089l0.166,0.09l0.165,0.093l0.162,0.093l0.162,0.096l0.16,0.096l0.159,0.099l0.157,0.1l0.155,0.101l0.154,0.102l0.153,0.105l0.151,0.106l0.15,0.107l0.147,0.108l0.147,0.11l0.145,0.111l0.143,0.113l0.141,0.113l0.14,0.116l0.139,0.116l0.137,0.118l0.134,0.119l0.134,0.12l0.132,0.122l0.13,0.123l0.128,0.123l0.126,0.125l0.125,0.127l0.123,0.127l0.122,0.129l0.119,0.129l0.118,0.131l0.116,0.132l0.114,0.132l0.113,0.135l0.11,0.135l0.109,0.136l0.107,0.137l0.105,0.138l0.103,0.139l0.101,0.14l0.099,0.141l0.097,0.142l0.096,0.143l0.093,0.143l0.092,0.145l0.089,0.145l0.088,0.147l0.086,0.147l0.083,0.148l0.081,0.148l0.079,0.15l0.077,0.15l0.075,0.151l0.073,0.152l0.071,0.153l0.07,0.154l0.066,0.153l0.064,0.154l0.062,0.156l0.061,0.156l0.057,0.156l0.056,0.157l0.053,0.158l0.051,0.159l0.049,0.158l0.046,0.16l0.044,0.16l0.042,0.16l0.039,0.16l0.037,0.162l0.035,0.162l0.032,0.162l0.03,0.163l0.027,0.163l0.025,0.163l0.022,0.163l0.02,0.164l0.017,0.165l0.015,0.164l0.012,0.165l0.009,0.166l0.007,0.164l0.005,0.162l0.002,0.168l0.001,0.163l0,0.162l-0.001,0.162l-0.003,0.161l-0.004,0.159l-0.005,0.159l-0.006,0.158l-0.008,0.157l-0.009,0.155l-0.01,0.156l-0.011,0.154l-0.012,0.153l-0.014,0.153l-0.015,0.151l-0.016,0.15l-0.017,0.15l-0.018,0.148l-0.02,0.148l-0.021,0.147l-0.022,0.146l-0.023,0.145l-0.024,0.143l-0.025,0.145l-0.027,0.141l-0.027,0.14l-0.029,0.141l-0.03,0.14l-0.032,0.138l-0.032,0.138l-0.033,0.135l-0.034,0.136l-0.036,0.136l-0.037,0.132l-0.037,0.133l-0.039,0.133l-0.04,0.13l-0.041,0.13l-0.042,0.128l-0.044,0.129l-0.044,0.128l-0.045,0.124l-0.047,0.125l-0.047,0.125l-0.049,0.123l-0.049,0.122l-0.051,0.122l-0.051,0.119l-0.053,0.119l-0.054,0.12l-0.055,0.116l-0.055,0.116l-0.057,0.116l-0.058,0.114l-0.058,0.113l-0.06,0.112l-0.061,0.112l-0.061,0.11l-0.063,0.109l-0.063,0.108l-0.064,0.108l-0.066,0.106l-0.066,0.105l-0.068,0.105l-0.067,0.102l-0.069,0.102l-0.071,0.102l-0.07,0.099l-0.072,0.1l-0.073,0.098l-0.074,0.097l-0.074,0.095l-0.075,0.095l-0.076,0.094l-0.076,0.092l-0.078,0.092l-0.079,0.091l-0.079,0.089l-0.08,0.089l-0.081,0.087l-0.081,0.086l-0.083,0.086l-0.084,0.084l-0.084,0.084l-0.085,0.082l-0.085,0.08l-0.086,0.08l-0.087,0.079l-0.087,0.077l-0.089,0.077l-0.089,0.076l-0.09,0.075l-0.091,0.073l-0.09,0.072l-0.092,0.071l-0.093,0.07l-0.093,0.069l-0.093,0.068l-0.094,0.067l-0.095,0.066l-0.096,0.064l-0.096,0.064l-0.097,0.062l-0.097,0.062l-0.098,0.06l-0.098,0.059l-0.099,0.058l-0.099,0.057l-0.1,0.056l-0.101,0.055l-0.1,0.053l-0.102,0.053l-0.102,0.051l-0.102,0.051l-0.103,0.049l-0.103,0.048l-0.104,0.047l-0.105,0.046l-0.104,0.045l-0.105,0.044l-0.105,0.042l-0.107,0.042l-0.106,0.041l-0.106,0.039l-0.107,0.039l-0.108,0.037l-0.107,0.036l-0.109,0.035l-0.108,0.035l-0.109,0.032l-0.109,0.032l-0.11,0.031l-0.11,0.03l-0.109,0.029l-0.111,0.027l-0.111,0.027l-0.111,0.025l-0.111,0.025l-0.112,0.023l-0.111,0.022l-0.112,0.022l-0.112,0.02l-0.113,0.019l-0.112,0.018l-0.114,0.017l-0.113,0.016l-0.113,0.015l-0.114,0.014l-0.113,0.013l-0.114,0.011l-0.114,0.011l-0.114,0.01l-0.115,0.008l-0.115,0.008l-0.114,0.006l-0.115,0.006l-0.115,0.004l-0.115,0.004l-0.115,0.002l-0.116,0.002l-0.115,0l-0.116,-0.001l-0.115,-0.001l-0.116,-0.003l-0.115,-0.004l-0.116,-0.005l-0.116,-0.005l-0.116,-0.007l-0.116,-0.008l-0.116,-0.009l-0.117,-0.01l-0.115,-0.011l-0.116,-0.012l-0.117,-0.013l-0.115,-0.013l-0.117,-0.015l-0.116,-0.016l-0.116,-0.017l-0.116,-0.018l-0.116,-0.019l-0.116,-0.02l-0.116,-0.021l-0.116,-0.022l-0.116,-0.023l-0.116,-0.024l-0.115,-0.025l-0.116,-0.026l-0.116,-0.027l-0.115,-0.028l-0.116,-0.028l-0.115,-0.03l-0.115,-0.031l-0.116,-0.032l-0.114,-0.033l-0.115,-0.034l-0.115,-0.035l-0.114,-0.036l-0.115,-0.036l-0.114,-0.038l-0.114,-0.039l-0.113,-0.04l-0.115,-0.041l-0.114,-0.041l-0.113,-0.043l-0.113,-0.044l-0.113,-0.044l-0.113,-0.046l-0.113,-0.047l-0.112,-0.047l-0.112,-0.049l-0.112,-0.049l-0.111,-0.051l-0.112,-0.051l-0.111,-0.053l-0.111,-0.053l-0.111,-0.055l-0.11,-0.055l-0.11,-0.056l-0.11,-0.057l-0.11,-0.059l-0.108,-0.059l-0.11,-0.06l-0.108,-0.061l-0.108,-0.062l-0.109,-0.064l-0.107,-0.064l-0.108,-0.065l-0.106,-0.066l-0.106,-0.066l-0.107,-0.068l-0.106,-0.069l-0.105,-0.07l-0.105,-0.07l-0.105,-0.072l-0.104,-0.073l-0.104,-0.073l-0.104,-0.075l-0.103,-0.076l-0.103,-0.076l-0.102,-0.078l-0.101,-0.077l-0.102,-0.08l-0.101,-0.08l-0.1,-0.082l-0.1,-0.082l-0.099,-0.083l-0.1,-0.084l-0.098,-0.085l-0.098,-0.085l-0.098,-0.088l-0.097,-0.088l-0.096,-0.088l-0.096,-0.09l-0.096,-0.09l-0.095,-0.092l-0.09,-0.089l1.89,-1.928l0.083,0.081l0.079,0.077l0.08,0.076l0.08,0.075l0.081,0.074l0.081,0.073l0.081,0.073l0.083,0.072l0.082,0.071l0.082,0.07l0.084,0.069l0.083,0.069l0.084,0.068l0.084,0.066l0.084,0.066l0.085,0.066l0.085,0.064l0.086,0.064l0.085,0.062l0.086,0.062l0.087,0.062l0.087,0.06l0.086,0.06l0.087,0.058l0.089,0.059l0.087,0.056l0.088,0.057l0.089,0.055l0.088,0.055l0.089,0.054l0.089,0.053l0.089,0.052l0.09,0.051l0.09,0.051l0.089,0.049l0.091,0.05l0.09,0.048l0.091,0.047l0.091,0.047l0.091,0.045l0.092,0.045l0.091,0.044l0.091,0.043l0.092,0.042l0.092,0.042l0.092,0.041l0.092,0.04l0.092,0.039l0.093,0.038l0.092,0.038l0.093,0.036l0.093,0.036l0.093,0.035l0.093,0.034l0.092,0.033l0.094,0.033l0.094,0.032l0.093,0.031l0.093,0.03l0.094,0.029l0.093,0.028l0.094,0.028l0.094,0.027l0.093,0.026l0.094,0.025l0.093,0.024l0.094,0.024l0.094,0.022l0.093,0.022l0.094,0.021l0.094,0.02l0.094,0.02l0.093,0.018l0.094,0.018l0.094,0.017l0.093,0.016l0.094,0.015l0.093,0.015l0.093,0.013l0.094,0.013l0.093,0.012l0.093,0.011l0.093,0.011l0.093,0.009l0.093,0.009l0.093,0.008l0.092,0.007l0.093,0.006l0.092,0.005l0.093,0.005l0.092,0.004l0.092,0.003l0.092,0.002l0.092,0.001l0.091,0.001l0.091,0l0.091,-0.001l0.091,-0.002l0.091,-0.003l0.091,-0.004l0.09,-0.004l0.09,-0.005l0.091,-0.006l0.089,-0.007l0.089,-0.007l0.09,-0.009l0.089,-0.009l0.089,-0.01l0.088,-0.011l0.089,-0.011l0.088,-0.013l0.088,-0.013l0.087,-0.014l0.088,-0.015l0.086,-0.015l0.088,-0.017l0.086,-0.017l0.086,-0.018l0.086,-0.019l0.085,-0.02l0.085,-0.02l0.085,-0.021l0.085,-0.022l0.084,-0.023l0.084,-0.024l0.083,-0.024l0.084,-0.026l0.083,-0.026l0.082,-0.026l0.082,-0.028l0.082,-0.028l0.081,-0.029l0.082,-0.031l0.081,-0.031l0.079,-0.031l0.08,-0.032l0.08,-0.034l0.079,-0.034l0.079,-0.034l0.078,-0.036l0.078,-0.036l0.078,-0.037l0.077,-0.038l0.076,-0.039l0.077,-0.039l0.076,-0.041l0.075,-0.041l0.075,-0.042l0.074,-0.043l0.075,-0.043l0.074,-0.045l0.073,-0.045l0.072,-0.045l0.073,-0.047l0.072,-0.048l0.071,-0.048l0.071,-0.049l0.07,-0.05l0.071,-0.051l0.069,-0.052l0.069,-0.052l0.068,-0.053l0.069,-0.054l0.068,-0.055l0.067,-0.056l0.066,-0.056l0.066,-0.057l0.065,-0.058l0.066,-0.059l0.064,-0.06l0.064,-0.061l0.064,-0.062l0.063,-0.062l0.062,-0.063l0.062,-0.064l0.062,-0.065l0.061,-0.066l0.06,-0.066l0.06,-0.068l0.059,-0.068l0.058,-0.069l0.058,-0.07l0.058,-0.071l0.057,-0.072l0.056,-0.073l0.056,-0.073l0.055,-0.074l0.055,-0.075l0.054,-0.077l0.053,-0.077l0.052,-0.078l0.053,-0.079l0.052,-0.08l0.05,-0.081l0.051,-0.081l0.049,-0.083l0.049,-0.083l0.049,-0.085l0.048,-0.086l0.046,-0.085l0.047,-0.088l0.046,-0.089l0.044,-0.088l0.045,-0.09l0.043,-0.092l0.044,-0.092l0.041,-0.092l0.042,-0.094l0.041,-0.096l0.04,-0.096l0.039,-0.097l0.039,-0.097l0.037,-0.099l0.037,-0.1l0.037,-0.102l0.036,-0.101l0.034,-0.102l0.034,-0.105l0.033,-0.104l0.033,-0.106l0.031,-0.107l0.031,-0.108l0.03,-0.11l0.029,-0.108l0.028,-0.111l0.027,-0.113l0.027,-0.114l0.026,-0.114l0.024,-0.114l0.024,-0.116l0.023,-0.118l0.023,-0.119l0.02,-0.118l0.021,-0.12l0.019,-0.122l0.018,-0.122l0.018,-0.124l0.016,-0.124l0.016,-0.126l0.014,-0.126l0.014,-0.129l0.013,-0.129l0.011,-0.129l0.011,-0.131l0.01,-0.132l0.008,-0.133l0.008,-0.134l0.006,-0.136l0.006,-0.136l0.004,-0.137l0.003,-0.139l0.003,-0.139l0.001,-0.14l0,-0.143l-0.001,-0.142l-0.002,-0.14l-0.003,-0.126l-0.005,-0.123l-0.007,-0.122l-0.01,-0.122l-0.011,-0.123l-0.012,-0.123l-0.015,-0.122l-0.017,-0.123l-0.019,-0.123l-0.02,-0.123l-0.023,-0.123l-0.024,-0.123l-0.026,-0.122l-0.028,-0.122l-0.03,-0.124l-0.032,-0.122l-0.034,-0.122l-0.035,-0.123l-0.038,-0.122l-0.039,-0.122l-0.041,-0.122l-0.043,-0.121l-0.045,-0.122l-0.047,-0.121l-0.048,-0.121l-0.051,-0.121l-0.052,-0.121l-0.054,-0.12l-0.055,-0.12l-0.058,-0.119l-0.059,-0.12l-0.061,-0.119l-0.063,-0.118l-0.065,-0.119l-0.067,-0.118l-0.067,-0.117l-0.07,-0.117l-0.072,-0.116l-0.073,-0.116l-0.076,-0.116l-0.076,-0.114l-0.079,-0.115l-0.08,-0.114l-0.082,-0.113l-0.083,-0.113l-0.086,-0.112l-0.086,-0.111l-0.089,-0.112l-0.09,-0.109l-0.092,-0.11l-0.094,-0.109l-0.095,-0.108l-0.096,-0.107l-0.099,-0.107l-0.099,-0.105l-0.102,-0.105l-0.102,-0.104l-0.105,-0.103l-0.106,-0.103l-0.108,-0.101l-0.108,-0.101l-0.111,-0.1l-0.113,-0.099l-0.113,-0.097l-0.115,-0.097l-0.116,-0.096l-0.119,-0.095l-0.119,-0.094l-0.121,-0.093l-0.122,-0.091l-0.124,-0.091l-0.125,-0.09l-0.126,-0.088l-0.128,-0.087l-0.129,-0.087l-0.131,-0.085l-0.132,-0.083l-0.133,-0.083l-0.135,-0.082l-0.135,-0.08l-0.138,-0.079l-0.138,-0.077l-0.14,-0.077l-0.141,-0.075l-0.143,-0.074l-0.143,-0.072l-0.145,-0.071l-0.146,-0.07l-0.147,-0.068l-0.149,-0.067l-0.15,-0.066l-0.15,-0.063l-0.153,-0.063l-0.153,-0.061l-0.154,-0.06l-0.156,-0.058l-0.156,-0.057l-0.158,-0.055l-0.159,-0.053l-0.16,-0.052l-0.161,-0.05l-0.162,-0.049l-0.164,-0.047l-0.164,-0.045l-0.165,-0.044l-0.167,-0.042l-0.167,-0.041l-0.168,-0.039l-0.17,-0.037l-0.171,-0.035l-0.171,-0.033l-0.173,-0.032l-0.173,-0.03l-0.174,-0.028l-0.176,-0.026l-0.176,-0.025l-0.177,-0.022l-0.179,-0.021l-0.179,-0.019l-0.18,-0.017l-0.181,-0.015l-0.182,-0.013l-0.182,-0.011l-0.184,-0.009l-0.184,-0.007l-0.186,-0.005l-0.186,-0.003l-0.191,-0.001l-111.051,0l0,-2.7l111.059,0l0.213,0.001Z" style="fill:#d0d0d0;"/><rect x="2325" y="522.027" width="203.768" height="3" style="fill:#cacaca;"/></g><g id="Turbine1"><path d="M1945.1,941.979l9.652,0l-7.653,-412.381l-2.065,0l0.066,412.381Z" style="fill:#bebebe;"/><path d="M1945.1,941.979l-7.858,0l6.958,-412.381l0.9,0l0,412.381Z" style="fill:#d3d3d3;"/><circle cx="1945.86" cy="513.957" r="16.642" style="fill:#d3d3d3;"/><circle cx="1945.86" cy="513.957" r="11.394" style="fill:#fff;"/><g id="rotor1"><circle cx="1945.86" cy="513.957" r="246.394" style="fill:#fff;fill-opacity:0;"/><path d="M1954.36,500.235l0,-229.663l-5.498,-3.01l-11.502,215.56l12.686,7.836l0.613,8.823l3.701,0.454Z" style="fill:#bfbfbf;"/><path d="M1954.36,521.458l198.894,114.831l5.356,-3.256l-180.93,-117.741l-13.128,7.068l-7.948,-3.881l-2.244,2.979Z" style="fill:#bfbfbf;"/><path d="M1932.86,515.191l-198.894,114.832l0.142,6.266l192.431,-97.819l0.444,-14.904l7.335,-4.942l-1.458,-3.433Z" style="fill:#bfbfbf;"/></g></g><g id="Turbine2"><path d="M2247.81,941.979l7.048,0l-5.588,-301.096l-1.508,0l0.048,301.096Z" style="fill:#bebebe;"/><path d="M2247.81,941.979l-5.738,0l5.081,-301.096l0.657,0l0,301.096Z" style="fill:#d3d3d3;"/><circle cx="2248.37" cy="629.462" r="12.151" style="fill:#d3d3d3;"/><circle cx="2248.37" cy="629.462" r="8.32" style="fill:#fff;"/><g id="rotor2"><path d="M2158.41,473.662c85.989,-49.646 196.107,-20.14 245.752,65.849c49.646,85.988 20.14,196.106 -65.849,245.751c-85.988,49.646 -196.106,20.14 -245.752,-65.848c-49.645,-85.989 -20.139,-196.107 65.849,-245.752Z" style="fill:#fff;fill-opacity:0;"/><path d="M2248.73,617.683l-83.843,-145.221l-4.576,0.104l71.422,140.502l10.882,0.323l3.609,5.356l2.506,-1.064Z" style="fill:#ccc;"/><path d="M2256.48,631.102l167.686,0l2.198,-4.014l-157.389,-8.398l-5.721,9.262l-6.443,0.448l-0.331,2.702Z" style="fill:#ccc;"/><path d="M2240.6,634.989l-83.843,145.22l2.377,3.911l85.968,-132.104l-5.161,-9.586l2.834,-5.803l-2.175,-1.638Z" style="fill:#ccc;"/></g></g><g id="Turbine3"><path d="M1670.6,941.979l5.548,0l-4.398,-237.011l-1.187,0l0.037,237.011Z" style="fill:#bebebe;"/><path d="M1670.6,941.979l-4.517,0l4,-237.011l0.517,0l0,237.011Z" style="fill:#d3d3d3;"/><circle cx="1671.03" cy="695.978" r="9.565" style="fill:#d3d3d3;"/><circle cx="1671.03" cy="695.978" r="6.549" style="fill:#fff;"/><g id="rotor3"><path d="M1634.38,559.19c75.495,-20.228 153.21,24.641 173.439,100.136c20.229,75.495 -24.64,153.21 -100.135,173.439c-75.495,20.229 -153.211,-24.64 -173.439,-100.135c-20.229,-75.495 24.64,-153.211 100.135,-173.44Z" style="fill:#fff;fill-opacity:0;"/><path d="M1673.71,687.096l-34.163,-127.499l-3.5,-0.853l25.68,121.38l8.208,2.463l1.653,4.807l2.122,-0.298Z" style="fill:#cbcbcb;"/><path d="M1676.87,698.878l127.499,34.163l2.489,-2.605l-117.959,-38.45l-6.237,5.877l-4.989,-0.973l-0.803,1.988Z" style="fill:#cbcbcb;"/><path d="M1664,698.597l-93.336,93.335l1.011,3.458l92.279,-82.93l-1.971,-8.34l3.337,-3.834l-1.32,-1.689Z" style="fill:#cbcbcb;"/></g></g><g id="SolarPanel1"><path id="bg" d="M2560,943.566l-2560,0l0,290.406l2560,-180.972l0,-109.434Z" style="fill:#a7a7a7;fill-opacity:0.21;"/><clipPath id="_clip2"><path d="M2560,943.566l-2560,0l0,290.406l2560,-180.972l0,-109.434Z"/></clipPath><g clip-path="url(#_clip2)"><path d="M25,917l2,331" style="fill:none;stroke:#fff;stroke-width:3px;"/><path d="M1.156,1075.43l2557.48,-74.404" style="fill:none;stroke:#fff;stroke-width:1.5px;"/><path d="M1.156,1086.22l2557.48,-80.869" style="fill:none;stroke:#fff;stroke-width:1.5px;"/><path d="M1.156,1099.33l2557.48,-90.259" style="fill:none;stroke:#fff;stroke-width:1.5px;"/><path d="M1.156,1109.63l2557.48,-96.281" style="fill:none;stroke:#fff;stroke-width:1.5px;"/><path d="M1.156,1121.86l2557.48,-104.321" style="fill:none;stroke:#fff;stroke-width:1.5px;"/><path d="M1.156,1133.4l2557.48,-112.379" style="fill:none;stroke:#fff;stroke-width:1.5px;"/><path d="M1.156,1145.65l2557.48,-120.764" style="fill:none;stroke:#fff;stroke-width:1.5px;"/><path d="M1.156,1156.35l2557.48,-127.449" style="fill:none;stroke:#fff;stroke-width:1.5px;"/><path d="M1.156,1172.12l2557.48,-138.716" style="fill:none;stroke:#fff;stroke-width:1.5px;"/><path d="M1.156,1185.17l2557.48,-146.821" style="fill:none;stroke:#fff;stroke-width:1.5px;"/><path d="M1.156,1199.17l2557.48,-155.25" style="fill:none;stroke:#fff;stroke-width:1.5px;"/><path d="M1.156,1213.07l2557.48,-164.147" style="fill:none;stroke:#fff;stroke-width:1.5px;"/><path d="M119,926l50,311" style="fill:none;stroke:#fff;stroke-width:4px;"/><path d="M73,926l26,311" style="fill:none;stroke:#fff;stroke-width:4px;"/><path d="M211.312,931.407l85.123,287.199" style="fill:none;stroke:#fff;stroke-width:4px;"/><path d="M163.939,927.706l72.54,304.224" style="fill:none;stroke:#fff;stroke-width:4px;"/><path d="M300.433,934.812l118.432,281.396" style="fill:none;stroke:#fff;stroke-width:4px;"/><path d="M254.244,927.706l105.849,292.381" style="fill:none;stroke:#fff;stroke-width:4px;"/><path d="M425.024,932.443l158.226,272.395" style="fill:none;stroke:#fff;stroke-width:4px;"/><path d="M383.335,933.865l148.278,274.763" style="fill:none;stroke:#fff;stroke-width:4px;"/><path d="M341.647,934.338l135.013,274.764" style="fill:none;stroke:#fff;stroke-width:4px;"/><path d="M541.28,933.354l198.019,262.447" style="fill:none;stroke:#fff;stroke-width:3px;"/><path d="M499.118,932.406l193.282,267.184c0,0 -192.808,-268.131 -193.282,-267.184Z" style="fill:none;stroke:#fff;stroke-width:3px;"/><path d="M618.498,937.617l212.705,242.55" style="fill:none;stroke:#fff;stroke-width:3px;"/><path d="M582.968,938.565l198.967,243.024" style="fill:none;stroke:#fff;stroke-width:3px;"/><path d="M726.035,937.617l237.813,230.707" style="fill:none;stroke:#fff;stroke-width:3px;"/><path d="M690.505,936.67l229.286,235.918" style="fill:none;stroke:#fff;stroke-width:3px;"/><path d="M762.039,939.512l239.707,225.022" style="fill:none;stroke:#fff;stroke-width:3px;"/><path d="M656.397,938.091l219.811,237.339" style="fill:none;stroke:#fff;stroke-width:3px;"/><path d="M827.413,938.565l259.605,222.18" style="fill:none;stroke:#fff;stroke-width:3px;"/><path d="M792.357,936.67l252.499,225.022" style="fill:none;stroke:#fff;stroke-width:3px;"/><path d="M891.367,939.512l269.553,212.705" style="fill:none;stroke:#fff;stroke-width:2px;"/><path d="M858.68,938.565l264.815,218.863" style="fill:none;stroke:#fff;stroke-width:2px;"/><path d="M1012.64,939.039l293.713,206.072" style="fill:none;stroke:#fff;stroke-width:2px;"/><path d="M981.376,939.986l289.449,207.494" style="fill:none;stroke:#fff;stroke-width:2px;"/><path d="M952.478,939.039l283.291,211.283" style="fill:none;stroke:#fff;stroke-width:2px;"/><path d="M1069.64,940.253l303.187,198.966" style="fill:none;stroke:#fff;stroke-width:2px;"/><path d="M1043.11,941.2l294.186,199.914" style="fill:none;stroke:#fff;stroke-width:2px;"/><path d="M1122.7,938.831l312.188,195.651" style="fill:none;stroke:#fff;stroke-width:2px;"/><path d="M1098.54,942.621l304.609,194.23" style="fill:none;stroke:#fff;stroke-width:2px;"/><path d="M1175.28,940.253l322.61,190.439" style="fill:none;stroke:#fff;stroke-width:2px;"/><path d="M1147.8,939.305l319.768,194.23" style="fill:none;stroke:#fff;stroke-width:2px;"/><path d="M1226.06,938.547l329.337,187.976" style="fill:none;stroke:#fff;stroke-width:2px;"/><path d="M1200.67,940.063l325.168,188.355" style="fill:none;stroke:#fff;stroke-width:2px;"/><path d="M1276.09,938.168l336.539,184.187" style="fill:none;stroke:#fff;stroke-width:1.5px;"/><path d="M1247.67,937.031l334.643,187.976" style="fill:none;stroke:#fff;stroke-width:2px;"/><path d="M1350.37,939.684l341.086,178.502" style="fill:none;stroke:#fff;stroke-width:1.5px;"/><path d="M1326.12,939.684l339.192,179.639" style="fill:none;stroke:#fff;stroke-width:1.5px;"/><path d="M1395.09,940.442l346.012,173.575" style="fill:none;stroke:#fff;stroke-width:1.5px;"/><path d="M1370.84,939.305l348.286,177.365" style="fill:none;stroke:#fff;stroke-width:1.5px;"/><path d="M1440.55,940.678l351.697,170.391" style="fill:none;stroke:#fff;stroke-width:1.5px;"/><path d="M1419.93,940.374l348.059,171.908" style="fill:none;stroke:#fff;stroke-width:1.5px;"/><path d="M1485.42,941.89l353.516,165.844" style="fill:none;stroke:#fff;stroke-width:1.2px;"/><path d="M1463.89,941.284l351.698,167.663" style="fill:none;stroke:#fff;stroke-width:1.5px;"/><path d="M1526.04,939.768l358.064,164.631" style="fill:none;stroke:#fff;stroke-width:1.2px;"/><path d="M1504.52,940.071l353.82,164.328" style="fill:none;stroke:#fff;stroke-width:1.2px;"/><path d="M1566.67,940.981l358.064,159.476" style="fill:none;stroke:#fff;stroke-width:1.2px;"/><path d="M1548.78,940.678l361.399,162.508" style="fill:none;stroke:#fff;stroke-width:1.2px;"/><path d="M1609.72,941.587l359.581,156.142" style="fill:none;stroke:#fff;stroke-width:1.2px;"/><path d="M1586.98,939.162l358.671,160.689" style="fill:none;stroke:#fff;stroke-width:1.2px;"/><path d="M1646.04,940.878l358.974,153.11" style="fill:none;stroke:#fff;stroke-width:1px;"/><path d="M1684.24,941.788l361.4,150.078" style="fill:none;stroke:#fff;stroke-width:1px;"/><path d="M1666.05,941.181l361.703,152.201" style="fill:none;stroke:#fff;stroke-width:1px;"/><path d="M1721.54,942.697l360.187,147.35" style="fill:none;stroke:#fff;stroke-width:0.8px;"/><path d="M1704.86,943.001l358.671,147.349" style="fill:none;stroke:#fff;stroke-width:0.8px;"/><path d="M1774.29,943.001l363.522,141.891" style="fill:none;stroke:#fff;stroke-width:0.8px;"/><path d="M1757.01,942.394l363.219,143.105" style="fill:none;stroke:#fff;stroke-width:0.8px;"/><path d="M1794.3,942.697l358.671,140.376" style="fill:none;stroke:#fff;stroke-width:0.8px;"/><path d="M1739.42,942.394l361.097,144.621" style="fill:none;stroke:#fff;stroke-width:0.8px;"/><path d="M1828.56,942.394l360.187,139.466" style="fill:none;stroke:#fff;stroke-width:0.8px;"/><path d="M1811.28,942.091l359.277,140.982" style="fill:none;stroke:#fff;stroke-width:0.8px;"/><path d="M1865.55,943.304l357.458,136.131" style="fill:none;stroke:#fff;stroke-width:0.8px;"/><path d="M1849.48,942.697l355.336,137.344" style="fill:none;stroke:#fff;stroke-width:0.8px;"/><path d="M1.156,1044.45l2260.09,-53.676" style="fill:none;stroke:#fff;stroke-width:1.5px;"/><path d="M1.156,1054.61l2271.56,-59.594" style="fill:none;stroke:#fff;stroke-width:1.5px;"/><path d="M1.156,1034.74l2247.01,-48.469" style="fill:none;stroke:#fff;stroke-width:1.5px;"/><path d="M1.156,1025.14l2233.2,-43.309" style="fill:none;stroke:#fff;stroke-width:1.5px;"/><path d="M1.156,1016.38l2218.37,-39.148" style="fill:none;stroke:#fff;stroke-width:1.5px;"/><path d="M1.156,1007.65l2206.27,-34.515" style="fill:none;stroke:#fff;stroke-width:1.5px;"/><path d="M1.156,999.551l2190.95,-31.154" style="fill:none;stroke:#fff;stroke-width:1.5px;"/><path d="M1.156,991.209l2180.31,-26.483" style="fill:none;stroke:#fff;stroke-width:1.5px;"/><path d="M1.156,984.07l2168.33,-23.33" style="fill:none;stroke:#fff;stroke-width:1.5px;"/><path d="M1.156,975.254l2156.06,-18.157" style="fill:none;stroke:#fff;stroke-width:1.5px;"/><path d="M1.156,966.496l2144.73,-13.711" style="fill:none;stroke:#fff;stroke-width:1.5px;"/><path d="M1.156,957.891l2134.3,-7.862" style="fill:none;stroke:#fff;stroke-width:1.5px;"/><path d="M1.156,950.763l2126.94,-3.529" style="fill:none;stroke:#fff;stroke-width:1.5px;"/></g><g id="hor-velke" serif:id="hor velke"><path d="M475.292,943.566l-14.811,0.207l161.549,246.661l17.809,-1.207l-164.547,-245.661Z" style="fill:#d8d8d8;"/><path d="M928.472,943l-11.917,0l273.712,207.296l13.42,-1.009l-275.215,-206.287Z" style="fill:#d8d8d8;"/><path d="M1311.26,943.566l-8.919,0l328.682,175.296l10.422,-1.009l-330.185,-174.287Z" style="fill:#d8d8d8;"/><path d="M1633.08,943l-7.92,0l355.667,151.296l8.423,-0.009l-356.17,-151.287Z" style="fill:#d8d8d8;"/><path d="M1875.94,943.566l-4.921,0l359.665,133.296l5.424,-1.009l-360.168,-132.287Z" style="fill:#d8d8d8;"/><path d="M2118.45,943.566l-4.918,0.185l364.408,119.705l5.383,-1.212l-364.873,-118.678Z" style="fill:#d8d8d8;"/><path d="M2315.8,943l-4.911,0.318l247.941,74.059l0,-2.557l-243.03,-71.82Z" style="fill:#d8d8d8;"/><path d="M2471.88,943.566l-4.906,0.395l91.848,25.886l0,-2.051l-86.942,-24.23Z" style="fill:#d8d8d8;"/></g><g id="ver-velke" serif:id="ver velke"><path d="M0,943l2560,0" style="fill:none;stroke:#dadada;stroke-width:3px;stroke-linecap:butt;"/><path d="M2.61,1066.09l2554.39,-72.846" style="fill:none;stroke:#dadada;stroke-width:5px;stroke-linecap:square;"/><path d="M0.263,1234.89l2559.1,-179.303" style="fill:none;stroke:#dadada;stroke-width:7px;stroke-linecap:butt;"/></g></g><g id="SolarPanel2"><path id="bg1" serif:id="bg" d="M2560,1093.96l-2560,194.02l0,152.017l2560,0l0,-346.037Z" style="fill:#c4c4c4;fill-opacity:0.33;"/><clipPath id="_clip3"><path d="M2560,1093.96l-2560,194.02l0,152.017l2560,0l0,-346.037Z"/></clipPath><g clip-path="url(#_clip3)"><path d="M2531.22,1439l27.217,-4.249" style="fill:none;stroke:#fff;stroke-width:1.5px;"/><path d="M2419.78,1439l138.983,-22.385" style="fill:none;stroke:#fff;stroke-width:1.5px;"/><path d="M2304.42,1439l254.339,-40.553" style="fill:none;stroke:#fff;stroke-width:1.5px;"/><path d="M2185.14,1439l373.288,-57.207" style="fill:none;stroke:#fff;stroke-width:1.5px;"/><path d="M2063.47,1439l494.964,-74.108" style="fill:none;stroke:#fff;stroke-width:1.5px;"/><path d="M1931.17,1439l627.258,-90.967" style="fill:none;stroke:#fff;stroke-width:1.5px;"/><path d="M1793.65,1439l764.782,-106.346" style="fill:none;stroke:#fff;stroke-width:1.5px;"/><path d="M1660.83,1439l897.606,-120.915" style="fill:none;stroke:#fff;stroke-width:1.5px;"/><path d="M1521.29,1439l1037.15,-135.869" style="fill:none;stroke:#fff;stroke-width:1.5px;"/><path d="M1370.87,1439l1187.57,-149.864" style="fill:none;stroke:#fff;stroke-width:1.5px;"/><path d="M1224.11,1439l1334.32,-163.582" style="fill:none;stroke:#fff;stroke-width:1.5px;"/><path d="M1061.7,1439l1496.73,-176.025" style="fill:none;stroke:#fff;stroke-width:1.5px;"/><path d="M731.514,1439l1731.33,-191.76" style="fill:none;stroke:#fff;stroke-width:1.5px;"/><path d="M547.6,1439l1893.34,-201.244" style="fill:none;stroke:#fff;stroke-width:1.5px;"/><path d="M371.659,1439l2046.69,-211.857" style="fill:none;stroke:#fff;stroke-width:1.5px;"/><path d="M172.31,1439l2226.17,-220.213" style="fill:none;stroke:#fff;stroke-width:1.5px;"/><path d="M1.489,1436.61l2374.86,-228.214" style="fill:none;stroke:#fff;stroke-width:1.5px;"/><path d="M1.489,1417.72l2353.64,-219.254" style="fill:none;stroke:#fff;stroke-width:1.5px;"/><path d="M1.489,1399.58l2333.76,-210.147" style="fill:none;stroke:#fff;stroke-width:1.5px;"/><path d="M1.489,1381.45l2315.93,-200.6" style="fill:none;stroke:#fff;stroke-width:1.5px;"/><path d="M1.489,1363.55l2293.8,-192.864" style="fill:none;stroke:#fff;stroke-width:1.5px;"/><path d="M1.489,1347.13l2275.73,-184.8" style="fill:none;stroke:#fff;stroke-width:1.5px;"/><path d="M1.489,1330l2258.34,-176.245" style="fill:none;stroke:#fff;stroke-width:1.5px;"/><path d="M1.489,1313.54l2235.53,-169.048" style="fill:none;stroke:#fff;stroke-width:1.5px;"/><path d="M1.489,1297.83l2217.02,-163.045" style="fill:none;stroke:#fff;stroke-width:1.5px;"/><path d="M15.34,1439l-13.851,-104.028" style="fill:none;stroke:#fff;stroke-width:1.5px;"/><path d="M46.931,1439l-26.249,-177.214" style="fill:none;stroke:#fff;stroke-width:1.5px;"/><path d="M78.96,1439l-29.298,-167.052" style="fill:none;stroke:#fff;stroke-width:1.5px;"/><path d="M142.875,1439l-37.512,-171.568" style="fill:none;stroke:#fff;stroke-width:1.5px;"/><path d="M172.596,1439l-41.264,-177.967" style="fill:none;stroke:#fff;stroke-width:1.5px;"/><path d="M204.37,1439l-47.069,-176.085" style="fill:none;stroke:#fff;stroke-width:1.5px;"/><path d="M235.514,1439l-51.868,-182.859" style="fill:none;stroke:#fff;stroke-width:1.5px;"/><path d="M266.195,1439l-56.58,-180.601" style="fill:none;stroke:#fff;stroke-width:1.5px;"/><path d="M296.952,1439l-56.852,-173.074" style="fill:none;stroke:#fff;stroke-width:1.5px;"/><path d="M327.047,1439l-63.161,-178.268" style="fill:none;stroke:#fff;stroke-width:1.5px;"/><path d="M357.073,1439l-67.745,-180.3" style="fill:none;stroke:#fff;stroke-width:1.5px;"/><path d="M386.553,1439l-73.063,-185.117" style="fill:none;stroke:#fff;stroke-width:1.5px;"/><path d="M416.521,1439l-81.277,-193.247" style="fill:none;stroke:#fff;stroke-width:1.5px;"/><path d="M445.861,1439l-82.842,-189.107" style="fill:none;stroke:#fff;stroke-width:1.5px;"/><path d="M475.248,1439l-89.271,-193.698" style="fill:none;stroke:#fff;stroke-width:1.5px;"/><path d="M532.337,1439l-95.722,-193.878" style="fill:none;stroke:#fff;stroke-width:1.5px;"/><path d="M561.965,1439l-106.438,-204.98" style="fill:none;stroke:#fff;stroke-width:1.5px;"/><path d="M591.339,1439l-107.491,-198.002" style="fill:none;stroke:#fff;stroke-width:1.5px;"/><path d="M618.237,1439l-113.14,-204.776" style="fill:none;stroke:#fff;stroke-width:1.5px;"/><path d="M648.27,1439l-117.596,-201.342" style="fill:none;stroke:#fff;stroke-width:1.5px;"/><path d="M676.002,1439l-122.292,-204.008" style="fill:none;stroke:#fff;stroke-width:1.5px;"/><path d="M703.501,1439l-127.573,-204.889" style="fill:none;stroke:#fff;stroke-width:1.5px;"/><path d="M732.242,1439l-134.793,-208.098" style="fill:none;stroke:#fff;stroke-width:1.5px;"/><path d="M759.032,1439l-138.204,-207.819" style="fill:none;stroke:#fff;stroke-width:1.5px;"/><path d="M786.631,1439l-140.129,-204.971" style="fill:none;stroke:#fff;stroke-width:1.5px;"/><path d="M815.104,1439l-144.355,-203.967" style="fill:none;stroke:#fff;stroke-width:1.5px;"/><path d="M840.743,1439l-152.133,-210.519" style="fill:none;stroke:#fff;stroke-width:1.5px;"/><path d="M868.007,1439l-160.187,-217.576" style="fill:none;stroke:#fff;stroke-width:1.5px;"/><path d="M921.308,1439l-163.446,-211.629" style="fill:none;stroke:#fff;stroke-width:1.5px;"/><path d="M948.658,1439l-179.738,-225.557" style="fill:none;stroke:#fff;stroke-width:1.5px;"/><path d="M974.584,1439l-183.656,-223.494" style="fill:none;stroke:#fff;stroke-width:1.5px;"/><path d="M1000.12,1439l-189.654,-226.849" style="fill:none;stroke:#fff;stroke-width:1.5px;"/><path d="M1026.1,1439l-192.973,-225.896" style="fill:none;stroke:#fff;stroke-width:1.5px;"/><path d="M1053.49,1439l-196.465,-221.553" style="fill:none;stroke:#fff;stroke-width:1.5px;"/><path d="M1078.41,1439l-201.934,-224.336" style="fill:none;stroke:#fff;stroke-width:1.5px;"/><path d="M1103.3,1439l-208.42,-226.956" style="fill:none;stroke:#fff;stroke-width:1.5px;"/><path d="M1130.6,1439l-209.059,-222.502" style="fill:none;stroke:#fff;stroke-width:1.5px;"/><path d="M1156.61,1439l-218.281,-229.984" style="fill:none;stroke:#fff;stroke-width:1.5px;"/><path d="M1179.76,1439l-226.739,-235.144" style="fill:none;stroke:#fff;stroke-width:1.5px;"/><path d="M1202.74,1439l-228.004,-234.612" style="fill:none;stroke:#fff;stroke-width:1.5px;"/><path d="M1230.38,1439l-243.271,-240.671" style="fill:none;stroke:#fff;stroke-width:1.5px;"/><path d="M1253.91,1439l-242.095,-237.926" style="fill:none;stroke:#fff;stroke-width:1.5px;"/><path d="M1305.49,1439l-247.958,-233.804" style="fill:none;stroke:#fff;stroke-width:1.5px;"/><path d="M1329.06,1439l-265.866,-246.752" style="fill:none;stroke:#fff;stroke-width:1.5px;"/><path d="M1351.39,1439l-255.442,-236.607" style="fill:none;stroke:#fff;stroke-width:1.5px;"/><path d="M1377.82,1439l-262.908,-238.951" style="fill:none;stroke:#fff;stroke-width:1.5px;"/><path d="M1401.41,1439l-267.321,-238.882" style="fill:none;stroke:#fff;stroke-width:1.5px;"/><path d="M1425.65,1439l-273.187,-239.035" style="fill:none;stroke:#fff;stroke-width:1.5px;"/><path d="M1448.85,1439l-279.098,-240.899" style="fill:none;stroke:#fff;stroke-width:1.5px;"/><path d="M1471.81,1439l-284.918,-243.058" style="fill:none;stroke:#fff;stroke-width:1.5px;"/><path d="M1494.34,1439l-294.159,-245.896" style="fill:none;stroke:#fff;stroke-width:1.5px;"/><path d="M1517.28,1439l-300.207,-249.541" style="fill:none;stroke:#fff;stroke-width:1.5px;"/><path d="M1541.57,1439l-312.132,-253.755" style="fill:none;stroke:#fff;stroke-width:1.5px;"/><path d="M1563.17,1439l-314.871,-253.985" style="fill:none;stroke:#fff;stroke-width:1.5px;"/><path d="M1587.8,1439l-333.068,-261.937" style="fill:none;stroke:#fff;stroke-width:1.5px;"/><path d="M1631.97,1439l-93.658,-72.963" style="fill:none;stroke:#fff;stroke-width:1.2px;"/><path d="M1654.34,1439l-97.989,-75.762" style="fill:none;stroke:#fff;stroke-width:1.2px;"/><path d="M1676.36,1439l-103.391,-79.121" style="fill:none;stroke:#fff;stroke-width:1.2px;"/><path d="M1699.67,1439l-105.154,-79.121" style="fill:none;stroke:#fff;stroke-width:1.2px;"/><path d="M1722.47,1439l-110.584,-81.456" style="fill:none;stroke:#fff;stroke-width:1.2px;"/><path d="M1741.68,1439l-113.728,-84.036" style="fill:none;stroke:#fff;stroke-width:1.2px;"/><path d="M1765.45,1439l-118.352,-85.813" style="fill:none;stroke:#fff;stroke-width:1.2px;"/><path d="M1788.5,1439l-123.748,-88.191" style="fill:none;stroke:#fff;stroke-width:1.2px;"/><path d="M1809.02,1439l-126.234,-89.229" style="fill:none;stroke:#fff;stroke-width:1.2px;"/><path d="M1830.92,1439l-132.434,-92.793" style="fill:none;stroke:#fff;stroke-width:1.2px;"/><path d="M1852.26,1439l-136.038,-94.259" style="fill:none;stroke:#fff;stroke-width:1.2px;"/><path d="M1870.86,1439l-136.037,-94.259" style="fill:none;stroke:#fff;stroke-width:1.2px;"/><path d="M1895.75,1439l-144.077,-98.346" style="fill:none;stroke:#fff;stroke-width:1.2px;"/><path d="M1916.9,1439l-148.703,-100.207" style="fill:none;stroke:#fff;stroke-width:1.2px;"/><path d="M1936.38,1439l-152.134,-102.123" style="fill:none;stroke:#fff;stroke-width:1.2px;"/><path d="M1958.12,1439l-157.539,-104.589" style="fill:none;stroke:#fff;stroke-width:1.2px;"/></g><g id="hor-velke1" serif:id="hor velke"><path d="M83.055,1278.24l-11.563,0.207l31.785,161.557l13.517,0l-33.739,-161.764Z" style="fill:#d8d8d8;"/><path d="M419.959,1253.68l-10.972,0.476l90.652,185.845l10.27,0l-89.95,-186.321Z" style="fill:#d8d8d8;"/><path d="M737.003,1230.29l-9.242,-0.445l163.619,210.159l9.368,0l-163.745,-209.714Z" style="fill:#d8d8d8;"/><path d="M1042.54,1208.36l-6.295,0.085l238.578,231.552l11.294,0l-243.577,-231.637Z" style="fill:#d8d8d8;"/><path d="M1292.89,1188.75l-6.185,1.103l319.254,250.145l8.283,0l-321.352,-251.248Z" style="fill:#d8d8d8;"/><path d="M1567.77,1169.82l-6.064,0.946l414.229,269.23l7.13,0l-415.295,-270.176Z" style="fill:#d8d8d8;"/><path d="M1812.17,1151.46l-6.105,0.812l508.73,287.725l7.156,0l-509.781,-288.537Z" style="fill:#d8d8d8;"/><path d="M2015.47,1135.86l-10.482,-1.035l555.012,281.699l0,-4.395l-544.53,-276.269Z" style="fill:#d8d8d8;"/><path d="M2195.18,1122.75l-4.765,0.528l369.585,170.801l0,-4.359l-364.82,-166.97Z" style="fill:#d8d8d8;"/><path d="M2361.09,1109.72l-0.803,1.9l199.711,86.214l0,-3.077l-198.908,-85.037Z" style="fill:#d8d8d8;"/></g><g id="ver-velke1" serif:id="ver velke"><path d="M0.378,1284.31l2555.98,-190.389" style="fill:none;stroke:#d8d8d8;stroke-width:7px;stroke-linecap:butt;"/><path d="M2560,1245.34l-1705.72,194.663l57.103,0l1648.62,-188.401l0,-6.262Z" style="fill:#d8d8d8;"/></g></g><g id="Beams"><path d="M137.625,586.203l-0.197,1.541l-2.976,-0.381l0.197,-1.541l2.976,0.381Zm1.143,-8.928l-0.572,4.464l-2.975,-0.381l0.571,-4.464l2.976,0.381Zm1.143,-8.927l-0.572,4.464l-2.975,-0.381l0.571,-4.464l2.976,0.381Zm1.143,-8.927l-0.572,4.464l-2.975,-0.381l0.571,-4.464l2.976,0.381Zm1.143,-8.927l-0.572,4.464l-2.975,-0.381l0.571,-4.464l2.976,0.381Zm1.143,-8.927l-0.572,4.464l-2.975,-0.381l0.571,-4.464l2.976,0.381Zm1.143,-8.927l-0.572,4.463l-2.975,-0.381l0.571,-4.463l2.976,0.381Zm1.143,-8.927l-0.572,4.463l-2.975,-0.381l0.571,-4.463l2.976,0.381Zm1.143,-8.927l-0.572,4.463l-2.975,-0.381l0.571,-4.463l2.976,0.381Zm1.143,-8.928l-0.572,4.464l-2.975,-0.381l0.571,-4.464l2.976,0.381Zm1.143,-8.927l-0.572,4.464l-2.975,-0.381l0.571,-4.464l2.976,0.381Zm1.143,-8.927l-0.572,4.464l-2.975,-0.381l0.571,-4.464l2.976,0.381Zm1.143,-8.927l-0.572,4.464l-2.975,-0.381l0.571,-4.464l2.976,0.381Zm1.143,-8.927l-0.572,4.464l-2.975,-0.381l0.571,-4.464l2.976,0.381Zm1.143,-8.927l-0.572,4.463l-2.975,-0.381l0.571,-4.463l2.976,0.381Zm1.143,-8.927l-0.572,4.463l-2.975,-0.381l0.571,-4.463l2.976,0.381Zm1.143,-8.927l-0.572,4.463l-2.975,-0.381l0.571,-4.463l2.976,0.381Zm1.143,-8.928l-0.572,4.464l-2.975,-0.381l0.571,-4.464l2.976,0.381Zm1.143,-8.927l-0.572,4.464l-2.975,-0.381l0.571,-4.464l2.976,0.381Zm1.143,-8.927l-0.572,4.464l-2.975,-0.381l0.571,-4.464l2.976,0.381Zm1.143,-8.927l-0.572,4.464l-2.975,-0.381l0.571,-4.464l2.976,0.381Zm1.143,-8.927l-0.572,4.464l-2.975,-0.381l0.571,-4.464l2.976,0.381Zm1.143,-8.927l-0.572,4.463l-2.975,-0.381l0.571,-4.463l2.976,0.381Zm1.143,-8.927l-0.572,4.463l-2.975,-0.381l0.571,-4.463l2.976,0.381Zm1.143,-8.927l-0.572,4.463l-2.975,-0.381l0.571,-4.463l2.976,0.381Zm1.143,-8.928l-0.572,4.464l-2.975,-0.381l0.571,-4.464l2.976,0.381Zm1.143,-8.927l-0.572,4.464l-2.975,-0.381l0.571,-4.464l2.976,0.381Zm1.143,-8.927l-0.572,4.464l-2.975,-0.381l0.571,-4.464l2.976,0.381Zm1.143,-8.927l-0.572,4.464l-2.975,-0.381l0.571,-4.464l2.976,0.381Zm1.143,-8.927l-0.572,4.464l-2.975,-0.381l0.571,-4.464l2.976,0.381Zm1.143,-8.927l-0.572,4.463l-2.975,-0.381l0.571,-4.463l2.976,0.381Zm1.143,-8.927l-0.572,4.463l-2.975,-0.381l0.571,-4.463l2.976,0.381Zm1.143,-8.927l-0.572,4.463l-2.975,-0.381l0.571,-4.463l2.976,0.381Zm1.143,-8.928l-0.572,4.464l-2.975,-0.381l0.571,-4.464l2.976,0.381Zm1.143,-8.927l-0.572,4.464l-2.975,-0.381l0.571,-4.464l2.976,0.381Zm1.143,-8.927l-0.572,4.464l-2.975,-0.381l0.571,-4.464l2.976,0.381Zm1.143,-8.927l-0.572,4.464l-2.975,-0.381l0.571,-4.464l2.976,0.381Zm1.143,-8.927l-0.572,4.464l-2.975,-0.381l0.571,-4.464l2.976,0.381Zm1.143,-8.927l-0.572,4.463l-2.975,-0.381l0.571,-4.463l2.976,0.381Zm1.143,-8.927l-0.572,4.463l-2.975,-0.381l0.571,-4.463l2.976,0.381Zm1.143,-8.927l-0.572,4.463l-2.975,-0.381l0.571,-4.463l2.976,0.381Zm1.143,-8.928l-0.572,4.464l-2.975,-0.381l0.571,-4.464l2.976,0.381Z" style="fill:#c1c1c1;"/><path d="M97.618,918.652l-5.618,8.348l-3.307,-9.503l8.925,1.155Z" style="fill:#c1c1c1;"/><path d="M95.392,912.48l-0.578,4.463l-2.975,-0.386l0.578,-4.462l2.975,0.385Zm1.155,-8.926l-0.577,4.463l-2.975,-0.385l0.577,-4.463l2.975,0.385Zm1.156,-8.925l-0.578,4.463l-2.975,-0.386l0.578,-4.462l2.975,0.385Zm1.155,-8.926l-0.577,4.463l-2.976,-0.385l0.578,-4.463l2.975,0.385Zm1.156,-8.925l-0.578,4.462l-2.975,-0.385l0.577,-4.462l2.976,0.385Zm1.155,-8.926l-0.578,4.463l-2.975,-0.385l0.578,-4.463l2.975,0.385Zm1.155,-8.925l-0.577,4.462l-2.976,-0.385l0.578,-4.462l2.975,0.385Zm1.156,-8.926l-0.578,4.463l-2.975,-0.385l0.577,-4.463l2.976,0.385Zm1.155,-8.925l-0.578,4.462l-2.975,-0.385l0.578,-4.463l2.975,0.386Zm1.155,-8.926l-0.577,4.463l-2.975,-0.385l0.577,-4.463l2.975,0.385Zm1.156,-8.925l-0.578,4.462l-2.975,-0.385l0.578,-4.463l2.975,0.386Zm1.155,-8.926l-0.578,4.463l-2.975,-0.385l0.578,-4.463l2.975,0.385Zm1.155,-8.926l-0.577,4.463l-2.975,-0.385l0.577,-4.463l2.975,0.385Zm1.156,-8.925l-0.578,4.463l-2.975,-0.385l0.578,-4.463l2.975,0.385Zm1.155,-8.926l-0.577,4.463l-2.976,-0.385l0.578,-4.463l2.975,0.385Zm1.156,-8.925l-0.578,4.463l-2.975,-0.386l0.577,-4.462l2.976,0.385Zm1.155,-8.926l-0.578,4.463l-2.975,-0.385l0.578,-4.463l2.975,0.385Zm1.155,-8.925l-0.577,4.463l-2.976,-0.386l0.578,-4.462l2.975,0.385Zm1.156,-8.926l-0.578,4.463l-2.975,-0.385l0.578,-4.463l2.975,0.385Zm1.155,-8.925l-0.578,4.462l-2.975,-0.385l0.578,-4.462l2.975,0.385Zm1.155,-8.926l-0.577,4.463l-2.975,-0.385l0.577,-4.463l2.975,0.385Zm1.156,-8.925l-0.578,4.462l-2.975,-0.385l0.578,-4.462l2.975,0.385Zm1.155,-8.926l-0.578,4.463l-2.975,-0.385l0.578,-4.463l2.975,0.385Zm1.156,-8.925l-0.578,4.462l-2.975,-0.385l0.577,-4.463l2.976,0.386Z" style="fill:#c1c1c1;"/><path d="M270.032,759.781l-4.032,9.219l-4.956,-8.757l8.988,-0.462Z" style="fill:#c4c4c4;"/><path d="M266.974,758.718l-2.996,0.154l-0.231,-4.494l2.996,-0.154l0.231,4.494Zm-0.462,-8.988l-2.996,0.153l-0.231,-4.494l2.996,-0.154l0.231,4.495Zm-0.462,-8.989l-2.996,0.154l-0.231,-4.494l2.996,-0.154l0.231,4.494Zm-0.462,-8.988l-2.996,0.154l-0.231,-4.494l2.996,-0.154l0.231,4.494Zm-0.461,-8.988l-2.996,0.154l-0.231,-4.494l2.996,-0.154l0.231,4.494Zm-0.462,-8.988l-2.996,0.154l-0.231,-4.494l2.996,-0.154l0.231,4.494Zm-0.462,-8.988l-2.996,0.154l-0.231,-4.494l2.996,-0.154l0.231,4.494Zm-0.462,-8.988l-2.996,0.154l-0.231,-4.494l2.996,-0.154l0.231,4.494Zm-0.462,-8.988l-2.996,0.153l-0.23,-4.494l2.996,-0.154l0.23,4.495Zm-0.461,-8.989l-2.996,0.154l-0.231,-4.494l2.996,-0.154l0.231,4.494Zm-0.462,-8.988l-2.996,0.154l-0.231,-4.494l2.996,-0.154l0.231,4.494Zm-0.462,-8.988l-2.996,0.154l-0.231,-4.494l2.996,-0.154l0.231,4.494Zm-0.462,-8.988l-2.996,0.154l-0.231,-4.494l2.997,-0.154l0.23,4.494Zm-0.461,-8.988l-2.996,0.154l-0.231,-4.494l2.996,-0.154l0.231,4.494Zm-0.462,-8.988l-2.996,0.154l-0.231,-4.494l2.996,-0.154l0.231,4.494Zm-0.462,-8.988l-2.996,0.153l-0.231,-4.494l2.996,-0.154l0.231,4.495Zm-0.462,-8.989l-2.996,0.154l-0.231,-4.494l2.996,-0.154l0.231,4.494Zm-0.461,-8.988l-2.997,0.154l-0.23,-4.494l2.996,-0.154l0.231,4.494Zm-0.462,-8.988l-2.996,0.154l-0.231,-4.494l2.996,-0.154l0.231,4.494Zm-0.462,-8.988l-2.996,0.154l-0.231,-4.494l2.996,-0.154l0.231,4.494Zm-0.462,-8.988l-2.996,0.154l-0.231,-4.494l2.996,-0.154l0.231,4.494Zm-0.462,-8.988l-2.996,0.154l-0.231,-4.494l2.997,-0.154l0.23,4.494Zm-0.461,-8.988l-2.996,0.153l-0.231,-4.494l2.996,-0.154l0.231,4.495Zm-0.462,-8.989l-2.996,0.154l-0.231,-4.494l2.996,-0.154l0.231,4.494Zm-0.462,-8.988l-2.996,0.154l-0.231,-4.494l2.996,-0.154l0.231,4.494Zm-0.462,-8.988l-2.996,0.154l-0.231,-4.494l2.996,-0.154l0.231,4.494Zm-0.461,-8.988l-2.997,0.154l-0.23,-4.494l2.996,-0.154l0.231,4.494Zm-0.462,-8.988l-2.996,0.154l-0.231,-4.494l2.996,-0.154l0.231,4.494Zm-0.462,-8.988l-2.996,0.154l-0.231,-4.495l2.996,-0.153l0.231,4.494Zm-0.462,-8.989l-2.996,0.154l-0.231,-4.494l2.996,-0.154l0.231,4.494Zm-0.462,-8.988l-2.996,0.154l-0.231,-4.494l2.997,-0.154l0.23,4.494Zm-0.461,-8.988l-2.996,0.154l-0.231,-4.494l2.996,-0.154l0.231,4.494Zm-0.462,-8.988l-2.996,0.154l-0.231,-4.494l2.996,-0.154l0.231,4.494Zm-0.462,-8.988l-2.996,0.154l-0.231,-4.494l2.996,-0.154l0.231,4.494Zm-0.462,-8.988l-2.996,0.154l-0.231,-4.494l2.996,-0.154l0.231,4.494Zm-0.461,-8.988l-2.997,0.154l-0.23,-4.495l2.996,-0.153l0.231,4.494Zm-0.462,-8.989l-2.996,0.154l-0.231,-4.494l2.996,-0.154l0.231,4.494Zm-0.462,-8.988l-2.996,0.154l-0.231,-4.494l2.996,-0.154l0.231,4.494Zm-0.462,-8.988l-2.996,0.154l-0.231,-4.494l2.996,-0.154l0.231,4.494Zm-0.462,-8.988l-2.996,0.154l-0.231,-4.494l2.997,-0.154l0.23,4.494Zm-0.461,-8.988l-2.996,0.154l-0.231,-4.494l2.996,-0.154l0.231,4.494Zm-0.462,-8.988l-2.996,0.154l-0.231,-4.494l2.996,-0.154l0.231,4.494Zm-0.462,-8.988l-2.996,0.154l-0.231,-4.495l2.996,-0.153l0.231,4.494Zm-0.462,-8.989l-2.996,0.154l-0.231,-4.494l2.996,-0.154l0.231,4.494Zm-0.461,-8.988l-2.996,0.154l-0.231,-4.494l2.996,-0.154l0.231,4.494Zm-0.462,-8.988l-2.996,0.154l-0.231,-4.494l2.996,-0.154l0.231,4.494Zm-0.462,-8.988l-2.996,0.154l-0.231,-4.494l2.996,-0.154l0.231,4.494Zm-0.462,-8.988l-2.996,0.154l-0.231,-4.494l2.996,-0.154l0.231,4.494Zm-0.462,-8.988l-2.996,0.154l-0.23,-4.494l2.996,-0.154l0.23,4.494Zm-0.461,-8.988l-2.996,0.153l-0.231,-4.494l2.996,-0.153l0.231,4.494Zm-0.462,-8.989l-2.996,0.154l-0.231,-4.494l2.996,-0.154l0.231,4.494Zm-0.462,-8.988l-2.996,0.154l-0.231,-4.494l2.996,-0.154l0.231,4.494Zm-0.462,-8.988l-2.996,0.154l-0.231,-4.494l2.996,-0.154l0.231,4.494Zm-0.461,-8.988l-2.996,0.154l-0.231,-4.494l2.996,-0.154l0.231,4.494Zm-0.462,-8.988l-2.996,0.154l-0.231,-4.494l2.996,-0.154l0.231,4.494Zm-0.462,-8.988l-2.996,0.154l-0.231,-4.494l2.996,-0.154l0.231,4.494Zm-0.462,-8.988l-2.996,0.153l-0.231,-4.494l2.996,-0.154l0.231,4.495Zm-0.462,-8.989l-2.996,0.154l-0.23,-4.494l2.996,-0.154l0.23,4.494Zm-0.461,-8.988l-2.996,0.154l-0.231,-4.494l2.996,-0.154l0.231,4.494Zm-0.462,-8.988l-2.996,0.154l-0.231,-4.494l2.996,-0.154l0.231,4.494Z" style="fill:#c4c4c4;"/><path d="M408.758,579.623l-1.381,9.967l-7.145,-7.085l8.526,-2.882Z" style="fill:#fff;"/><path d="M406.493,582.289l-2.843,0.96l-0.974,-2.883l2.842,-0.96l0.975,2.883Zm-2.416,-7.147l-2.842,0.961l-1.44,-4.263l2.842,-0.961l1.44,4.263Zm-2.881,-8.526l-2.842,0.961l-1.441,-4.263l2.842,-0.961l1.441,4.263Zm-2.881,-8.526l-2.842,0.96l-1.441,-4.263l2.842,-0.96l1.441,4.263Zm-2.882,-8.526l-2.842,0.96l-1.44,-4.263l2.842,-0.961l1.44,4.264Zm-2.881,-8.527l-2.842,0.961l-1.441,-4.263l2.842,-0.961l1.441,4.263Zm-2.881,-8.526l-2.842,0.96l-1.441,-4.263l2.842,-0.96l1.441,4.263Zm-2.882,-8.526l-2.842,0.96l-1.44,-4.263l2.842,-0.96l1.44,4.263Zm-2.881,-8.527l-2.842,0.961l-1.441,-4.263l2.842,-0.961l1.441,4.263Zm-2.881,-8.526l-2.842,0.961l-1.441,-4.264l2.842,-0.96l1.441,4.263Zm-2.882,-8.526l-2.842,0.96l-1.441,-4.263l2.843,-0.96l1.44,4.263Zm-2.881,-8.526l-2.842,0.96l-1.441,-4.263l2.842,-0.961l1.441,4.264Zm-2.881,-8.527l-2.843,0.961l-1.44,-4.263l2.842,-0.961l1.441,4.263Zm-2.882,-8.526l-2.842,0.96l-1.441,-4.263l2.842,-0.96l1.441,4.263Zm-2.881,-8.526l-2.842,0.96l-1.441,-4.263l2.842,-0.961l1.441,4.264Zm-2.882,-8.527l-2.842,0.961l-1.44,-4.263l2.842,-0.961l1.44,4.263Zm-2.881,-8.526l-2.842,0.96l-1.441,-4.263l2.842,-0.96l1.441,4.263Zm-2.881,-8.526l-2.842,0.96l-1.441,-4.263l2.842,-0.96l1.441,4.263Zm-2.882,-8.527l-2.842,0.961l-1.44,-4.263l2.842,-0.961l1.44,4.263Zm-2.881,-8.526l-2.842,0.961l-1.441,-4.264l2.842,-0.96l1.441,4.263Zm-2.881,-8.526l-2.842,0.96l-1.441,-4.263l2.842,-0.96l1.441,4.263Zm-2.882,-8.526l-2.842,0.96l-1.44,-4.263l2.842,-0.961l1.44,4.264Zm-2.881,-8.527l-2.842,0.961l-1.441,-4.263l2.842,-0.961l1.441,4.263Zm-2.881,-8.526l-2.843,0.96l-1.44,-4.263l2.842,-0.96l1.441,4.263Zm-2.882,-8.526l-2.842,0.96l-1.441,-4.263l2.843,-0.961l1.44,4.264Zm-2.881,-8.527l-2.842,0.961l-1.441,-4.263l2.842,-0.961l1.441,4.263Zm-2.882,-8.526l-2.842,0.96l-1.44,-4.263l2.842,-0.96l1.44,4.263Zm-2.881,-8.526l-2.842,0.96l-1.441,-4.263l2.842,-0.96l1.441,4.263Zm-2.881,-8.527l-2.842,0.961l-1.441,-4.263l2.842,-0.961l1.441,4.263Zm-2.882,-8.526l-2.842,0.961l-1.44,-4.264l2.842,-0.96l1.44,4.263Zm-2.881,-8.526l-2.842,0.96l-1.441,-4.263l2.842,-0.96l1.441,4.263Zm-2.881,-8.526l-2.842,0.96l-1.441,-4.263l2.842,-0.961l1.441,4.264Zm-2.882,-8.527l-2.842,0.961l-1.44,-4.263l2.842,-0.961l1.44,4.263Zm-2.881,-8.526l-2.842,0.96l-1.441,-4.263l2.842,-0.96l1.441,4.263Zm-2.881,-8.526l-2.842,0.96l-1.441,-4.263l2.842,-0.96l1.441,4.263Zm-2.882,-8.527l-2.842,0.961l-1.441,-4.263l2.843,-0.961l1.44,4.263Zm-2.881,-8.526l-2.842,0.961l-1.441,-4.264l2.842,-0.96l1.441,4.263Zm-2.881,-8.526l-2.843,0.96l-1.44,-4.263l2.842,-0.96l1.441,4.263Zm-2.882,-8.527l-2.842,0.961l-1.441,-4.263l2.842,-0.961l1.441,4.263Zm-2.881,-8.526l-2.842,0.961l-1.441,-4.264l2.842,-0.96l1.441,4.263Zm-2.882,-8.526l-2.842,0.96l-1.44,-4.263l2.842,-0.96l1.44,4.263Zm-2.881,-8.526l-2.842,0.96l-1.441,-4.263l2.842,-0.961l1.441,4.264Zm-2.881,-8.527l-2.842,0.961l-1.441,-4.263l2.842,-0.961l1.441,4.263Zm-2.882,-8.526l-2.842,0.96l-1.44,-4.263l2.842,-0.96l1.44,4.263Z" style="fill:#fff;"/></g><g id="AmpInfinity"><path id="path24" d="M91.152,673.604c0.783,7.673 5.246,14.712 12.14,19.183c3.532,2.309 6.331,3.128 10.231,3.66c4.086,0.556 6.292,0.483 11.115,-1.13c15.393,-5.154 22.178,-21.632 14.849,-35.871c-1.091,-2.167 -2.431,-3.993 -2.397,-4.24c0.025,-0.186 1.997,-1.616 3.764,-3.014l3.306,-2.513l-2.178,-3.45l-2.232,-3.52l-4.24,2.891c-2.296,1.578 -6.088,3.962 -8.412,5.285l-4.209,2.46l3.565,4.577c2.147,2.751 4.024,6.097 4.782,8.407c4.162,12.484 -8.591,24.176 -20.536,18.829c-8.923,-3.927 -12.182,-14.712 -6.772,-22.487c3.063,-4.438 6.229,-6.844 19.148,-14.667c6.601,-4.019 13.807,-8.775 15.95,-10.627c9.685,-8.138 13.08,-18.71 9.556,-29.404c-3.389,-10.298 -14.333,-17.905 -24.932,-17.395c-10.979,0.522 -19.282,6.389 -23.44,16.542c-3.488,8.478 -1.751,17.479 5.158,26.932l3.763,5.242l4.462,-2.671l4.524,-2.662l-3.796,-4.994c-4.643,-6.181 -6.056,-10.157 -5.39,-15.047c1.279,-8.464 8.797,-14.124 17.463,-12.943c8.481,1.156 14.194,8.744 13.038,17.225c-1.023,7.048 -5.088,10.971 -21.379,20.857c-6.53,3.966 -13.665,8.668 -15.801,10.458c-8.471,7.106 -12.061,14.939 -11.1,24.087Z" style="fill:none;fill-rule:nonzero;stroke:#c2c2c2;stroke-width:1px;stroke-linecap:butt;stroke-miterlimit:2;"/><path id="path241" serif:id="path24" d="M97.768,677.604c0.783,7.673 5.247,14.712 12.141,19.183c3.531,2.309 6.331,3.128 10.231,3.66c4.085,0.556 6.291,0.483 11.114,-1.13c15.393,-5.154 22.178,-21.632 14.85,-35.871c-1.092,-2.167 -2.432,-3.993 -2.398,-4.24c0.026,-0.186 1.998,-1.616 3.765,-3.014l3.306,-2.513l-2.179,-3.45l-2.231,-3.52l-4.24,2.891c-2.296,1.578 -6.089,3.962 -8.413,5.285l-4.209,2.46l3.566,4.577c2.147,2.751 4.024,6.097 4.781,8.407c4.163,12.484 -8.591,24.176 -20.536,18.829c-8.922,-3.927 -12.182,-14.712 -6.772,-22.487c3.064,-4.438 6.229,-6.844 19.149,-14.667c6.601,-4.019 13.806,-8.775 15.95,-10.627c9.684,-8.138 13.079,-18.71 9.555,-29.404c-3.389,-10.298 -14.332,-17.905 -24.932,-17.395c-10.979,0.522 -19.281,6.389 -23.439,16.542c-3.488,8.478 -1.751,17.479 5.158,26.932l3.762,5.242l4.462,-2.671l4.525,-2.662l-3.797,-4.994c-4.643,-6.181 -6.056,-10.157 -5.39,-15.047c1.28,-8.464 8.798,-14.124 17.464,-12.943c8.481,1.156 14.193,8.744 13.038,17.225c-1.024,7.048 -5.089,10.971 -21.38,20.857c-6.53,3.966 -13.665,8.668 -15.8,10.458c-8.472,7.106 -12.061,14.939 -11.101,24.087Z" style="fill:#fff;fill-rule:nonzero;"/><path id="path242" serif:id="path24" d="M2463.14,536.277c-2.435,0.588 -4.504,2.333 -5.64,4.747c-0.588,1.238 -0.729,2.175 -0.729,3.453c0,1.339 0.12,2.045 0.851,3.526c2.333,4.728 7.932,6.189 12.193,3.206c0.649,-0.446 1.178,-0.957 1.259,-0.957c0.061,0 0.608,0.572 1.135,1.079l0.954,0.953l1.014,-0.852l1.035,-0.872l-1.116,-1.238c-0.609,-0.669 -1.542,-1.785 -2.069,-2.475l-0.977,-1.246l-1.316,1.347c-0.791,0.812 -1.785,1.563 -2.496,1.908c-3.834,1.886 -8.156,-1.705 -6.959,-5.783c0.873,-3.043 4.2,-4.565 6.939,-3.165c1.562,0.792 2.475,1.705 5.559,5.519c1.583,1.948 3.429,4.058 4.119,4.666c3.043,2.759 6.594,3.388 9.88,1.786c3.165,-1.542 5.133,-5.397 4.504,-8.785c-0.649,-3.51 -2.901,-5.925 -6.35,-6.817c-2.881,-0.751 -5.701,0.203 -8.44,2.84l-1.522,1.441l1.055,1.318l1.055,1.339l1.441,-1.44c1.785,-1.765 3.003,-2.394 4.605,-2.394c2.78,0.04 4.931,2.211 4.931,5.052c0,2.779 -2.192,4.95 -4.971,4.95c-2.313,-0.02 -3.754,-1.156 -7.649,-5.965c-1.562,-1.927 -3.388,-4.017 -4.058,-4.626c-2.658,-2.414 -5.336,-3.225 -8.237,-2.515Z" style="fill:#d0d0d0;fill-rule:nonzero;"/></g><defs><linearGradient id="_Linear1" x1="0" y1="0" x2="1" y2="0" gradientUnits="userSpaceOnUse" gradientTransform="matrix(8.79778e-14,-1443.21,-2560,-1.57455e-13,1280,1443.21)"><stop offset="0" style="stop-color:#fff;stop-opacity:1"/><stop offset="1" style="stop-color:#ccc;stop-opacity:1"/></linearGradient></defs></svg>