<svg viewBox="0 0 1931 271" xmlns="http://www.w3.org/2000/svg" fill-rule="evenodd" clip-rule="evenodd" stroke-linecap="round" stroke-linejoin="round" stroke-miterlimit="1.5"><path d="M556 1080h169" fill="none" stroke="#484848" stroke-width="2.9" transform="matrix(.64633 0 0 .7282 -358.36 -545.529)"/><circle cx="739" cy="1080" r="10" fill="none" stroke="#484848" stroke-width="1.15" transform="translate(-524.606 -699.555) scale(.87083)"/><circle cx="739" cy="1080" r="10" fill="none" stroke="#484848" stroke-width="1.15" transform="translate(-475.287 -699.626) scale(.87083)"/><path d="M126.978 236.557l26.215-16.683" fill="none" stroke="#484848" stroke-width="2.00255"/><path d="M789 1082h225" fill="none" stroke="#484848" stroke-width="2.86" transform="matrix(.6667 0 0 .7282 -348.808 -546.985)"/><path d="M327.233 254.762v-28.4M333.787 233.644v14.564" fill="none" stroke="#484848" stroke-width="2.00255"/><path d="M1274 1080h446.18" fill="none" stroke="#484848" stroke-width="3.22" transform="matrix(.48962 0 0 .7282 -289.992 -545.529)"/><path d="M1365.39 1080h238.32" fill="none" stroke="#484848" stroke-width="3.88" transform="matrix(.40639 0 0 .6044 63.638 -411.831)"/><path d="M910.52 240.927h89.57" fill="none" stroke="#484848" stroke-width="1.9985625000000002"/><path d="M1000.089 240.926c10.435-8.01 20.877-16.02 31.312-24.03" fill="none" stroke="#484848" stroke-width="2.00255"/><circle cx="1629.5" cy="1088.5" r="15.5" fill="none" stroke="#484848" stroke-width=".87" transform="matrix(1.15103 0 0 1.15103 -904.269 -1012.327)"/><text x="1612.86" y="1082.46" font-family="'Poppins-Regular','Poppins'" font-size="12" fill="#d0d0d0" stroke="#484848" stroke-width=".55" stroke-linecap="butt" stroke-miterlimit="2" transform="matrix(1.82101 0 0 1.82101 -1973.352 -1723.755)">A</text><path d="M566.39 164.463v88.756" fill="none" stroke="#484848" stroke-width="2.0046537"/><path d="M2241 1105h33" fill="none" stroke="#484848" stroke-width="1.41" transform="matrix(1.29841 0 0 1.53027 -2364.78 -1436.932)"/><path d="M2245 1110h23" fill="none" stroke="#484848" stroke-width="1.49" transform="matrix(1.13107 0 0 1.53027 -1986.64 -1436.932)"/><path d="M560.269 269.324h10.712" fill="none" stroke="#484848" stroke-width="2.0046537"/><path d="M1431.918 240.928h330.6" fill="none" stroke="#484848" stroke-width="2.000394"/><path d="M1834.606 240.926H1930" fill="none" stroke="#484848" stroke-width="2.0006832"/><circle cx="739" cy="1080" r="10" fill="none" stroke="#484848" stroke-width="1.21" transform="matrix(.82516 0 0 .82516 1161.246 -650.229)"/><circle cx="739" cy="1080" r="10" fill="none" stroke="#484848" stroke-width="1.21" transform="matrix(.82516 0 0 .82516 1216.575 -650.296)"/><g><path d="M1777.077 247.186c1.376 2.12 4.119 6.351 10.195 6.117 8.665-.337 16.994-22.633 25.487-24.468 6.81-1.468 9.063 2.223 10.195 4.078" fill="none" stroke="#484848" stroke-width="1.9981807999999999"/></g><g><path d="M1305.789 240.895h22.441c0 5.807 4.813 10.52 10.744 10.52 5.93 0 10.743-4.713 10.743-10.52 0-3.413-1.755-8.466-4.449-8.474-2.693-.007-4.461 4.996-4.461 8.474 0 5.807 4.813 10.52 10.743 10.52 5.93 0 10.744-4.713 10.744-10.52 0-3.486-1.756-8.15-4.365-8.274-2.61-.123-4.546 4.872-4.546 8.274 0 5.807 4.813 10.52 10.744 10.52 5.93 0 10.744-4.713 10.744-10.52 0-3.437-1.588-8.4-4.272-8.42-2.685-.02-4.639 4.833-4.639 8.42 0 5.807 4.813 10.52 10.744 10.52 5.93 0 10.743-4.713 10.743-10.52 0-3.536-1.837-8.58-4.556-8.556-2.719.023-4.354 5.099-4.354 8.556 0 5.807 4.813 10.52 10.743 10.52 5.93 0 10.744-4.713 10.744-10.52 0-3.422-1.721-8.365-4.51-8.365-2.788 0-4.4 4.9-4.4 8.365 0 5.807 4.813 10.52 10.743 10.52 5.93 0 10.744-4.713 10.744-10.52h22.433" fill="none" stroke="#484848" stroke-width="1.9984868999999998" stroke-linecap="square" stroke-miterlimit="4"/></g><g><path d="M1305.794 240.89c-8.003-7.996-15.999-15.991-24.002-23.994" fill="none" stroke="#484848" stroke-width="2.00255"/></g><g><path d="M57.071 211.641h147.652l1.033-131.132-66.082-9.292h65.05l42.333-50.594-35.106 55.24 27.878 56.79-28.394-48.013 4.13 118.225 9.293 15.488h77.44l10.325-7.744 13.939-.517 3.098-140.424-36.655 58.854 29.427-69.696-30.46-57.822 39.236 52.66 76.408-11.875-72.794 21.167 3.098 147.653h98.607l6.195 6.195h80.398" fill="none" stroke="#484848" stroke-width="1.9979649000000002"/><path d="M1610 1038v-41h24l4-159h8l5 175h12v-19h17l9-295h6l10 301h17v29h24" fill="none" stroke="#484848" stroke-width="3.15" transform="matrix(.69072 0 0 .57354 -396.693 -354.405)"/><path d="M810.029 235.829c10.675-36.765 17.243-75.398 16.748-117.24h52.43c-1.667 39.58 3.474 83.772 16.021 122.337h24.03" fill="none" stroke="#484848" stroke-width="2.00255"/><g fill="none" stroke="#484848" stroke-width="1.83"><path d="M1031.037 216.892h40.445v-12.024h25.142V180.82h-73.239v-12.025l16.397-77.61h127.894l17.49 77.61v12.025h-74.332v24.048h25.142v12.024h33.886M1125.547 91.184l6.056 77.611M1081.921 91.184l-4.973 76.518M1185.166 168.795h-132.267M1034.305 117.1h139.208M1028.949 142.445h150.281" stroke-width="2.0003913"/></g><g fill="none" stroke="#484848" stroke-width="2.1"><path d="M1169.976 216.894h35.253v-10.48h21.914v-20.962h-55.09l.343-4.89" stroke-width="2.000838"/><path d="M1172.13 107.324h116.944l15.245 67.648v10.48h-64.79v20.962h21.914v10.48h20.304M1247.99 108.417l9.642 66.555M1208.86 108.417l1.133 65.602M1304.319 174.972h-110.914M1177.198 129.913h116.964M1182.372 152.004h116.773" stroke-width="2.000838"/></g><g fill="none" stroke="#484848" stroke-width="3.52"><path d="M588.968 135.573l-66.536 81.322 27.865-114.875V37.758h30.71L617.403 58.8H512.195v16.492M542.478 134.255l23.896 28.935" stroke-width="2.0017888"/><path d="M581.007 37.758v64.262l37.334 138.908-45.865-71.234M618.54 100.883v15.923" stroke-width="2.0017888"/><path d="M513.333 117.375v-17.06l36.964-21.042h30.71l36.396 21.61-104.07-.569M550.297 37.758L512.195 58.8M617.971 58.8v16.492" stroke-width="2.0017888"/></g></g><g><path d="M58.177 24.937h100.021c7.269 0 11.024-5.13 11.021-10.297-.003-16.544-23.445-16.57-23.374 1.332" fill="none" stroke="#484848" stroke-width="2.0012499999999998" stroke-linecap="butt" stroke-linejoin="miter"/><path d="M107.294 36.743h62.988c4.568 0 6.961 3.217 6.941 6.465-.054 8.386-11.94 8.304-11.937-.082" fill="none" stroke="#484848" stroke-width="1.000184" stroke-linecap="butt" stroke-linejoin="miter"/><path d="M41.78 30.62h108.867" fill="none" stroke="#484848" stroke-width=".999024" stroke-linecap="butt" stroke-linejoin="miter"/></g><g><path d="M1477.059 240.198v-53.887l-7.282-7.282" fill="none" stroke="#484848" stroke-width=".997634"/><circle cx="2474.5" cy="963.5" r="9.5" fill="none" stroke="#484848" stroke-width="1.37" transform="matrix(.7282 0 0 .7282 -337.613 -527.324)"/><path d="M1491.623 240.198v-78.645l-7.282-7.282" fill="none" stroke="#484848" stroke-width=".997634"/><circle cx="2474.5" cy="963.5" r="9.5" fill="none" stroke="#484848" stroke-width="1.37" transform="matrix(.7282 0 0 .7282 -323.049 -552.082)"/><path d="M1514.925 240.198v-64.81l9.467-7.282" fill="none" stroke="#484848" stroke-width=".997634"/><circle cx="2474.5" cy="963.5" r="9.5" fill="none" stroke="#484848" stroke-width="1.37" transform="matrix(.7282 0 0 .7282 -272.075 -538.247)"/><path d="M1525.848 240.198v-42.235l9.467-7.282" fill="none" stroke="#484848" stroke-width=".997634"/><circle cx="2474.5" cy="963.5" r="9.5" fill="none" stroke="#484848" stroke-width="1.37" transform="matrix(.7282 0 0 .7282 -260.424 -514.944)"/><path d="M1503.274 240.198V137.522" fill="none" stroke="#484848" stroke-width=".997634"/><circle cx="2474.5" cy="963.5" r="9.5" fill="none" stroke="#484848" stroke-width="1.37" transform="matrix(.7282 0 0 .7282 -298.29 -571.016)"/><path d="M1441.182 220.535v-85.252h-24.57l87.753-61.428 85.998 60.55h-22.816v82.769h150.54" fill="none" stroke="#484848" stroke-width="2.0007684"/></g><g><path d="M1897.667 90.48c-4.049 3.277-12.14 9.831-18.933 12.38-6.795 2.549-15.547.867-21.846 2.913-12.678 4.116-12.824 19.606-4.37 26.943 5.28 4.579 11.892 3.844 13.836 8.738 3.037 7.646-2.548 11.652 0 19.662 1.93 6.06 10.355 12.215 14.564 15.292M1801.544 16.932c-3.335 4.956-.37 15.378-4.711 22.722-4.1 6.923-14.127 6.418-16.406 15.145-1.631 6.253 4.879 13.738 10.923 16.02 6.43 2.427 19.537-3.52 27.671-1.456 8.134 2.063 13.472 10.314 21.118 13.835 12.38 5.704 18.933 5.584 26.943 2.913 8.01-2.67 16.749-13.512 21.118-18.933M1802.273 166.213c-3.132-22.355-19.807-27.325-56.8-24.759 1.26 23.984 15.329 37.625 56.8 29.128" fill="none" stroke="#484848" stroke-width="2.00255"/><path d="M1802.273 189.515v-73.548c2.803-17.121 16.311-17.8 34.953-16.748-.182 15.584-11.913 26.305-34.953 23.315v2.059c-3.845-13.551-16.378-17.402-35.682-15.18-.51 17.92 10.522 26.254 35.682 22.834v40.012c4.485-24.236 25.975-25.465 53.886-23.523 1.151 24.492-16.683 34.597-53.886 30.017M1703.238 217.187h46.604c2.032-9.94 17.084-25 33.498-26.215 14.28-1.057 20.2-1.393 34.953 0 15.787 1.49 32.325 16.974 33.497 25.487h49.518" fill="none" stroke="#484848" stroke-width="2.00255"/><path d="M1756.424 205.68c-32.415-16.485-54.639-50.16-54.639-88.983 0-55.061 44.7-99.764 99.764-99.764 55.063 0 99.763 44.703 99.763 99.764 0 39.14-22.588 73.048-55.428 89.385" fill="none" stroke="#484848" stroke-width="2.002705"/><path d="M1737.536 40.197c24.009 13.287 32.987 38.832 12.306 60.478-5.956 6.233-.327 16.853-2.177 23.405-2.308 8.16-10.202 18.484-21.853 13.733-5.36-2.186-6.314-16.02-10.195-21.117-3.27-4.287-9.823-7.74-13.108-9.467" fill="none" stroke="#484848" stroke-width="2.00255"/></g></svg>