<?xml version="1.0" encoding="UTF-8" standalone="no"?><!DOCTYPE svg PUBLIC "-//W3C//DTD SVG 1.1//EN" "http://www.w3.org/Graphics/SVG/1.1/DTD/svg11.dtd"><svg width="100%" height="100%" viewBox="0 0 596 244" version="1.1" xmlns="http://www.w3.org/2000/svg" xmlns:xlink="http://www.w3.org/1999/xlink" xml:space="preserve" xmlns:serif="http://www.serif.com/" style="fill-rule:evenodd;clip-rule:evenodd;stroke-linejoin:round;stroke-miterlimit:2;"><g id="amplogo"><path id="path24" d="M456.323,1.223c-12,2.9 -22.2,11.5 -27.8,23.4c-2.9,6.1 -3.594,10.717 -3.594,17.017c0,6.6 0.594,10.083 4.194,17.383c11.5,23.3 39.1,30.5 60.1,15.8c3.2,-2.2 5.806,-4.719 6.206,-4.719c0.3,0 2.994,2.819 5.594,5.319l4.7,4.7l5,-4.2l5.1,-4.3l-5.5,-6.1c-3,-3.3 -7.6,-8.8 -10.2,-12.2l-4.811,-6.144l-6.489,6.644c-3.9,4 -8.8,7.7 -12.3,9.4c-18.9,9.3 -40.2,-8.4 -34.3,-28.5c4.3,-15 20.7,-22.5 34.2,-15.6c7.7,3.9 12.2,8.4 27.4,27.2c7.8,9.6 16.9,20 20.3,23c15,13.6 32.5,16.7 48.7,8.8c15.6,-7.6 25.3,-26.6 22.2,-43.3c-3.2,-17.3 -14.3,-29.2 -31.3,-33.6c-14.2,-3.7 -28.1,1 -41.6,14l-7.5,7.1l5.2,6.5l5.2,6.6l7.1,-7.1c8.8,-8.7 14.8,-11.8 22.7,-11.8c13.7,0.2 24.3,10.9 24.3,24.9c0,13.7 -10.8,24.4 -24.5,24.4c-11.4,-0.1 -18.5,-5.7 -37.7,-29.4c-7.7,-9.5 -16.7,-19.8 -20,-22.8c-13.1,-11.9 -26.3,-15.9 -40.6,-12.4Z" style="fill:#e41000;fill-rule:nonzero;"/><path id="path26" d="M52.423,88.923c-31.7,5.3 -54.3,33.3 -52.3,64.9c1.6,25.4 17.6,46.5 41.7,55.2c5.941,1.796 8.785,2.395 20,2.3c9.75,-0.082 11.461,-0.675 20.3,-2.4c3.986,-1.194 5.852,-1.951 6.7,-2.5l0,-28.6l-4.4,3.4c-7,5.3 -12.8,7.1 -23.1,7.1c-11,-0.1 -17.7,-2.7 -25.8,-10.4c-19.7,-18.7 -14.5,-50.8 10.1,-62.4c6.1,-2.9 7.5,-3.2 16.7,-3.2c9,0 10.6,0.3 16,2.9c6.9,3.4 14.4,10.5 17.4,16.4c4.6,9 5.1,13.7 5.1,47.4l0,31.8l23.1,0l-0.3,-36.8l-0.3,-33.7c-0.216,-2.58 -1.462,-7.043 -2.7,-10.5c-10.3,-28.2 -39.5,-45.7 -68.2,-40.9Zm349.4,0.5c-17.3,3.7 -33.2,16.2 -41.6,32.6c-6.2,12.3 -6.4,13.8 -6.4,70.5l0,51.3l22.9,0l0.3,-51.3c0.3,-50.9 0.3,-51.2 2.6,-56.9c4.8,-11.8 17.3,-21.6 30,-23.7c16.6,-2.7 33.3,6.1 40.9,21.6c2.5,5.3 2.8,6.8 2.8,16.3c0,9.6 -0.3,11 -2.9,16.5c-7.6,15.4 -24.6,24.5 -40.7,21.6c-6.7,-1.1 -14.8,-5.2 -18.5,-8.3c-1.128,-0.835 -2.254,-1.675 -3.375,-2.519c0,0 -0.025,7.019 -0.025,14.619l0,14l5.7,2.1c34.2,12.8 71.3,-6 81.9,-41.5c2.5,-8.2 2.5,-24.8 0,-33c-9.5,-31.9 -41.4,-50.9 -73.6,-43.9Zm-221.4,0.9c-14.6,4 -27.9,14.8 -34.9,28.2c-6.2,11.8 -6.7,16.1 -6.7,56.5l0,35.8l24,0l0,-36.5c0,-33.6 0.2,-36.9 1.9,-41.5c2.8,-7.3 8,-13.1 15.3,-17c5.7,-3.1 7.1,-3.4 14.8,-3.5c6.6,0 9.5,0.5 13.2,2.2c6.6,3 13.3,9.6 16.5,16.2c1.501,3.105 2.754,6.874 2.8,8.6l0.3,34.2l0.3,37.3l22.9,0l0,-32.8c0,-32.9 0.7,-41.7 3.7,-47.7c3,-6 8.2,-11.2 14.5,-14.5c5.7,-3.1 7.1,-3.4 14.8,-3.5c6.6,0 9.5,0.5 13.2,2.2c6.6,3 13.3,9.6 16.5,16.2c1.337,2.811 2.84,6.403 2.8,8.6l0.3,34.2l0.3,37.3l22.9,0l0,-37.3c0,-41.1 -0.3,-43.8 -6.3,-55.1c-1.7,-3.4 -6.3,-9.3 -10.2,-13.2c-11.2,-11.4 -23.2,-16.4 -39,-16.4c-15.8,0 -27.2,4.4 -38.9,15.1l-6.3,5.8l-5.3,-5.4c-5.8,-5.9 -15.2,-11.3 -23.9,-13.9c-6.7,-2 -22.5,-2 -29.5,-0.1Z" style="fill:#fff;fill-rule:nonzero;"/></g></svg>