<svg xmlns="http://www.w3.org/2000/svg" width="1010" height="345" viewBox="0 0 1010 345">
  <g id="Group_145" data-name="Group 145" transform="translate(-178 -4349)">
    <line id="Line_1" data-name="Line 1" y2="167.93" transform="translate(683.5 4427.656)" fill="none" stroke="#707070" stroke-width="1" stroke-dasharray="7"/>
    <line id="Line_4" data-name="Line 4" y2="74.087" transform="translate(578.956 4391.848) rotate(90)" fill="none" stroke="#707070" stroke-width="1" stroke-dasharray="7"/>
    <line id="Line_5" data-name="Line 5" y2="74.087" transform="translate(886.417 4391.848) rotate(90)" fill="none" stroke="#707070" stroke-width="1" stroke-dasharray="7"/>
    <rect id="Rectangle_48" data-name="Rectangle 48" width="259" height="84" rx="4" transform="translate(254 4349)" fill="#ffb9b9"/>
    <rect id="Rectangle_49" data-name="Rectangle 49" width="259" height="84" rx="4" transform="translate(554 4349)" fill="#ffb9b9"/>
    <rect id="Rectangle_50" data-name="Rectangle 50" width="259" height="84" rx="4" transform="translate(854 4349)" fill="#ffb9b9"/>
    <path id="Path_42089" data-name="Path 42089" d="M17.832-8.376a8.238,8.238,0,0,0-8.4-8.544,8.251,8.251,0,0,0-8.4,8.544A8.251,8.251,0,0,0,9.432.168,8.238,8.238,0,0,0,17.832-8.376Zm-14.568,0c0-4.1,2.64-6.648,6.168-6.648S15.6-12.48,15.6-8.376c0,4.08-2.64,6.648-6.168,6.648S3.264-4.3,3.264-8.376ZM21.12,0H23.3V-11.352h2.76v-1.8H23.3v-.936c0-1.7.648-2.424,2.616-2.424v-1.824c-3.36,0-4.8,1.32-4.8,4.248v.936h-1.7v1.8h1.7Zm7.9,0H31.2V-11.352h2.76v-1.8H31.2v-.936c0-1.7.648-2.424,2.616-2.424v-1.824c-3.36,0-4.8,1.32-4.8,4.248v.936h-1.7v1.8h1.7Zm7.032-7.872h9.576V-9.72H36.048ZM60.6-4.56c0-6.192-9.024-3.5-9.024-7.824,0-1.8,1.416-2.736,3.216-2.688a3.03,3.03,0,0,1,3.24,2.424h2.4c-.264-2.544-2.352-4.3-5.544-4.3-3.312,0-5.544,1.872-5.544,4.632,0,6.216,9.048,3.336,9.048,7.848,0,1.584-1.248,2.784-3.36,2.784-2.328,0-3.312-1.392-3.456-2.784H49.248C49.3-1.7,51.672.168,55.032.168,58.656.168,60.6-2.184,60.6-4.56ZM63.816,0H66V-13.152H63.816Zm1.128-15.288a1.455,1.455,0,0,0,1.44-1.488,1.455,1.455,0,0,0-1.44-1.488,1.465,1.465,0,0,0-1.488,1.488A1.465,1.465,0,0,0,64.944-15.288ZM70.2-3.6C70.2-.96,71.52,0,73.848,0h1.968V-1.848H74.208c-1.344,0-1.824-.456-1.824-1.752v-7.752h3.432v-1.8H72.384v-3.312H70.2v3.312H68.5v1.8h1.7Zm13.848-7.92A3.859,3.859,0,0,1,88.2-7.536H79.9A4.073,4.073,0,0,1,84.048-11.52Zm6.144,7.464H87.84a3.615,3.615,0,0,1-3.7,2.424A4.134,4.134,0,0,1,79.872-5.76H90.384a11.838,11.838,0,0,0,.072-1.32,6.029,6.029,0,0,0-6.312-6.288c-3.84,0-6.5,2.616-6.5,6.768,0,4.176,2.76,6.816,6.5,6.816A5.914,5.914,0,0,0,90.192-4.056Zm20.424-.5c0-6.192-9.024-3.5-9.024-7.824,0-1.8,1.416-2.736,3.216-2.688a3.03,3.03,0,0,1,3.24,2.424h2.4c-.264-2.544-2.352-4.3-5.544-4.3-3.312,0-5.544,1.872-5.544,4.632,0,6.216,9.048,3.336,9.048,7.848,0,1.584-1.248,2.784-3.36,2.784-2.328,0-3.312-1.392-3.456-2.784H99.264c.048,2.76,2.424,4.632,5.784,4.632C108.672.168,110.616-2.184,110.616-4.56Zm15.7-2.04a6.42,6.42,0,0,0-6.648-6.768A6.433,6.433,0,0,0,113.016-6.6c0,4.176,2.832,6.816,6.552,6.816A6.521,6.521,0,0,0,126.312-6.6Zm-11.064,0c0-3.312,2.088-4.872,4.392-4.872,2.256,0,4.44,1.56,4.44,4.872,0,3.336-2.232,4.9-4.512,4.9S115.248-3.264,115.248-6.6ZM129.192,0h2.184V-17.76h-2.184Zm5.088-6.624c0,4.08,2.712,6.84,6.216,6.84a5.493,5.493,0,0,0,4.92-2.664V0h2.208V-13.152h-2.208v2.4a5.458,5.458,0,0,0-4.9-2.616C136.992-13.368,134.28-10.728,134.28-6.624Zm11.136.024c0,3.1-2.064,4.9-4.464,4.9s-4.44-1.824-4.44-4.92,2.04-4.848,4.44-4.848S145.416-9.648,145.416-6.6Zm8.088-.552c0-3.048,1.584-3.984,3.672-3.984h.576v-2.256a4.429,4.429,0,0,0-4.248,2.376v-2.136H151.32V0H153.5Z" transform="translate(310 4399)" fill="#313030"/>
    <path id="Path_42088" data-name="Path 42088" d="M17.089-8.027a7.894,7.894,0,0,0-8.05-8.188A7.908,7.908,0,0,0,.989-8.027,7.908,7.908,0,0,0,9.039.161,7.894,7.894,0,0,0,17.089-8.027Zm-13.961,0c0-3.933,2.53-6.371,5.911-6.371S14.95-11.96,14.95-8.027c0,3.91-2.53,6.371-5.911,6.371S3.128-4.117,3.128-8.027ZM29.072,0h2.07V-7.429c0-3.611-2.231-5.405-5.152-5.405a4.656,4.656,0,0,0-4.048,2.024V-12.6H19.849V0h2.093V-6.969c0-2.714,1.472-4.048,3.611-4.048,2.116,0,3.519,1.311,3.519,3.887Zm5.06-7.544h9.177V-9.315H34.132ZM57.661-4.37c0-5.934-8.648-3.358-8.648-7.5,0-1.725,1.357-2.622,3.082-2.576a2.9,2.9,0,0,1,3.1,2.323h2.3c-.253-2.438-2.254-4.117-5.313-4.117-3.174,0-5.313,1.794-5.313,4.439,0,5.957,8.671,3.2,8.671,7.521,0,1.518-1.2,2.668-3.22,2.668a2.969,2.969,0,0,1-3.312-2.668H46.782C46.828-1.633,49.1.161,52.325.161,55.8.161,57.661-2.093,57.661-4.37ZM60.743,0h2.093V-12.6H60.743Zm1.081-14.651a1.4,1.4,0,0,0,1.38-1.426,1.4,1.4,0,0,0-1.38-1.426A1.4,1.4,0,0,0,60.4-16.077,1.4,1.4,0,0,0,61.824-14.651Zm5.037,11.2c0,2.53,1.265,3.45,3.5,3.45h1.886V-1.771H70.7c-1.288,0-1.748-.437-1.748-1.679v-7.429h3.289V-12.6H68.954v-3.174H66.861V-12.6H65.228v1.725h1.633Zm13.271-7.59a3.7,3.7,0,0,1,3.979,3.818H76.153A3.9,3.9,0,0,1,80.132-11.04ZM86.02-3.887H83.766a3.464,3.464,0,0,1-3.542,2.323A3.962,3.962,0,0,1,76.13-5.52H86.2a11.344,11.344,0,0,0,.069-1.265,5.778,5.778,0,0,0-6.049-6.026c-3.68,0-6.233,2.507-6.233,6.486,0,4,2.645,6.532,6.233,6.532A5.667,5.667,0,0,0,86.02-3.887Zm19.573-.483c0-5.934-8.648-3.358-8.648-7.5,0-1.725,1.357-2.622,3.082-2.576a2.9,2.9,0,0,1,3.105,2.323h2.3c-.253-2.438-2.254-4.117-5.313-4.117-3.174,0-5.313,1.794-5.313,4.439,0,5.957,8.671,3.2,8.671,7.521,0,1.518-1.2,2.668-3.22,2.668a2.969,2.969,0,0,1-3.312-2.668H94.714C94.76-1.633,97.037.161,100.257.161,103.73.161,105.593-2.093,105.593-4.37Zm15.042-1.955a6.152,6.152,0,0,0-6.371-6.486,6.165,6.165,0,0,0-6.371,6.486c0,4,2.714,6.532,6.279,6.532A6.249,6.249,0,0,0,120.635-6.325Zm-10.6,0c0-3.174,2-4.669,4.209-4.669,2.162,0,4.255,1.495,4.255,4.669,0,3.2-2.139,4.692-4.324,4.692S110.032-3.128,110.032-6.325ZM123.4,0h2.093V-17.02H123.4Zm4.876-6.348c0,3.91,2.6,6.555,5.957,6.555a5.264,5.264,0,0,0,4.715-2.553V0h2.116V-12.6h-2.116v2.3a5.231,5.231,0,0,0-4.692-2.507C130.87-12.811,128.271-10.281,128.271-6.348Zm10.672.023c0,2.967-1.978,4.692-4.278,4.692s-4.255-1.748-4.255-4.715,1.955-4.646,4.255-4.646A4.319,4.319,0,0,1,138.943-6.325Zm7.751-.529c0-2.921,1.518-3.818,3.519-3.818h.552v-2.162a4.245,4.245,0,0,0-4.071,2.277V-12.6H144.6V0h2.093Z" transform="translate(612 4399)" fill="#313030"/>
    <path id="Path_42087" data-name="Path 42087" d="M17.832-8.376a8.238,8.238,0,0,0-8.4-8.544,8.251,8.251,0,0,0-8.4,8.544A8.251,8.251,0,0,0,9.432.168,8.238,8.238,0,0,0,17.832-8.376Zm-14.568,0c0-4.1,2.64-6.648,6.168-6.648S15.6-12.48,15.6-8.376c0,4.08-2.64,6.648-6.168,6.648S3.264-4.3,3.264-8.376ZM21.12,0H23.3V-11.352h2.76v-1.8H23.3v-.936c0-1.7.648-2.424,2.616-2.424v-1.824c-3.36,0-4.8,1.32-4.8,4.248v.936h-1.7v1.8h1.7Zm7.9,0H31.2V-11.352h2.76v-1.8H31.2v-.936c0-1.7.648-2.424,2.616-2.424v-1.824c-3.36,0-4.8,1.32-4.8,4.248v.936h-1.7v1.8h1.7Zm7.032-7.872h9.576V-9.72H36.048Zm23.136,4.3c-.1-4.7-7.728-3-7.728-6.12,0-1.056.96-1.824,2.568-1.824,1.752,0,2.76.96,2.856,2.28h2.184C58.92-11.808,57-13.368,54.1-13.368c-2.928,0-4.824,1.656-4.824,3.672,0,4.9,7.776,3.192,7.776,6.12,0,1.08-.96,1.944-2.688,1.944-1.848,0-2.976-.96-3.1-2.232H49.008c.144,2.4,2.3,4.08,5.376,4.08C57.288.216,59.184-1.416,59.184-3.576ZM62.256,0H64.44V-13.152H62.256Zm1.128-15.288a1.455,1.455,0,0,0,1.44-1.488,1.455,1.455,0,0,0-1.44-1.488A1.465,1.465,0,0,0,61.9-16.776,1.465,1.465,0,0,0,63.384-15.288ZM68.64-3.6c0,2.64,1.32,3.6,3.648,3.6h1.968V-1.848H72.648c-1.344,0-1.824-.456-1.824-1.752v-7.752h3.432v-1.8H70.824v-3.312H68.64v3.312h-1.7v1.8h1.7Zm13.848-7.92A3.859,3.859,0,0,1,86.64-7.536h-8.3A4.073,4.073,0,0,1,82.488-11.52Zm6.144,7.464H86.28a3.615,3.615,0,0,1-3.7,2.424A4.134,4.134,0,0,1,78.312-5.76H88.824A11.84,11.84,0,0,0,88.9-7.08a6.029,6.029,0,0,0-6.312-6.288c-3.84,0-6.5,2.616-6.5,6.768,0,4.176,2.76,6.816,6.5,6.816A5.914,5.914,0,0,0,88.632-4.056ZM101.568.024,103.992,0l4.032-13.464L111.912,0h2.448l4.848-16.728h-2.352L113.184-2.592l-3.84-14.136H106.9L102.864-2.544,99.216-16.728H96.888ZM121.608,0h2.184V-13.152h-2.184Zm1.128-15.288a1.455,1.455,0,0,0,1.44-1.488,1.455,1.455,0,0,0-1.44-1.488,1.465,1.465,0,0,0-1.488,1.488A1.465,1.465,0,0,0,122.736-15.288ZM137.136,0h2.16V-7.752c0-3.768-2.328-5.64-5.376-5.64A4.859,4.859,0,0,0,129.7-11.28v-1.872h-2.184V0H129.7V-7.272c0-2.832,1.536-4.224,3.768-4.224,2.208,0,3.672,1.368,3.672,4.056Zm4.92-6.624c0,4.08,2.712,6.84,6.24,6.84a5.4,5.4,0,0,0,4.9-2.688V0H155.4V-17.76h-2.208v6.96a5.736,5.736,0,0,0-4.872-2.568C144.768-13.368,142.056-10.728,142.056-6.624Zm11.136.024c0,3.1-2.064,4.9-4.464,4.9s-4.44-1.824-4.44-4.92,2.04-4.848,4.44-4.848S153.192-9.648,153.192-6.6Z" transform="translate(910 4399)" fill="#313030"/>
    <rect id="Rectangle_47" data-name="Rectangle 47" width="324" height="105" rx="4" transform="translate(521 4589)"/>
    <path id="Path_42092" data-name="Path 42092" d="M14.388,8.248h-9V25h9V23.2H7.572V17.44h6.1v-1.8h-6.1V10.048h6.816ZM27.324,25h2.16V17.248c0-3.768-2.328-5.64-5.376-5.64a4.859,4.859,0,0,0-4.224,2.112V11.848H17.7V25h2.184V17.728c0-2.832,1.536-4.224,3.768-4.224,2.208,0,3.672,1.368,3.672,4.056ZM38.652,13.48A3.859,3.859,0,0,1,42.8,17.464H34.5A4.073,4.073,0,0,1,38.652,13.48ZM44.8,20.944H42.444a3.615,3.615,0,0,1-3.7,2.424,4.134,4.134,0,0,1-4.272-4.128H44.988a11.839,11.839,0,0,0,.072-1.32,6.029,6.029,0,0,0-6.312-6.288c-3.84,0-6.5,2.616-6.5,6.768,0,4.176,2.76,6.816,6.5,6.816A5.914,5.914,0,0,0,44.8,20.944Zm5.328-3.1c0-3.048,1.584-3.984,3.672-3.984h.576V11.608a4.429,4.429,0,0,0-4.248,2.376V11.848H47.94V25h2.184Zm5.952.528c0,4.08,2.712,6.84,6.24,6.84a5.5,5.5,0,0,0,4.9-2.688v2.76c0,2.808-1.752,4.3-4.08,4.3a4.083,4.083,0,0,1-4.2-2.664h-2.16c.432,2.808,2.9,4.56,6.36,4.56a5.9,5.9,0,0,0,6.288-6.192V11.848H67.212v2.4a5.421,5.421,0,0,0-4.9-2.616C58.788,11.632,56.076,14.272,56.076,18.376Zm11.136.024c0,3.1-2.064,4.9-4.464,4.9s-4.44-1.824-4.44-4.92,2.04-4.848,4.44-4.848S67.212,15.352,67.212,18.4Zm10.9,4.1L73.98,11.848H71.556l5.3,13.008-2.592,6.336h2.256l7.92-19.344H82.188ZM93.036,25H95.22V12.592L100.764,25H102.3l5.52-12.384V25H110V8.392h-2.328L101.532,22.12,95.388,8.392H93.036Zm19.848-6.624c0,4.08,2.712,6.84,6.216,6.84a5.493,5.493,0,0,0,4.92-2.664V25h2.208V11.848H124.02v2.4a5.458,5.458,0,0,0-4.9-2.616C115.6,11.632,112.884,14.272,112.884,18.376Zm11.136.024c0,3.1-2.064,4.9-4.464,4.9s-4.44-1.824-4.44-4.92,2.04-4.848,4.44-4.848S124.02,15.352,124.02,18.4ZM139.548,25h2.16V17.248c0-3.768-2.328-5.64-5.376-5.64a4.859,4.859,0,0,0-4.224,2.112V11.848h-2.184V25h2.184V17.728c0-2.832,1.536-4.224,3.768-4.224,2.208,0,3.672,1.368,3.672,4.056Zm4.92-6.624c0,4.08,2.712,6.84,6.216,6.84a5.493,5.493,0,0,0,4.92-2.664V25h2.208V11.848H155.6v2.4a5.458,5.458,0,0,0-4.9-2.616C147.18,11.632,144.468,14.272,144.468,18.376ZM155.6,18.4c0,3.1-2.064,4.9-4.464,4.9s-4.44-1.824-4.44-4.92,2.04-4.848,4.44-4.848S155.6,15.352,155.6,18.4Zm5.088-.024c0,4.08,2.712,6.84,6.24,6.84a5.5,5.5,0,0,0,4.9-2.688v2.76c0,2.808-1.752,4.3-4.08,4.3a4.083,4.083,0,0,1-4.2-2.664h-2.16c.432,2.808,2.9,4.56,6.36,4.56a5.9,5.9,0,0,0,6.288-6.192V11.848h-2.208v2.4a5.421,5.421,0,0,0-4.9-2.616C163.4,11.632,160.692,14.272,160.692,18.376Zm11.136.024c0,3.1-2.064,4.9-4.464,4.9s-4.44-1.824-4.44-4.92,2.04-4.848,4.44-4.848S171.828,15.352,171.828,18.4Zm11.5-4.92a3.859,3.859,0,0,1,4.152,3.984h-8.3A4.073,4.073,0,0,1,183.324,13.48Zm6.144,7.464h-2.352a3.615,3.615,0,0,1-3.7,2.424,4.134,4.134,0,0,1-4.272-4.128H189.66a11.838,11.838,0,0,0,.072-1.32,6.029,6.029,0,0,0-6.312-6.288c-3.84,0-6.5,2.616-6.5,6.768,0,4.176,2.76,6.816,6.5,6.816A5.914,5.914,0,0,0,189.468,20.944ZM211.6,25h2.16V17.248c0-3.768-2.328-5.64-5.328-5.64a4.869,4.869,0,0,0-4.656,2.928,4.949,4.949,0,0,0-4.824-2.928,4.755,4.755,0,0,0-4.152,2.136v-1.9h-2.184V25H194.8V17.752c0-2.832,1.512-4.248,3.72-4.248,2.16,0,3.6,1.368,3.6,4.056V25h2.16V17.752c0-2.832,1.512-4.248,3.72-4.248,2.16,0,3.6,1.368,3.6,4.056Zm11.328-11.52a3.859,3.859,0,0,1,4.152,3.984h-8.3A4.073,4.073,0,0,1,222.924,13.48Zm6.144,7.464h-2.352a3.615,3.615,0,0,1-3.7,2.424,4.134,4.134,0,0,1-4.272-4.128H229.26a11.838,11.838,0,0,0,.072-1.32,6.029,6.029,0,0,0-6.312-6.288c-3.84,0-6.5,2.616-6.5,6.768,0,4.176,2.76,6.816,6.5,6.816A5.914,5.914,0,0,0,229.068,20.944ZM241.836,25H244V17.248c0-3.768-2.328-5.64-5.376-5.64A4.859,4.859,0,0,0,234.4,13.72V11.848h-2.184V25H234.4V17.728c0-2.832,1.536-4.224,3.768-4.224,2.208,0,3.672,1.368,3.672,4.056Zm6.216-3.6c0,2.64,1.32,3.6,3.648,3.6h1.968V23.152H252.06c-1.344,0-1.824-.456-1.824-1.752V13.648h3.432v-1.8h-3.432V8.536h-2.184v3.312h-1.7v1.8h1.7ZM92.088,50.44c0-6.192-9.024-3.5-9.024-7.824,0-1.8,1.416-2.736,3.216-2.688a3.03,3.03,0,0,1,3.24,2.424h2.4c-.264-2.544-2.352-4.3-5.544-4.3-3.312,0-5.544,1.872-5.544,4.632,0,6.216,9.048,3.336,9.048,7.848,0,1.584-1.248,2.784-3.36,2.784-2.328,0-3.312-1.392-3.456-2.784H80.736c.048,2.76,2.424,4.632,5.784,4.632C90.144,55.168,92.088,52.816,92.088,50.44Zm8.808-6.96a3.859,3.859,0,0,1,4.152,3.984h-8.3A4.073,4.073,0,0,1,100.9,43.48Zm6.144,7.464h-2.352a3.615,3.615,0,0,1-3.7,2.424A4.134,4.134,0,0,1,96.72,49.24h10.512a11.84,11.84,0,0,0,.072-1.32,6.029,6.029,0,0,0-6.312-6.288c-3.84,0-6.5,2.616-6.5,6.768,0,4.176,2.76,6.816,6.5,6.816A5.914,5.914,0,0,0,107.04,50.944Zm5.328-3.1c0-3.048,1.584-3.984,3.672-3.984h.576V41.608a4.429,4.429,0,0,0-4.248,2.376V41.848h-2.184V55h2.184Zm5.208-6L122.736,55h2.544l5.16-13.152h-2.328l-4.08,11.136-4.1-11.136ZM132.6,55h2.184V41.848H132.6Zm1.128-15.288a1.488,1.488,0,1,0-1.488-1.488A1.455,1.455,0,0,0,133.728,39.712Zm3.96,8.688c0,4.176,2.664,6.816,6.408,6.816a5.85,5.85,0,0,0,6.072-4.44h-2.352a3.528,3.528,0,0,1-3.72,2.592c-2.4,0-4.176-1.7-4.176-4.968,0-3.216,1.776-4.92,4.176-4.92a3.583,3.583,0,0,1,3.72,2.592h2.352c-.672-2.76-2.808-4.44-6.072-4.44C140.352,41.632,137.688,44.272,137.688,48.4Zm20.976-4.92a3.859,3.859,0,0,1,4.152,3.984h-8.3A4.073,4.073,0,0,1,158.664,43.48Zm6.144,7.464h-2.352a3.615,3.615,0,0,1-3.7,2.424,4.134,4.134,0,0,1-4.272-4.128H165a11.838,11.838,0,0,0,.072-1.32,6.029,6.029,0,0,0-6.312-6.288c-3.84,0-6.5,2.616-6.5,6.768,0,4.176,2.76,6.816,6.5,6.816A5.914,5.914,0,0,0,164.808,50.944Zm12.6.48c-.1-4.7-7.728-3-7.728-6.12,0-1.056.96-1.824,2.568-1.824,1.752,0,2.76.96,2.856,2.28h2.184c-.144-2.568-2.064-4.128-4.968-4.128-2.928,0-4.824,1.656-4.824,3.672,0,4.9,7.776,3.192,7.776,6.12,0,1.08-.96,1.944-2.688,1.944-1.848,0-2.976-.96-3.1-2.232h-2.256c.144,2.4,2.3,4.08,5.376,4.08C175.512,55.216,177.408,53.584,177.408,51.424Z" transform="translate(554 4609)" fill="#fff"/>
    <line id="Line_2" data-name="Line 2" y2="74.087" transform="translate(941.687 4511.622) rotate(90)" fill="none" stroke="#707070" stroke-width="1" stroke-dasharray="7"/>
    <line id="Line_3" data-name="Line 3" y2="74.087" transform="translate(500.87 4511.622) rotate(90)" fill="none" stroke="#707070" stroke-width="1" stroke-dasharray="7"/>
    <rect id="Rectangle_44" data-name="Rectangle 44" width="259" height="84" rx="4" transform="translate(178 4469)" fill="#d1d1d1"/>
    <rect id="Rectangle_45" data-name="Rectangle 45" width="259" height="84" rx="4" transform="translate(929 4469)" fill="#d1d1d1"/>
    <rect id="Rectangle_46" data-name="Rectangle 46" width="392" height="84" rx="4" transform="translate(487 4469)" fill="#d80e0e"/>
    <path id="Path_42091" data-name="Path 42091" d="M1.656,0h3.36V-10.9L9.528,0h2.544L16.56-10.9V0h3.36V-16.752H16.128L10.8-4.3,5.472-16.752H1.656ZM22.368-6.7c0,4.152,2.688,6.912,6.048,6.912a5.244,5.244,0,0,0,4.416-2.16V0h3.384V-13.3H32.832v1.9a5.258,5.258,0,0,0-4.392-2.112C25.056-13.512,22.368-10.848,22.368-6.7Zm10.464.048A3.58,3.58,0,0,1,29.3-2.736,3.633,3.633,0,0,1,25.8-6.7a3.546,3.546,0,0,1,3.5-3.864A3.58,3.58,0,0,1,32.832-6.648Zm10.032.024c0-2.568,1.2-3.336,3.192-3.336h.888v-3.528a4.611,4.611,0,0,0-4.08,2.256V-13.3H39.5V0h3.36ZM49.2,0h3.36V-5.664L57.072,0H61.44l-5.9-6.624L61.392-13.3H57.024L52.56-7.656v-10.1H49.2ZM68.928-10.752A2.954,2.954,0,0,1,72.1-7.9H65.784A3.088,3.088,0,0,1,68.928-10.752ZM75.24-4.176H71.616a2.74,2.74,0,0,1-2.664,1.608A3.111,3.111,0,0,1,65.76-5.64h9.72a7.853,7.853,0,0,0,.1-1.3,6.242,6.242,0,0,0-6.552-6.576c-3.936,0-6.672,2.664-6.672,6.864,0,4.176,2.808,6.864,6.672,6.864A6.18,6.18,0,0,0,75.24-4.176Zm3.312.048C78.552-1.08,80.256,0,82.8,0h2.112V-2.832h-1.56c-1.056,0-1.416-.384-1.416-1.272v-6.432h2.976V-13.3H81.936v-3.288H78.552V-13.3H76.968v2.76h1.584Zm24.216-12.648h-9.72V0h9.72V-2.736h-6.36v-4.44h5.64V-9.84h-5.64v-4.2h6.36ZM113.16,0h3.792l-4.416-6.672L116.9-13.3h-3.6l-2.448,4.1-2.712-4.1h-3.792l4.392,6.624L104.4,0H108l2.424-4.128Zm8.976-11.376V-13.3h-3.36V6.336h3.36V-1.9A5.428,5.428,0,0,0,126.528.216c3.408,0,6.072-2.76,6.072-6.912s-2.664-6.816-6.072-6.816A5.311,5.311,0,0,0,122.136-11.376Zm7.032,4.68a3.637,3.637,0,0,1-3.528,3.96,3.589,3.589,0,0,1-3.5-3.912,3.589,3.589,0,0,1,3.5-3.912A3.55,3.55,0,0,1,129.168-6.7Zm5.016,0c0,4.152,2.688,6.912,6.048,6.912a5.244,5.244,0,0,0,4.416-2.16V0h3.384V-13.3h-3.384v1.9a5.258,5.258,0,0,0-4.392-2.112C136.872-13.512,134.184-10.848,134.184-6.7Zm10.464.048a3.58,3.58,0,0,1-3.528,3.912,3.633,3.633,0,0,1-3.5-3.96,3.546,3.546,0,0,1,3.5-3.864A3.58,3.58,0,0,1,144.648-6.648ZM160.632,0h3.36V-7.8c0-3.672-2.208-5.688-5.3-5.688a4.966,4.966,0,0,0-4.008,1.848V-13.3h-3.36V0h3.36V-7.344c0-2.136,1.176-3.288,3-3.288,1.776,0,2.952,1.152,2.952,3.288ZM177.5-3.792c-.1-4.872-7.464-3.36-7.464-5.784,0-.768.648-1.272,1.9-1.272a1.981,1.981,0,0,1,2.232,1.728h3.216c-.192-2.64-2.136-4.392-5.352-4.392-3.288,0-5.256,1.776-5.256,3.984,0,4.872,7.512,3.36,7.512,5.736,0,.768-.72,1.368-2.04,1.368a2.207,2.207,0,0,1-2.4-1.776h-3.384c.144,2.472,2.472,4.416,5.808,4.416C175.512.216,177.5-1.512,177.5-3.792ZM180.264,0h3.36V-13.3h-3.36Zm1.7-14.88a1.985,1.985,0,0,0,2.064-1.968,1.985,1.985,0,0,0-2.064-1.968,1.97,1.97,0,0,0-2.064,1.968A1.97,1.97,0,0,0,181.968-14.88Zm17.808,8.232a6.57,6.57,0,0,0-6.84-6.864,6.57,6.57,0,0,0-6.84,6.864A6.508,6.508,0,0,0,192.84.216,6.647,6.647,0,0,0,199.776-6.648Zm-10.272,0c0-2.664,1.608-3.936,3.384-3.936s3.432,1.272,3.432,3.936c0,2.64-1.7,3.936-3.48,3.936C191.04-2.712,189.5-4.008,189.5-6.648ZM211.56,0h3.36V-7.8c0-3.672-2.208-5.688-5.3-5.688a4.966,4.966,0,0,0-4.008,1.848V-13.3h-3.36V0h3.36V-7.344c0-2.136,1.176-3.288,3-3.288,1.776,0,2.952,1.152,2.952,3.288Zm28.608-8.424a8.366,8.366,0,0,0-8.568-8.568,8.414,8.414,0,0,0-8.592,8.568A8.42,8.42,0,0,0,231.6.168,8.386,8.386,0,0,0,240.168-8.424Zm-13.7,0c0-3.408,2.088-5.544,5.136-5.544,3.024,0,5.112,2.136,5.112,5.544s-2.088,5.592-5.112,5.592C228.552-2.832,226.464-5.016,226.464-8.424ZM243.024,0h3.408V-10.536h2.328V-13.3h-2.328v-.552c0-1.488.552-2.016,2.184-1.968v-2.832c-3.744-.1-5.592,1.416-5.592,4.68v.672h-1.512v2.76h1.512Zm8.28,0h3.408V-10.536h2.328V-13.3h-2.328v-.552c0-1.488.552-2.016,2.184-1.968v-2.832c-3.744-.1-5.592,1.416-5.592,4.68v.672h-1.512v2.76H251.3Zm13.632-10.752A2.954,2.954,0,0,1,268.1-7.9h-6.312A3.088,3.088,0,0,1,264.936-10.752Zm6.312,6.576h-3.624a2.74,2.74,0,0,1-2.664,1.608,3.111,3.111,0,0,1-3.192-3.072h9.72a7.854,7.854,0,0,0,.1-1.3,6.242,6.242,0,0,0-6.552-6.576c-3.936,0-6.672,2.664-6.672,6.864,0,4.176,2.808,6.864,6.672,6.864A6.18,6.18,0,0,0,271.248-4.176Zm6.144-2.448c0-2.568,1.2-3.336,3.192-3.336h.888v-3.528a4.611,4.611,0,0,0-4.08,2.256V-13.3h-3.36V0h3.36ZM283.728,0h3.36V-13.3h-3.36Zm1.7-14.88a1.985,1.985,0,0,0,2.064-1.968,1.985,1.985,0,0,0-2.064-1.968,1.97,1.97,0,0,0-2.064,1.968A1.97,1.97,0,0,0,285.432-14.88ZM299.712,0h3.36V-7.8c0-3.672-2.208-5.688-5.3-5.688a4.966,4.966,0,0,0-4.008,1.848V-13.3H290.4V0h3.36V-7.344c0-2.136,1.176-3.288,3-3.288,1.776,0,2.952,1.152,2.952,3.288ZM305.4-6.7c0,4.152,2.688,6.912,6.072,6.912a5.244,5.244,0,0,0,4.392-2.184V.1c0,2.472-1.44,3.528-3.288,3.528-1.68,0-2.928-.792-3.264-1.992h-3.336c.336,3.048,2.952,4.92,6.7,4.92,4.368,0,6.576-2.856,6.576-6.456V-13.3h-3.384v1.9a5.2,5.2,0,0,0-4.392-2.112C308.088-13.512,305.4-10.848,305.4-6.7Zm10.464.048a3.58,3.58,0,0,1-3.528,3.912,3.633,3.633,0,0,1-3.5-3.96,3.546,3.546,0,0,1,3.5-3.864A3.58,3.58,0,0,1,315.864-6.648Zm16.992,2.856c-.1-4.872-7.464-3.36-7.464-5.784,0-.768.648-1.272,1.9-1.272A1.981,1.981,0,0,1,329.52-9.12h3.216c-.192-2.64-2.136-4.392-5.352-4.392-3.288,0-5.256,1.776-5.256,3.984,0,4.872,7.512,3.36,7.512,5.736,0,.768-.72,1.368-2.04,1.368A2.207,2.207,0,0,1,325.2-4.2h-3.384c.144,2.472,2.472,4.416,5.808,4.416C330.864.216,332.856-1.512,332.856-3.792Z" transform="translate(516 4521)" fill="#fff"/>
    <path id="Path_42086" data-name="Path 42086" d="M5.232.024,7.656,0l4.032-13.464L15.576,0h2.448l4.848-16.728H20.52L16.848-2.592l-3.84-14.136H10.56L6.528-2.544,2.88-16.728H.552ZM25.272,0h2.184V-13.152H25.272ZM26.4-15.288a1.455,1.455,0,0,0,1.44-1.488,1.455,1.455,0,0,0-1.44-1.488,1.465,1.465,0,0,0-1.488,1.488A1.465,1.465,0,0,0,26.4-15.288ZM40.8,0h2.16V-7.752c0-3.768-2.328-5.64-5.376-5.64A4.859,4.859,0,0,0,33.36-11.28v-1.872H31.176V0H33.36V-7.272c0-2.832,1.536-4.224,3.768-4.224,2.208,0,3.672,1.368,3.672,4.056Zm4.92-6.624c0,4.08,2.712,6.84,6.24,6.84a5.4,5.4,0,0,0,4.9-2.688V0h2.208V-17.76H56.856v6.96a5.736,5.736,0,0,0-4.872-2.568C48.432-13.368,45.72-10.728,45.72-6.624ZM56.856-6.6c0,3.1-2.064,4.9-4.464,4.9s-4.44-1.824-4.44-4.92,2.04-4.848,4.44-4.848S56.856-9.648,56.856-6.6ZM62.184,4.08h2.16L70.92-22.608H68.736ZM84.888,0h2.184V-16.728H84.888v7.344h-8.52v-7.344H74.184V0h2.184V-7.584h8.52ZM95.76-2.5,91.632-13.152H89.208l5.3,13.008L91.92,6.192h2.256l7.92-19.344H99.84Zm10.7-8.208V-17.76H104.28V0h2.184V-2.424a5.488,5.488,0,0,0,4.92,2.64c3.528,0,6.24-2.76,6.24-6.84,0-4.1-2.688-6.744-6.24-6.744A5.572,5.572,0,0,0,106.464-10.7Zm8.928,4.08c0,3.1-2.04,4.92-4.464,4.92-2.376,0-4.464-1.8-4.464-4.9a4.52,4.52,0,0,1,4.464-4.872C113.352-11.472,115.392-9.72,115.392-6.624Zm7.3-.528c0-3.048,1.584-3.984,3.672-3.984h.576v-2.256a4.429,4.429,0,0,0-4.248,2.376v-2.136H120.5V0h2.184ZM129.456,0h2.184V-13.152h-2.184Zm1.128-15.288a1.455,1.455,0,0,0,1.44-1.488,1.455,1.455,0,0,0-1.44-1.488,1.465,1.465,0,0,0-1.488,1.488A1.465,1.465,0,0,0,130.584-15.288Zm3.96,8.664c0,4.08,2.712,6.84,6.24,6.84a5.4,5.4,0,0,0,4.9-2.688V0h2.208V-17.76H145.68v6.96a5.736,5.736,0,0,0-4.872-2.568C137.256-13.368,134.544-10.728,134.544-6.624ZM145.68-6.6c0,3.1-2.064,4.9-4.464,4.9s-4.44-1.824-4.44-4.92,2.04-4.848,4.44-4.848S145.68-9.648,145.68-6.6Z" transform="translate(986 4519)" fill="#313030"/>
    <path id="Path_42090" data-name="Path 42090" d="M12.72-4.56c0-6.192-9.024-3.5-9.024-7.824,0-1.8,1.416-2.736,3.216-2.688a3.03,3.03,0,0,1,3.24,2.424h2.4c-.264-2.544-2.352-4.3-5.544-4.3-3.312,0-5.544,1.872-5.544,4.632,0,6.216,9.048,3.336,9.048,7.848,0,1.584-1.248,2.784-3.36,2.784C4.824-1.68,3.84-3.072,3.7-4.464H1.368C1.416-1.7,3.792.168,7.152.168,10.776.168,12.72-2.184,12.72-4.56Zm3.7.96c0,2.64,1.32,3.6,3.648,3.6h1.968V-1.848H20.424C19.08-1.848,18.6-2.3,18.6-3.6v-7.752h3.432v-1.8H18.6v-3.312H16.416v3.312h-1.7v1.8h1.7Zm20.736-3A6.42,6.42,0,0,0,30.5-13.368,6.433,6.433,0,0,0,23.856-6.6c0,4.176,2.832,6.816,6.552,6.816A6.521,6.521,0,0,0,37.152-6.6Zm-11.064,0c0-3.312,2.088-4.872,4.392-4.872,2.256,0,4.44,1.56,4.44,4.872,0,3.336-2.232,4.9-4.512,4.9S26.088-3.264,26.088-6.6Zm16.128-.552c0-3.048,1.584-3.984,3.672-3.984h.576v-2.256a4.429,4.429,0,0,0-4.248,2.376v-2.136H40.032V0h2.184Zm5.952.528c0,4.08,2.712,6.84,6.216,6.84A5.493,5.493,0,0,0,59.3-2.448V0h2.208V-13.152H59.3v2.4a5.458,5.458,0,0,0-4.9-2.616C50.88-13.368,48.168-10.728,48.168-6.624ZM59.3-6.6c0,3.1-2.064,4.9-4.464,4.9S50.4-3.528,50.4-6.624s2.04-4.848,4.44-4.848S59.3-9.648,59.3-6.6Zm5.088-.024c0,4.08,2.712,6.84,6.24,6.84a5.5,5.5,0,0,0,4.9-2.688V.288c0,2.808-1.752,4.3-4.08,4.3a4.083,4.083,0,0,1-4.2-2.664h-2.16c.432,2.808,2.9,4.56,6.36,4.56A5.9,5.9,0,0,0,77.736.288v-13.44H75.528v2.4a5.421,5.421,0,0,0-4.9-2.616C67.1-13.368,64.392-10.728,64.392-6.624ZM75.528-6.6c0,3.1-2.064,4.9-4.464,4.9s-4.44-1.824-4.44-4.92,2.04-4.848,4.44-4.848S75.528-9.648,75.528-6.6Zm11.5-4.92a3.859,3.859,0,0,1,4.152,3.984h-8.3A4.073,4.073,0,0,1,87.024-11.52Zm6.144,7.464H90.816a3.615,3.615,0,0,1-3.7,2.424A4.134,4.134,0,0,1,82.848-5.76H93.36a11.838,11.838,0,0,0,.072-1.32,6.029,6.029,0,0,0-6.312-6.288c-3.84,0-6.5,2.616-6.5,6.768,0,4.176,2.76,6.816,6.5,6.816A5.914,5.914,0,0,0,93.168-4.056Z" transform="translate(261.322 4518.952)" fill="#313030"/>
  </g>
</svg>
