<svg xmlns="http://www.w3.org/2000/svg" width="71.099" height="71.099" viewBox="0 0 71.099 71.099"><path d="M86.706,40,75.348,29.779,77.6,17.394a1.185,1.185,0,0,0-1.966-1.086L61.753,29.032H41.345L27.465,16.308A1.185,1.185,0,0,0,25.5,17.394L27.75,29.778,16.392,40a1.185,1.185,0,0,0,.793,2.066H36.737l4.444,5.925H33.943l-.707-3.773-2.329.437L33.75,59.821,29.269,79.986H24.295a1.185,1.185,0,0,0-1.185,1.185v4.74A1.185,1.185,0,0,0,24.295,87.1H34.959a1.185,1.185,0,0,0,1.185-1.185V81.818l15.4-9.9,15.4,9.9v4.093A1.185,1.185,0,0,0,68.139,87.1H78.8a1.185,1.185,0,0,0,1.185-1.185v-4.74A1.185,1.185,0,0,0,78.8,79.986H74.964l-5.61-20.2,3.323-17.722H85.913A1.185,1.185,0,0,0,86.706,40ZM69.155,47.992H61.918l4.444-5.925h3.9Zm-9.444,2.943,6.005,7.722h-11.8ZM64.1,61.026,51.549,69.1,38.994,61.026Zm-28.356.731,11.767,7.564H34.067Zm31.68-.049,2.114,7.613H55.584Zm.032-4.67-5.193-6.676H68.71ZM40.935,31.944,48.688,39.7H34.043Zm-8.876,6.419L30.512,31.4h7.734Zm37,1.334H54.41l7.753-7.753Zm1.985-1.334L64.853,31.4h7.734Zm3.6-17.926-1.563,8.6H65.26ZM59.353,31.4l-7.8,7.8-7.8-7.8Zm-21.515-2.37H30.024l-1.563-8.6Zm-9.52,3.424L29.927,39.7H20.273ZM63.4,42.067l-11.85,15.8L39.7,42.067Zm-14.22,16.59h-11.8l6.005-7.722Zm-8.348-8.295-5.192,6.676-1.252-6.676ZM33.54,71.691H47.514l-12.9,8.295H31.7Zm.234,13.035H25.48v-2.37h8.295Zm43.844,0H69.324v-2.37h8.295Zm-9.132-4.74-12.9-8.295H70.2l2.3,8.295ZM73.171,39.7l1.609-7.241L82.825,39.7Z" transform="translate(-16 -15.997)"/></svg>