<svg xmlns="http://www.w3.org/2000/svg" width="111.571" height="71.099" viewBox="0 0 111.571 71.099"><g transform="translate(-766.546 -2865)"><g transform="translate(817.546 2875.522)"><g transform="translate(39.37 5.048)"><g transform="translate(0)"><path d="M320.057,40a8.077,8.077,0,1,0,8.077,8.077A8.077,8.077,0,0,0,320.057,40Zm0,14.134a6.058,6.058,0,1,1,6.058-6.058A6.058,6.058,0,0,1,320.057,54.134Z" transform="translate(-311.98 -40)"/></g></g><g transform="translate(46.437)"><g transform="translate(0)"><rect width="2.019" height="3.029"/></g></g><g transform="translate(46.437 23.221)"><g transform="translate(0)"><rect width="2.019" height="3.029"/></g></g><g transform="translate(34.322 12.115)"><g transform="translate(0)"><rect width="3.029" height="2.019"/></g></g><g transform="translate(57.542 12.115)"><g transform="translate(0)"><rect width="3.029" height="2.019"/></g></g><g transform="translate(37.451 3.13)"><g transform="translate(0)"><rect width="2.019" height="3.029" transform="translate(0 1.428) rotate(-45)"/></g></g><g transform="translate(53.87 19.548)"><g transform="translate(0)"><rect width="2.019" height="3.029" transform="translate(0 1.428) rotate(-45)"/></g></g><g transform="translate(37.451 19.547)"><g transform="translate(0 0)"><rect width="3.029" height="2.019" transform="translate(0 2.142) rotate(-45)"/></g></g><g transform="translate(53.871 3.13)"><g transform="translate(0 0)"><rect width="3.029" height="2.019" transform="translate(0 2.142) rotate(-45)"/></g></g><g transform="translate(0 14.134)"><path d="M54.41,156.949,30.18,112.526a1.009,1.009,0,0,0-.886-.526H1.025a1.049,1.049,0,0,0-.225.029H.775a.978.978,0,0,0-.278.123.761.761,0,0,0-.073.055,1.057,1.057,0,0,0-.218.223c-.014.021-.033.038-.046.061a.876.876,0,0,0-.055.127.819.819,0,0,0-.035.081,1.009,1.009,0,0,0-.05.3v7.075a1.011,1.011,0,0,0,.121.481l20.187,37.355a1.01,1.01,0,0,0,.888.529H53.524a1.01,1.01,0,0,0,.886-1.493Zm-8.645-11.632H38.98l-4.956-9.086h6.786ZM21.535,134.211h-7.8l-4.956-9.086h7.8Zm-2.655-9.086h6.786l4.956,9.086H23.836Zm3.757,11.106,4.956,9.086H19.8l-4.956-9.086Zm2.3,0h6.786l4.956,9.086H29.893Zm14.771-2.019H32.922l-4.956-9.086h6.786ZM28.694,114.019l4.956,9.086H26.864l-4.956-9.086Zm-9.086,0,4.956,9.086H17.778l-4.956-9.086Zm-9.086,0,4.956,9.086h-7.8l-4.956-9.086Zm11.3,42.4-19.788-36.6v-2.852l21.52,39.453Zm4.032,0L20.9,147.336h7.8l4.956,9.086Zm10.1,0-4.956-9.086H37.78l4.956,9.086Zm9.086,0-4.956-9.086h6.786l4.956,9.086Z" transform="translate(-0.02 -112)"/></g></g><g transform="translate(665.871 2865)"><path d="M259.033,296.189l-1.737-38h-1.889l-1.482,38Z" transform="translate(-133.604 -225.09)"/><path d="M257.657,22.065a1.865,1.865,0,0,0,1.652-1.882L257.694,2c0-.912-.006-2-.918-2h-.221c-.912,0-.992,1.085-.992,2l-1.542,18.187a1.864,1.864,0,0,0,1.653,1.882Z" transform="translate(-133.688)"/><path d="M318.6,232.365c.769.491,1.685,1.07,2.177.3l.119-.185c.492-.769-.38-1.419-1.15-1.91l-14.5-11.088a1.863,1.863,0,0,0-2.475.38l-1.066,1.671a1.863,1.863,0,0,0,.7,2.405Z" transform="translate(-175.073 -191.085)"/><path d="M103.114,232.353l16.2-8.428a1.864,1.864,0,0,0,.7-2.405l-1.066-1.671a1.865,1.865,0,0,0-2.475-.38l-14.5,11.089c-.769.492-1.64,1.141-1.15,1.91l.119.185C101.428,233.423,102.345,232.844,103.114,232.353Z" transform="translate(0 -191.073)"/><circle cx="2.541" cy="2.541" r="2.541" transform="translate(120.334 24.734)"/></g></g></svg>