<svg xmlns="http://www.w3.org/2000/svg" width="70.342" height="70.343" viewBox="0 0 70.342 70.343"><path d="M69.17,98h-3.6L63.308,65.1A1.173,1.173,0,0,0,62.136,64H55.1A1.173,1.173,0,0,0,53.929,65.1L51.663,98H49.24V90.969a1.173,1.173,0,0,0-1.905-.915l-9.819,7.855V90.969a1.172,1.172,0,0,0-1.9-.915l-9.819,7.855V90.969a1.172,1.172,0,0,0-1.9-.915l-9.819,7.855V90.969a1.173,1.173,0,0,0-1.777-1L.568,97A1.172,1.172,0,0,0,0,98V126.14a1.172,1.172,0,0,0,1.173,1.172h68a1.172,1.172,0,0,0,1.173-1.172V99.175A1.172,1.172,0,0,0,69.17,98ZM56.2,66.349h4.845L63.224,98H54.013ZM39.86,124.967V110.9h7.034v14.069Zm28.138,0H49.24V109.726a1.173,1.173,0,0,0-1.173-1.172H38.688a1.173,1.173,0,0,0-1.173,1.172v15.241H2.345v-26.3l9.379-5.627v7.308a1.172,1.172,0,0,0,1.905.916l9.819-7.855v6.939a1.172,1.172,0,0,0,1.9.916l9.819-7.855v6.939a1.172,1.172,0,0,0,1.9.916l9.819-7.855v5.766a1.172,1.172,0,0,0,1.173,1.173H68v24.62Zm0,0" transform="translate(0 -56.969)"/><path d="M353.126,2.344a4.354,4.354,0,0,1,1.14.881,4.1,4.1,0,0,0,2.62,1.463,4.279,4.279,0,0,0,2.762-1.524,5.493,5.493,0,0,1,.99-.82c.241.011.873.6,1.213.92a3.926,3.926,0,0,0,2.538,1.425,4.578,4.578,0,0,0,2.945-1.616c.287-.27.722-.679.806-.729.629,0,.774.209,1.161.767a2.965,2.965,0,0,0,2.591,1.578,1.172,1.172,0,0,0,0-2.345c-.235,0-.28-.016-.661-.566A3.464,3.464,0,0,0,368.14,0a3.765,3.765,0,0,0-2.412,1.365c-.389.367-1.042.98-1.29.986a4.776,4.776,0,0,1-.988-.8A4.351,4.351,0,0,0,360.637,0a4.064,4.064,0,0,0-2.592,1.449,4.867,4.867,0,0,1-1.127.9,4.561,4.561,0,0,1-1.055-.832A4.252,4.252,0,0,0,353.133,0a1.173,1.173,0,0,0-.008,2.345Zm0,0" transform="translate(-313.273 0.001)"/><path d="M69.862,490.668h-4.69A1.172,1.172,0,0,0,64,491.84v7.034a1.172,1.172,0,0,0,1.172,1.173h4.69a1.172,1.172,0,0,0,1.172-1.173V491.84A1.172,1.172,0,0,0,69.862,490.668ZM68.689,497.7H66.345v-4.689h2.345Zm0,0" transform="translate(-56.966 -436.738)"/><path d="M155.194,490.668H150.5a1.172,1.172,0,0,0-1.173,1.172v7.034a1.172,1.172,0,0,0,1.173,1.173h4.69a1.172,1.172,0,0,0,1.172-1.173V491.84A1.172,1.172,0,0,0,155.194,490.668Zm-1.173,7.034h-2.345v-4.689h2.345Zm0,0" transform="translate(-132.919 -436.738)"/><path d="M240.526,490.668h-4.69a1.172,1.172,0,0,0-1.173,1.172v7.034a1.172,1.172,0,0,0,1.173,1.173h4.69a1.172,1.172,0,0,0,1.172-1.173V491.84A1.172,1.172,0,0,0,240.526,490.668Zm-1.173,7.034h-2.345v-4.689h2.345Zm0,0" transform="translate(-208.872 -436.738)"/></svg>