<svg viewBox="0 0 640 567" xmlns="http://www.w3.org/2000/svg" fill-rule="evenodd" clip-rule="evenodd" stroke-linecap="round" stroke-linejoin="round" stroke-miterlimit="1.5"><g transform="matrix(.56407 .02493 -.02493 .56407 -558.106 -1968.53)"><circle cx="1590" cy="3850" r="430" fill="#eaeaea"/><clipPath id="a"><circle cx="1590" cy="3850" r="430"/></clipPath><g clip-path="url(#a)"><path d="M1695 3714l-10-1v5l-7 1-2 6 6 3-6 5 3 6 14-6 2-19zM1970.006 3890l-20 4.347-20.003-28.083 20 7.462 39.996 16.272 46.002-4.994-6-35-19.997-174.007-40.005-69.935-52.994 22.938-23.004 16.998-21.002-12.998 25.007-.996 7.995-13-31.004-13.004-36.993-17.002-37.005 16.003-29.994 39.003-28.003 20.998 7.002 31.004 18.998-13.001 6.005 13.995 13.991 9 17.005-23.994-5.003-21.009 20.001-26.001 13.002 4.007-20.004 21 7 18.994 28.008-4.994 5.998 4.997-32.006 10.998-8.993 25.002-38.003 4.995-6-14.993-5.005-4.999-4.994-.002-.006 19.998-29.991 25.005-30.004 14.991 14.997 10.006.009 20-35.011-.002.005 35.005 39.999-.003-.874-10.827 20.875-24.178 20.004-5.48 29.992 25.483 10.003.007-24.539-30.007 4.543-5.702 29.999 25.705 9.998 30.002 9.998-7.007-5.642-15.994 25.645-7.004 10.001-29.996 13.836 10 26.162 7 10.485 12.994-27.877.002-22.608 3.053-20 11.39 10.003 15.56 30.002-.001-10.008 30.002 15 29.998 30.002 63.893 58.521-28.9 16.48-19.67-19.997-15.324z" fill="#fff"/><path d="M1707 3707l4-17-15 5 3 20 8 1v10l-9 1 5 11-9 9 12-1 10-5 11-1 2-11-7-1-9-19-6-2zM1357.001 3611.247l-47 3.518-45.251-24.77-44.765-1.292-9.982 51.293 19.998 44.072 26.746-18.995 20.75 3.487 45.003 34.256 12.004 37.18-6.501 43.877 21.994 30.8 20.006 55.323 2.657-4.995-12.664-35.005h6.056l23.95 63.928 29.996 9.138 23.752 20.144 8.25 16.79 22.003 3.917 2.244-3.918-17.498-8-8.745-22.994-40.005-21.282 8.25-39.036 42.273-2.175 9.48 24.636 4.578-2.143 1.172-29.005 27.068-34 27.184-19.847 19.998-6.153H1570l6.682-7.754-12.663-12.246 5.981-20-19.998-20-19.998-10.236-8.687-22.523-20.246-7.241 1.93 20-13.001 40-39.996-29.57 4.496-30.43 47-30.482-.75-20.718-25.996 11.2-24.75-23.744-20.007 17.262-72.996-22.267zM1624 4018.498l-13.182-12.297-32.028-15.898-25.635-34.102-40.217-1.94-28.097-11.259-30.84 24.215.002 35.185-20.006 20.814 16.976 32.033 29.459 10.621-4.54 80.325 11.511 56.805 26.6 25.697 8.597-2.247-10.614-19.425 13.783-46.928 23.254-55.243 55.436-10.52 1.38-48.415 18.161-27.421zM1879.998 3960.002l-19.995-20.003-26.999-69.997-27.006-.004-15.997-7.003-5.846 13.207-34.156-16.206 5.006-16.73-45.005 6.73-29.995 15-24.007 35.003 8.286 30.464-10.286 9.753 16.976 32.033 24.46 11.625 40.462-3.878 30.506 65-.403 68.701 19.001 31.301 35.001-4.997 20.002-54.996 19.994-45.006.01-20.003 29.994-29.998 13.996-35.998-24 6.002z" fill="#fff"/></g></g><path d="M509.518 89.938l-130 75.214v17.792l130 73.113 130-73.54v-18.293l-130-74.286z" fill="#d9d9d9"/><path d="M509.518 89.938l-130 75.214 130 73.357 130-74.285-130-74.286z" fill="#fff"/><path d="M1570 735l-48.67 8.698-1.35 25.804L1570 760v-25z" fill="url(#_Linear2)" transform="matrix(-.31821 -.55104 3.51968 -2.03254 -1597.853 2569.671)"/><path d="M455.675 154.546a.855.855 0 00-.858-.86H453.1a.855.855 0 00-.858.86v39.484c0 .475.378.86.858.86h1.717c.48 0 .858-.385.858-.86v-39.484z" fill="#999"/><path d="M1700 735h-75l5.01 45.228 75.62-.228-5.63-45z" fill="url(#_Radial3)" transform="matrix(1.18382 -.67547 1.06707 1.87015 -2272.185 -146.404)"/><path d="M455.675 155.399l82.406-48.07M476.277 184.584l80.69-48.07M517.99 193.171l-52.014-77.258M548.325 175.918L495.16 97.025" fill="none" stroke="#cdcdcd" stroke-width=".9957381999999999"/><g><path d="M179.519 400.309l-130 75.214v17.791l130 73.114 130-73.54v-18.294l-130-74.285z" fill="#d9d9d9"/></g><g><path d="M179.519 400.309l-130 75.214 130 73.357 130-74.286-130-74.285z" fill="#fff"/></g><g><path d="M1570 735l-33.55 12.067-.17 18.98 32.95-14.681L1570 735z" fill="url(#_Linear4)" transform="matrix(-.69177 -1.19791 2.53407 -1.46338 -601.94 3451.418)"/><path d="M315.5 2681.5h-67l20 32h66l-19-32z" fill="url(#_Linear5)" transform="rotate(90 1785.32 1854.363) scale(1.2766)"/><path d="M286.5 2686.5l-8 17L297 2735l9.5-16.5-20-32z" fill="url(#_Linear6)" transform="rotate(90 1812.768 1833.3) scale(1.2766)"/><path d="M326.5 2677.5h-66L251 2694h66.5l9-16.5z" fill="url(#_Linear7)" transform="rotate(90 1757.236 1836.49) scale(1.2766)"/><path d="M187.171 444.246l12.944-24.878-1.378 20.013 8.56.806-12.365 25.225.8-20.36-8.56-.806z" fill="#fff"/></g><defs><linearGradient id="_Linear2" x1="0" y1="0" x2="1" y2="0" gradientUnits="userSpaceOnUse" gradientTransform="matrix(45 0 0 25 1525 747.5)"><stop offset="0" stop-color="#fff"/><stop offset="1" stop-color="#e8e8e8"/></linearGradient><linearGradient id="_Linear4" x1="0" y1="0" x2="1" y2="0" gradientUnits="userSpaceOnUse" gradientTransform="matrix(45 0 0 25 1525 747.5)"><stop offset="0" stop-color="#fff"/><stop offset=".49" stop-color="#f9f9f9"/><stop offset="1" stop-color="#e8e8e8"/></linearGradient><linearGradient id="_Linear5" x1="0" y1="0" x2="1" y2="0" gradientUnits="userSpaceOnUse" gradientTransform="matrix(32 0 0 48 277 2697)"><stop offset="0" stop-color="#dbdbdb"/><stop offset="1" stop-color="#747474"/></linearGradient><linearGradient id="_Linear6" x1="0" y1="0" x2="1" y2="0" gradientUnits="userSpaceOnUse" gradientTransform="matrix(32 0 0 48 277 2697)"><stop offset="0" stop-color="#6c6c6c"/><stop offset="1" stop-color="#c3c3c3"/></linearGradient><linearGradient id="_Linear7" x1="0" y1="0" x2="1" y2="0" gradientUnits="userSpaceOnUse" gradientTransform="matrix(32 0 0 48 277 2697)"><stop offset="0" stop-color="#c3c3c3"/><stop offset="1" stop-color="#979797"/></linearGradient><radialGradient id="_Radial3" cx="0" cy="0" r="1" gradientUnits="userSpaceOnUse" gradientTransform="matrix(80.6246 0 0 45.2283 1625 757.614)"><stop offset="0" stop-color="#959495"/><stop offset=".6" stop-color="#888788"/><stop offset=".81" stop-color="#6a696a"/><stop offset="1" stop-color="#4b4b4b"/></radialGradient></defs></svg>