<svg xmlns="http://www.w3.org/2000/svg" width="478.515" height="234.538" viewBox="0 0 478.515 234.538"><defs><style>.a{fill:#ffe1e1;}</style></defs><path class="a" d="M88.02,3.479C54.376,11.728,25.777,36.189,10.077,70.036,1.946,87.386,0,100.519,0,118.437c0,18.772,1.665,28.679,11.759,49.442C44,234.152,121.386,254.63,180.265,212.82c8.972-6.257,16.278-13.423,17.4-13.423.841,0,8.395,8.019,15.685,15.129l13.178,13.368,14.019-11.946,14.3-12.231-15.421-17.35c-8.411-9.386-21.308-25.03-28.6-34.7l-13.489-17.475-18.193,18.9c-10.935,11.377-24.673,21.9-34.486,26.737-52.99,26.451-112.71-23.892-96.168-81.063,12.056-42.664,58.037-64,95.888-44.371,21.589,11.093,34.206,23.892,76.823,77.364,21.869,27.305,47.383,56.886,56.916,65.419,42.056,38.682,91.121,47.5,136.542,25.03C458.4,200.589,485.593,146.548,476.9,99.048c-8.972-49.206-40.094-83.053-87.757-95.568Q329.423-12.305,272.508,43.3L251.479,63.494l14.579,18.488,14.58,18.772L300.545,80.56C325.218,55.815,342.04,47,364.19,47c38.411.569,68.131,31,68.131,70.823,0,38.967-30.28,69.4-68.692,69.4-31.962-.284-51.869-16.212-105.7-83.622-21.589-27.021-46.822-56.317-56.074-64.85C165.124,4.9,128.114-6.475,88.02,3.479Z" transform="translate(0 0)"/></svg>